Workaround Round Semibold.ufo
<glyph name="Exclamation_Mark" format="1">
  <advance width="190"/>
  <unicode hex="0021"/>
  <outline>
    <contour>
      <point x="0" y="83" type="curve" smooth="yes"/>
      <point x="0" y="34"/>
      <point x="43" y="-5"/>
      <point x="95" y="-5" type="curve" smooth="yes"/>
      <point x="147" y="-5"/>
      <point x="190" y="34"/>
      <point x="190" y="83" type="curve" smooth="yes"/>
      <point x="190" y="131"/>
      <point x="147" y="170"/>
      <point x="95" y="170" type="curve" smooth="yes"/>
      <point x="43" y="170"/>
      <point x="0" y="131"/>
    </contour>
    <contour>
      <point x="190" y="917" type="line" smooth="yes"/>
      <point x="190" y="966"/>
      <point x="147" y="1005"/>
      <point x="95" y="1005" type="curve" smooth="yes"/>
      <point x="43" y="1005"/>
      <point x="0" y="966"/>
      <point x="0" y="917" type="curve" smooth="yes"/>
      <point x="0" y="398" type="line" smooth="yes"/>
      <point x="0" y="350"/>
      <point x="43" y="310"/>
      <point x="95" y="310" type="curve" smooth="yes"/>
      <point x="147" y="310"/>
      <point x="190" y="350"/>
      <point x="190" y="398" type="curve" smooth="yes"/>
    </contour>
  </outline>
</glyph>
<glyph name="exclam" format="1">
  <advance width="339"/>
  <unicode hex="0021"/>
  <outline>
    <contour>
      <point x="203" y="107" type="line" smooth="yes"/>
      <point x="203" y="155"/>
      <point x="158" y="194"/>
      <point x="102" y="194" type="curve" smooth="yes"/>
      <point x="46" y="194"/>
      <point x="0" y="155"/>
      <point x="0" y="107" type="curve" smooth="yes"/>
      <point x="0" y="82" type="line" smooth="yes"/>
      <point x="0" y="34"/>
      <point x="46" y="-5"/>
      <point x="102" y="-5" type="curve" smooth="yes"/>
      <point x="158" y="-5"/>
      <point x="203" y="34"/>
      <point x="203" y="82" type="curve" smooth="yes"/>
    </contour>
    <contour>
      <point x="203" y="918" type="line"/>
      <point x="203" y="966"/>
      <point x="158" y="1005"/>
      <point x="102" y="1005" type="curve" smooth="yes"/>
      <point x="46" y="1005"/>
      <point x="0" y="966"/>
      <point x="0" y="918" type="curve" smooth="yes"/>
      <point x="13" y="400" type="line" smooth="yes"/>
      <point x="13" y="358"/>
      <point x="53" y="324"/>
      <point x="102" y="324" type="curve" smooth="yes"/>
      <point x="150" y="324"/>
      <point x="190" y="358"/>
      <point x="190" y="400" type="curve"/>
    </contour>
  </outline>
</glyph>
<glyph name="quotedbl" format="1">
  <advance width="620"/>
  <unicode hex="0022"/>
  <outline>
    <contour>
      <point x="189" y="913" type="line" smooth="yes"/>
      <point x="194" y="945"/>
      <point x="178" y="975"/>
      <point x="146" y="992" type="curve" smooth="yes"/>
      <point x="114" y="1010"/>
      <point x="76" y="1010"/>
      <point x="44" y="992" type="curve" smooth="yes"/>
      <point x="12" y="975"/>
      <point x="-4" y="945"/>
      <point x="1" y="913" type="curve" smooth="yes"/>
      <point x="31" y="716" type="line" smooth="yes"/>
      <point x="35" y="688"/>
      <point x="62" y="668"/>
      <point x="95" y="668" type="curve" smooth="yes"/>
      <point x="128" y="668"/>
      <point x="155" y="688"/>
      <point x="159" y="716" type="curve" smooth="yes"/>
    </contour>
    <contour>
      <point x="484" y="913" type="line" smooth="yes"/>
      <point x="489" y="945"/>
      <point x="473" y="975"/>
      <point x="441" y="992" type="curve" smooth="yes"/>
      <point x="409" y="1010"/>
      <point x="370" y="1010"/>
      <point x="339" y="992" type="curve" smooth="yes"/>
      <point x="307" y="975"/>
      <point x="290" y="945"/>
      <point x="295" y="913" type="curve" smooth="yes"/>
      <point x="326" y="716" type="line" smooth="yes"/>
      <point x="330" y="688"/>
      <point x="357" y="668"/>
      <point x="390" y="668" type="curve" smooth="yes"/>
      <point x="422" y="668"/>
      <point x="449" y="688"/>
      <point x="454" y="716" type="curve" smooth="yes"/>
    </contour>
  </outline>
</glyph>
<glyph name="numbersign" format="1">
  <advance width="1069"/>
  <unicode hex="0023"/>
  <outline>
    <contour>
      <point x="573" y="612" type="line"/>
      <point x="528" y="388" type="line"/>
      <point x="361" y="388" type="line"/>
      <point x="406" y="612" type="line"/>
    </contour>
    <contour>
      <point x="763" y="612" type="line"/>
      <point x="826" y="612" type="line" smooth="yes"/>
      <point x="875" y="612"/>
      <point x="922" y="651"/>
      <point x="932" y="700" type="curve" smooth="yes"/>
      <point x="941" y="749"/>
      <point x="910" y="788"/>
      <point x="861" y="788" type="curve" smooth="yes"/>
      <point x="798" y="788" type="line"/>
      <point x="825" y="923" type="line" smooth="yes"/>
      <point x="834" y="969"/>
      <point x="799" y="1005"/>
      <point x="746" y="1005" type="curve" smooth="yes"/>
      <point x="694" y="1005"/>
      <point x="644" y="969"/>
      <point x="635" y="923" type="curve" smooth="yes"/>
      <point x="608" y="788" type="line"/>
      <point x="441" y="788" type="line"/>
      <point x="468" y="923" type="line" smooth="yes"/>
      <point x="477" y="969"/>
      <point x="442" y="1005"/>
      <point x="389" y="1005" type="curve" smooth="yes"/>
      <point x="337" y="1005"/>
      <point x="287" y="969"/>
      <point x="278" y="923" type="curve" smooth="yes"/>
      <point x="251" y="788" type="line"/>
      <point x="188" y="788" type="line" smooth="yes"/>
      <point x="139" y="788"/>
      <point x="91" y="749"/>
      <point x="82" y="700" type="curve" smooth="yes"/>
      <point x="72" y="651"/>
      <point x="104" y="612"/>
      <point x="153" y="612" type="curve" smooth="yes"/>
      <point x="216" y="612" type="line"/>
      <point x="171" y="388" type="line"/>
      <point x="108" y="388" type="line" smooth="yes"/>
      <point x="59" y="388"/>
      <point x="11" y="349"/>
      <point x="2" y="300" type="curve" smooth="yes"/>
      <point x="-8" y="251"/>
      <point x="24" y="212"/>
      <point x="73" y="212" type="curve" smooth="yes"/>
      <point x="136" y="212" type="line"/>
      <point x="109" y="77" type="line" smooth="yes"/>
      <point x="100" y="31"/>
      <point x="135" y="-5"/>
      <point x="187" y="-5" type="curve" smooth="yes"/>
      <point x="240" y="-5"/>
      <point x="290" y="31"/>
      <point x="299" y="77" type="curve" smooth="yes"/>
      <point x="326" y="212" type="line"/>
      <point x="493" y="212" type="line"/>
      <point x="466" y="77" type="line" smooth="yes"/>
      <point x="457" y="31"/>
      <point x="492" y="-5"/>
      <point x="544" y="-5" type="curve" smooth="yes"/>
      <point x="597" y="-5"/>
      <point x="647" y="31"/>
      <point x="656" y="77" type="curve" smooth="yes"/>
      <point x="683" y="212" type="line"/>
      <point x="746" y="212" type="line" smooth="yes"/>
      <point x="795" y="212"/>
      <point x="842" y="251"/>
      <point x="852" y="300" type="curve" smooth="yes"/>
      <point x="861" y="349"/>
      <point x="830" y="388"/>
      <point x="781" y="388" type="curve" smooth="yes"/>
      <point x="718" y="388" type="line"/>
    </contour>
  </outline>
</glyph>
<glyph name="dollar" format="1">
  <advance width="800"/>
  <unicode hex="0024"/>
  <outline>
    <contour>
      <point x="394" y="5" type="line"/>
      <point x="549" y="40"/>
      <point x="665" y="165"/>
      <point x="665" y="314" type="curve" smooth="yes"/>
      <point x="665" y="474"/>
      <point x="542" y="559"/>
      <point x="394" y="614" type="curve"/>
      <point x="394" y="818" type="line"/>
      <point x="407" y="814"/>
      <point x="419" y="808"/>
      <point x="430" y="801" type="curve"/>
      <point x="462" y="768"/>
      <point x="517" y="768"/>
      <point x="554" y="802" type="curve" smooth="yes"/>
      <point x="590" y="835"/>
      <point x="594" y="890"/>
      <point x="563" y="925" type="curve"/>
      <point x="514" y="964"/>
      <point x="458" y="989"/>
      <point x="394" y="999" type="curve"/>
      <point x="394" y="1060" type="line" smooth="yes"/>
      <point x="394" y="1092"/>
      <point x="364" y="1117"/>
      <point x="327" y="1117" type="curve" smooth="yes"/>
      <point x="290" y="1117"/>
      <point x="261" y="1092"/>
      <point x="261" y="1060" type="curve" smooth="yes"/>
      <point x="261" y="1000" type="line"/>
      <point x="119" y="976"/>
      <point x="12" y="865"/>
      <point x="12" y="731" type="curve" smooth="yes"/>
      <point x="12" y="592"/>
      <point x="129" y="520"/>
      <point x="261" y="473" type="curve"/>
      <point x="261" y="173" type="line"/>
      <point x="221" y="179"/>
      <point x="185" y="192"/>
      <point x="154" y="212" type="curve"/>
      <point x="122" y="245"/>
      <point x="67" y="246"/>
      <point x="30" y="212" type="curve" smooth="yes"/>
      <point x="-6" y="178"/>
      <point x="-10" y="123"/>
      <point x="21" y="89" type="curve"/>
      <point x="88" y="34"/>
      <point x="168" y="3"/>
      <point x="261" y="-4" type="curve"/>
      <point x="261" y="-60" type="line" smooth="yes"/>
      <point x="261" y="-92"/>
      <point x="290" y="-117"/>
      <point x="327" y="-117" type="curve" smooth="yes"/>
      <point x="364" y="-117"/>
      <point x="394" y="-92"/>
      <point x="394" y="-60" type="curve" smooth="yes"/>
    </contour>
    <contour>
      <point x="261" y="816" type="curve"/>
      <point x="261" y="665" type="line"/>
      <point x="230" y="682"/>
      <point x="206" y="704"/>
      <point x="206" y="731" type="curve" smooth="yes"/>
      <point x="205" y="767"/>
      <point x="228" y="799"/>
    </contour>
    <contour>
      <point x="394" y="193" type="curve"/>
      <point x="394" y="418" type="line"/>
      <point x="436" y="393"/>
      <point x="469" y="359"/>
      <point x="469" y="314" type="curve" smooth="yes"/>
      <point x="469" y="263"/>
      <point x="439" y="219"/>
    </contour>
  </outline>
</glyph>
<glyph name="percent" format="1">
  <advance width="1141"/>
  <unicode hex="0025"/>
  <outline>
    <contour>
      <point x="155" y="780" type="curve" smooth="yes"/>
      <point x="155" y="827"/>
      <point x="194" y="865"/>
      <point x="243" y="865" type="curve" smooth="yes"/>
      <point x="292" y="865"/>
      <point x="332" y="827"/>
      <point x="332" y="780" type="curve" smooth="yes"/>
      <point x="332" y="734"/>
      <point x="292" y="696"/>
      <point x="243" y="696" type="curve" smooth="yes"/>
      <point x="194" y="696"/>
      <point x="155" y="734"/>
    </contour>
    <contour>
      <point x="0" y="780" type="curve" smooth="yes"/>
      <point x="0" y="656"/>
      <point x="109" y="555"/>
      <point x="243" y="555" type="curve" smooth="yes"/>
      <point x="378" y="555"/>
      <point x="486" y="656"/>
      <point x="486" y="780" type="curve" smooth="yes"/>
      <point x="486" y="905"/>
      <point x="378" y="1005"/>
      <point x="243" y="1005" type="curve" smooth="yes"/>
      <point x="109" y="1005"/>
      <point x="0" y="905"/>
    </contour>
    <contour>
      <point x="674" y="220" type="curve" smooth="yes"/>
      <point x="674" y="266"/>
      <point x="714" y="304"/>
      <point x="763" y="304" type="curve" smooth="yes"/>
      <point x="812" y="304"/>
      <point x="851" y="266"/>
      <point x="851" y="220" type="curve" smooth="yes"/>
      <point x="851" y="173"/>
      <point x="812" y="135"/>
      <point x="763" y="135" type="curve" smooth="yes"/>
      <point x="714" y="135"/>
      <point x="674" y="173"/>
    </contour>
    <contour>
      <point x="519" y="220" type="curve" smooth="yes"/>
      <point x="519" y="95"/>
      <point x="628" y="-5"/>
      <point x="763" y="-5" type="curve" smooth="yes"/>
      <point x="897" y="-5"/>
      <point x="1006" y="95"/>
      <point x="1006" y="220" type="curve" smooth="yes"/>
      <point x="1006" y="344"/>
      <point x="897" y="445"/>
      <point x="763" y="445" type="curve" smooth="yes"/>
      <point x="628" y="445"/>
      <point x="519" y="344"/>
    </contour>
    <contour>
      <point x="913" y="905" type="line" smooth="yes"/>
      <point x="936" y="934"/>
      <point x="928" y="978"/>
      <point x="897" y="1002" type="curve" smooth="yes"/>
      <point x="866" y="1027"/>
      <point x="822" y="1024"/>
      <point x="799" y="995" type="curve" smooth="yes"/>
      <point x="93" y="95" type="line" smooth="yes"/>
      <point x="78" y="75"/>
      <point x="75" y="51"/>
      <point x="86" y="27" type="curve" smooth="yes"/>
      <point x="96" y="3"/>
      <point x="117" y="-13"/>
      <point x="143" y="-18" type="curve" smooth="yes"/>
      <point x="169" y="-22"/>
      <point x="192" y="-14"/>
      <point x="207" y="5" type="curve" smooth="yes"/>
    </contour>
  </outline>
</glyph>
<glyph name="ampersand" format="1">
  <advance width="972"/>
  <unicode hex="0026"/>
  <outline>
    <contour>
      <point x="296" y="624" type="curve"/>
      <point x="283" y="640"/>
      <point x="271" y="657"/>
      <point x="259" y="674" type="curve" smooth="yes"/>
      <point x="246" y="691"/>
      <point x="240" y="710"/>
      <point x="240" y="731" type="curve" smooth="yes"/>
      <point x="240" y="786"/>
      <point x="283" y="830"/>
      <point x="336" y="830" type="curve" smooth="yes"/>
      <point x="389" y="830"/>
      <point x="432" y="786"/>
      <point x="432" y="731" type="curve" smooth="yes"/>
      <point x="432" y="658"/>
      <point x="337" y="645"/>
      <point x="296" y="624" type="curve"/>
      <point x="296" y="624"/>
      <point x="296" y="624"/>
    </contour>
    <contour>
      <point x="559" y="360" type="curve"/>
      <point x="511" y="401"/>
      <point x="463" y="443"/>
      <point x="418" y="488" type="curve"/>
      <point x="514" y="537"/>
      <point x="622" y="603"/>
      <point x="622" y="731" type="curve" smooth="yes"/>
      <point x="622" y="883"/>
      <point x="494" y="1005"/>
      <point x="336" y="1005" type="curve" smooth="yes"/>
      <point x="178" y="1005"/>
      <point x="50" y="883"/>
      <point x="50" y="731" type="curve" smooth="yes"/>
      <point x="50" y="671"/>
      <point x="68" y="619"/>
      <point x="105" y="570" type="curve" smooth="yes"/>
      <point x="114" y="558"/>
      <point x="124" y="546"/>
      <point x="133" y="535" type="curve"/>
      <point x="60" y="484"/>
      <point x="0" y="416"/>
      <point x="0" y="314" type="curve" smooth="yes"/>
      <point x="0" y="138"/>
      <point x="151" y="-5"/>
      <point x="336" y="-5" type="curve" smooth="yes"/>
      <point x="432" y="-5"/>
      <point x="520" y="32"/>
      <point x="594" y="101" type="curve"/>
      <point x="626" y="75"/>
      <point x="659" y="47"/>
      <point x="692" y="19" type="curve" smooth="yes"/>
      <point x="727" y="-11"/>
      <point x="782" y="-5"/>
      <point x="814" y="33" type="curve" smooth="yes"/>
      <point x="846" y="70"/>
      <point x="844" y="125"/>
      <point x="808" y="155" type="curve" smooth="yes"/>
      <point x="773" y="186"/>
      <point x="738" y="214"/>
      <point x="703" y="243" type="curve"/>
      <point x="727" y="287"/>
      <point x="749" y="337"/>
      <point x="766" y="391" type="curve"/>
      <point x="784" y="433"/>
      <point x="761" y="483"/>
      <point x="714" y="504" type="curve" smooth="yes"/>
      <point x="667" y="524"/>
      <point x="615" y="506"/>
      <point x="596" y="465" type="curve"/>
      <point x="586" y="427"/>
      <point x="573" y="392"/>
    </contour>
    <contour>
      <point x="245" y="408" type="curve"/>
      <point x="313" y="339"/>
      <point x="383" y="277"/>
      <point x="456" y="215" type="curve"/>
      <point x="419" y="186"/>
      <point x="379" y="170"/>
      <point x="336" y="170" type="curve" smooth="yes"/>
      <point x="255" y="170"/>
      <point x="190" y="235"/>
      <point x="190" y="314" type="curve" smooth="yes"/>
      <point x="190" y="358"/>
      <point x="214" y="387"/>
    </contour>
  </outline>
</glyph>
<glyph name="quotesingle" format="1">
  <advance width="326"/>
  <unicode hex="0027"/>
  <outline>
    <contour>
      <point x="189" y="913" type="line" smooth="yes"/>
      <point x="194" y="945"/>
      <point x="178" y="975"/>
      <point x="146" y="992" type="curve" smooth="yes"/>
      <point x="114" y="1010"/>
      <point x="76" y="1010"/>
      <point x="44" y="992" type="curve" smooth="yes"/>
      <point x="12" y="975"/>
      <point x="-4" y="945"/>
      <point x="1" y="913" type="curve" smooth="yes"/>
      <point x="31" y="716" type="line" smooth="yes"/>
      <point x="35" y="688"/>
      <point x="62" y="668"/>
      <point x="95" y="668" type="curve" smooth="yes"/>
      <point x="128" y="668"/>
      <point x="155" y="688"/>
      <point x="159" y="716" type="curve" smooth="yes"/>
    </contour>
  </outline>
</glyph>
<glyph name="parenleft" format="1">
  <advance width="434"/>
  <unicode hex="0028"/>
  <outline>
    <contour>
      <point x="293" y="967" type="curve" smooth="yes"/>
      <point x="310" y="1010"/>
      <point x="284" y="1059"/>
      <point x="236" y="1077" type="curve" smooth="yes"/>
      <point x="188" y="1095"/>
      <point x="137" y="1075"/>
      <point x="121" y="1033" type="curve" smooth="yes"/>
      <point x="-40" y="607"/>
      <point x="-40" y="193"/>
      <point x="121" y="-233" type="curve" smooth="yes"/>
      <point x="137" y="-275"/>
      <point x="188" y="-295"/>
      <point x="236" y="-277" type="curve" smooth="yes"/>
      <point x="284" y="-259"/>
      <point x="310" y="-210"/>
      <point x="293" y="-167" type="curve" smooth="yes"/>
      <point x="149" y="214"/>
      <point x="149" y="586"/>
    </contour>
  </outline>
</glyph>
<glyph name="parenright" format="1">
  <advance width="434"/>
  <unicode hex="0029"/>
  <outline>
    <contour>
      <point x="5" y="967" type="curve" smooth="yes"/>
      <point x="149" y="586"/>
      <point x="149" y="214"/>
      <point x="5" y="-167" type="curve" smooth="yes"/>
      <point x="-11" y="-210"/>
      <point x="14" y="-259"/>
      <point x="62" y="-277" type="curve" smooth="yes"/>
      <point x="110" y="-295"/>
      <point x="162" y="-275"/>
      <point x="178" y="-233" type="curve" smooth="yes"/>
      <point x="338" y="193"/>
      <point x="338" y="607"/>
      <point x="178" y="1033" type="curve" smooth="yes"/>
      <point x="162" y="1075"/>
      <point x="110" y="1095"/>
      <point x="62" y="1077" type="curve" smooth="yes"/>
      <point x="14" y="1059"/>
      <point x="-11" y="1010"/>
    </contour>
  </outline>
</glyph>
<glyph name="asterisk" format="1">
  <advance width="611"/>
  <unicode hex="002A"/>
  <outline>
    <contour>
      <point x="309" y="975" type="line"/>
      <point x="309" y="1009"/>
      <point x="277" y="1037"/>
      <point x="238" y="1037" type="curve" smooth="yes"/>
      <point x="198" y="1037"/>
      <point x="167" y="1009"/>
      <point x="167" y="975" type="curve"/>
      <point x="183" y="871" type="line"/>
      <point x="98" y="933" type="line"/>
      <point x="67" y="951"/>
      <point x="28" y="939"/>
      <point x="9" y="907" type="curve" smooth="yes"/>
      <point x="-9" y="875"/>
      <point x="1" y="835"/>
      <point x="31" y="818" type="curve"/>
      <point x="128" y="775" type="line"/>
      <point x="31" y="733" type="line"/>
      <point x="1" y="715"/>
      <point x="-9" y="675"/>
      <point x="9" y="643" type="curve" smooth="yes"/>
      <point x="28" y="611"/>
      <point x="67" y="600"/>
      <point x="98" y="618" type="curve"/>
      <point x="183" y="680" type="line"/>
      <point x="167" y="575" type="line"/>
      <point x="167" y="541"/>
      <point x="198" y="514"/>
      <point x="238" y="514" type="curve" smooth="yes"/>
      <point x="277" y="514"/>
      <point x="309" y="541"/>
      <point x="309" y="575" type="curve"/>
      <point x="293" y="680" type="line"/>
      <point x="378" y="618" type="line"/>
      <point x="398" y="606"/>
      <point x="421" y="606"/>
      <point x="442" y="619" type="curve" smooth="yes"/>
      <point x="463" y="631"/>
      <point x="475" y="652"/>
      <point x="476" y="676" type="curve"/>
      <point x="476" y="701"/>
      <point x="465" y="721"/>
      <point x="444" y="733" type="curve"/>
      <point x="348" y="775" type="line"/>
      <point x="444" y="818" type="line"/>
      <point x="475" y="835"/>
      <point x="485" y="875"/>
      <point x="466" y="907" type="curve" smooth="yes"/>
      <point x="448" y="939"/>
      <point x="408" y="951"/>
      <point x="378" y="933" type="curve"/>
      <point x="293" y="871" type="line"/>
    </contour>
  </outline>
</glyph>
<glyph name="plus" format="1">
  <advance width="835"/>
  <unicode hex="002B"/>
  <outline>
    <contour>
      <point x="255" y="422" type="line"/>
      <point x="255" y="249" type="line" smooth="yes"/>
      <point x="255" y="203"/>
      <point x="298" y="167"/>
      <point x="350" y="167" type="curve" smooth="yes"/>
      <point x="402" y="167"/>
      <point x="445" y="203"/>
      <point x="445" y="249" type="curve" smooth="yes"/>
      <point x="445" y="422" type="line"/>
      <point x="611" y="422" type="line" smooth="yes"/>
      <point x="660" y="422"/>
      <point x="700" y="461"/>
      <point x="700" y="510" type="curve" smooth="yes"/>
      <point x="700" y="559"/>
      <point x="660" y="598"/>
      <point x="611" y="598" type="curve" smooth="yes"/>
      <point x="445" y="598" type="line"/>
      <point x="445" y="771" type="line" smooth="yes"/>
      <point x="445" y="817"/>
      <point x="402" y="853"/>
      <point x="350" y="853" type="curve" smooth="yes"/>
      <point x="298" y="853"/>
      <point x="255" y="817"/>
      <point x="255" y="771" type="curve" smooth="yes"/>
      <point x="255" y="598" type="line"/>
      <point x="89" y="598" type="line" smooth="yes"/>
      <point x="40" y="598"/>
      <point x="0" y="559"/>
      <point x="0" y="510" type="curve" smooth="yes"/>
      <point x="0" y="461"/>
      <point x="40" y="422"/>
      <point x="89" y="422" type="curve" smooth="yes"/>
    </contour>
  </outline>
</glyph>
<glyph name="comma" format="1">
  <advance width="344"/>
  <unicode hex="002C"/>
  <outline>
    <contour>
      <point x="209" y="114" type="curve" smooth="yes"/>
      <point x="209" y="164"/>
      <point x="162" y="204"/>
      <point x="105" y="204" type="curve" smooth="yes"/>
      <point x="47" y="204"/>
      <point x="0" y="164"/>
      <point x="0" y="114" type="curve" smooth="yes"/>
      <point x="0" y="85" type="line" smooth="yes"/>
      <point x="0" y="53"/>
      <point x="20" y="24"/>
      <point x="49" y="8" type="curve" smooth="yes"/>
      <point x="59" y="3"/>
      <point x="65" y="-7"/>
      <point x="65" y="-18" type="curve" smooth="yes"/>
      <point x="65" y="-29"/>
      <point x="59" y="-38"/>
      <point x="49" y="-43" type="curve" smooth="yes"/>
      <point x="20" y="-59" type="line" smooth="yes"/>
      <point x="4" y="-67"/>
      <point x="-1" y="-86"/>
      <point x="7" y="-102" type="curve" smooth="yes"/>
      <point x="15" y="-118"/>
      <point x="34" y="-124"/>
      <point x="49" y="-116" type="curve" smooth="yes"/>
      <point x="138" y="-71"/>
      <point x="209" y="7"/>
    </contour>
  </outline>
</glyph>
<glyph name="hyphen" format="1">
  <advance width="585"/>
  <unicode hex="002D"/>
  <outline>
    <contour>
      <point x="361" y="422" type="line" smooth="yes"/>
      <point x="410" y="422"/>
      <point x="450" y="461"/>
      <point x="450" y="510" type="curve" smooth="yes"/>
      <point x="450" y="559"/>
      <point x="410" y="598"/>
      <point x="361" y="598" type="curve" smooth="yes"/>
      <point x="89" y="598" type="line" smooth="yes"/>
      <point x="40" y="598"/>
      <point x="0" y="559"/>
      <point x="0" y="510" type="curve" smooth="yes"/>
      <point x="0" y="461"/>
      <point x="40" y="422"/>
      <point x="89" y="422" type="curve" smooth="yes"/>
    </contour>
  </outline>
</glyph>
<glyph name="period" format="1">
  <advance width="344"/>
  <unicode hex="002E"/>
  <outline>
    <contour>
      <point x="209" y="114" type="line" smooth="yes"/>
      <point x="209" y="164"/>
      <point x="162" y="204"/>
      <point x="105" y="204" type="curve" smooth="yes"/>
      <point x="47" y="204"/>
      <point x="0" y="164"/>
      <point x="0" y="114" type="curve" smooth="yes"/>
      <point x="0" y="85" type="line" smooth="yes"/>
      <point x="0" y="35"/>
      <point x="47" y="-5"/>
      <point x="104" y="-5" type="curve" smooth="yes"/>
      <point x="162" y="-5"/>
      <point x="209" y="35"/>
      <point x="209" y="85" type="curve" smooth="yes"/>
    </contour>
  </outline>
</glyph>
<glyph name="slash" format="1">
  <advance width="655"/>
  <unicode hex="002F"/>
  <outline>
    <contour>
      <point x="516" y="988" type="line" smooth="yes"/>
      <point x="530" y="1031"/>
      <point x="502" y="1079"/>
      <point x="453" y="1095" type="curve" smooth="yes"/>
      <point x="404" y="1111"/>
      <point x="353" y="1089"/>
      <point x="339" y="1045" type="curve" smooth="yes"/>
      <point x="4" y="12" type="line" smooth="yes"/>
      <point x="-10" y="-31"/>
      <point x="18" y="-79"/>
      <point x="66" y="-95" type="curve" smooth="yes"/>
      <point x="115" y="-111"/>
      <point x="166" y="-89"/>
      <point x="180" y="-45" type="curve" smooth="yes"/>
    </contour>
  </outline>
</glyph>
<glyph name="Digit_One" format="1">
  <advance width="515"/>
  <unicode hex="0031"/>
  <outline>
    <contour>
      <point x="380" y="909" type="line" smooth="yes"/>
      <point x="380" y="949"/>
      <point x="355" y="983"/>
      <point x="314" y="998" type="curve" smooth="yes"/>
      <point x="274" y="1013"/>
      <point x="230" y="1005"/>
      <point x="200" y="975" type="curve" smooth="yes"/>
      <point x="25" y="792" type="line" smooth="yes"/>
      <point x="-9" y="756"/>
      <point x="-8" y="699"/>
      <point x="28" y="665" type="curve"/>
      <point x="28" y="665" type="line"/>
      <point x="64" y="631"/>
      <point x="121" y="632"/>
      <point x="155" y="668" type="curve" smooth="yes"/>
      <point x="190" y="705" type="line"/>
      <point x="190" y="83" type="line" smooth="yes"/>
      <point x="190" y="34"/>
      <point x="232" y="-5"/>
      <point x="285" y="-5" type="curve" smooth="yes"/>
      <point x="337" y="-5"/>
      <point x="380" y="34"/>
      <point x="380" y="83" type="curve" smooth="yes"/>
    </contour>
  </outline>
</glyph>
<glyph name="one" format="1">
  <advance width="542"/>
  <unicode hex="0031"/>
  <outline>
    <contour>
      <point x="407" y="915" type="line" smooth="yes"/>
      <point x="407" y="952"/>
      <point x="383" y="983"/>
      <point x="343" y="998" type="curve" smooth="yes"/>
      <point x="304" y="1013"/>
      <point x="261" y="1006"/>
      <point x="230" y="981" type="curve"/>
      <point x="25" y="785" type="line" smooth="yes"/>
      <point x="-9" y="753"/>
      <point x="-8" y="698"/>
      <point x="26" y="662" type="curve" smooth="yes"/>
      <point x="60" y="626"/>
      <point x="115" y="623"/>
      <point x="148" y="655" type="curve" smooth="yes"/>
      <point x="217" y="720" type="line"/>
      <point x="217" y="77" type="line" smooth="yes"/>
      <point x="217" y="31"/>
      <point x="259" y="-5"/>
      <point x="312" y="-5" type="curve" smooth="yes"/>
      <point x="364" y="-5"/>
      <point x="407" y="31"/>
      <point x="407" y="77" type="curve" smooth="yes"/>
    </contour>
  </outline>
</glyph>
<glyph name="2" format="1">
  <advance width="812"/>
  <unicode hex="0032"/>
  <outline>
    <contour>
      <point x="265" y="176" type="line"/>
      <point x="582" y="176" type="line" smooth="yes"/>
      <point x="634" y="176"/>
      <point x="677" y="136"/>
      <point x="677" y="88" type="curve"/>
      <point x="677" y="88" type="line"/>
      <point x="677" y="39"/>
      <point x="634" y="0"/>
      <point x="582" y="0" type="curve" smooth="yes"/>
      <point x="119" y="0" type="line" smooth="yes"/>
      <point x="53" y="0"/>
      <point x="0" y="49"/>
      <point x="0" y="110" type="curve"/>
      <point x="0" y="110" type="line"/>
      <point x="0" y="136"/>
      <point x="10" y="160"/>
      <point x="26" y="179" type="curve" smooth="yes"/>
      <point x="468" y="683" type="line" smooth="yes"/>
      <point x="480" y="697"/>
      <point x="487" y="712"/>
      <point x="487" y="729" type="curve"/>
      <point x="487" y="729" type="line"/>
      <point x="487" y="782"/>
      <point x="420" y="824"/>
      <point x="338" y="824" type="curve"/>
      <point x="338" y="824" type="line"/>
      <point x="273" y="824"/>
      <point x="217" y="811"/>
      <point x="178" y="785" type="curve"/>
      <point x="174" y="783" type="line"/>
      <point x="146" y="744"/>
      <point x="89" y="735"/>
      <point x="49" y="765" type="curve"/>
      <point x="49" y="765" type="line"/>
      <point x="8" y="794"/>
      <point x="-1" y="850"/>
      <point x="28" y="890" type="curve"/>
      <point x="24" y="888" type="line"/>
      <point x="100" y="961"/>
      <point x="210" y="1000"/>
      <point x="338" y="1000" type="curve"/>
      <point x="338" y="1000" type="line"/>
      <point x="525" y="1000"/>
      <point x="677" y="879"/>
      <point x="677" y="729" type="curve"/>
      <point x="677" y="729" type="line"/>
      <point x="677" y="681"/>
      <point x="661" y="636"/>
      <point x="634" y="597" type="curve"/>
    </contour>
  </outline>
</glyph>
<glyph name="two" format="1">
  <advance width="812"/>
  <unicode hex="0032"/>
  <outline>
    <contour>
      <point x="275" y="176" type="line"/>
      <point x="636" y="600" type="line"/>
      <point x="662" y="638"/>
      <point x="677" y="682"/>
      <point x="677" y="729" type="curve" smooth="yes"/>
      <point x="677" y="879"/>
      <point x="525" y="1000"/>
      <point x="338" y="1000" type="curve" smooth="yes"/>
      <point x="205" y="1000"/>
      <point x="89" y="954"/>
      <point x="20" y="876" type="curve"/>
      <point x="-8" y="840"/>
      <point x="1" y="786"/>
      <point x="40" y="755" type="curve" smooth="yes"/>
      <point x="80" y="724"/>
      <point x="135" y="728"/>
      <point x="163" y="764" type="curve" smooth="yes"/>
      <point x="192" y="801"/>
      <point x="259" y="824"/>
      <point x="338" y="824" type="curve" smooth="yes"/>
      <point x="420" y="824"/>
      <point x="487" y="782"/>
      <point x="487" y="729" type="curve" smooth="yes"/>
      <point x="487" y="713"/>
      <point x="480" y="697"/>
      <point x="469" y="684" type="curve" smooth="yes"/>
      <point x="23" y="159" type="line" smooth="yes"/>
      <point x="9" y="142"/>
      <point x="0" y="120"/>
      <point x="0" y="97" type="curve" smooth="yes"/>
      <point x="0" y="43"/>
      <point x="44" y="0"/>
      <point x="97" y="0" type="curve" smooth="yes"/>
      <point x="588" y="0" type="line" smooth="yes"/>
      <point x="637" y="0"/>
      <point x="677" y="39"/>
      <point x="677" y="88" type="curve" smooth="yes"/>
      <point x="677" y="136"/>
      <point x="637" y="176"/>
      <point x="588" y="176" type="curve" smooth="yes"/>
    </contour>
  </outline>
</glyph>
<glyph name="Digit_Three" format="1">
  <advance width="639"/>
  <unicode hex="0033"/>
  <outline>
    <contour>
      <point x="455" y="548" type="curve"/>
      <point x="532" y="580"/>
      <point x="585" y="650"/>
      <point x="585" y="731" type="curve"/>
      <point x="585" y="731" type="line"/>
      <point x="585" y="883"/>
      <point x="447" y="1005"/>
      <point x="278" y="1005" type="curve"/>
      <point x="278" y="1005" type="line"/>
      <point x="193" y="1005"/>
      <point x="121" y="979"/>
      <point x="61" y="925" type="curve"/>
      <point x="62" y="924" type="line"/>
      <point x="28" y="888"/>
      <point x="31" y="831"/>
      <point x="67" y="797" type="curve"/>
      <point x="67" y="797" type="line"/>
      <point x="104" y="763"/>
      <point x="161" y="765"/>
      <point x="194" y="802" type="curve"/>
      <point x="195" y="801" type="line"/>
      <point x="218" y="820"/>
      <point x="246" y="830"/>
      <point x="278" y="830" type="curve"/>
      <point x="278" y="830" type="line"/>
      <point x="338" y="830"/>
      <point x="386" y="786"/>
      <point x="386" y="731" type="curve"/>
      <point x="386" y="731" type="line"/>
      <point x="386" y="677"/>
      <point x="338" y="633"/>
      <point x="278" y="633" type="curve"/>
      <point x="278" y="633" type="line"/>
      <point x="233" y="633"/>
      <point x="197" y="594"/>
      <point x="197" y="545" type="curve"/>
      <point x="197" y="545" type="line"/>
      <point x="197" y="497"/>
      <point x="233" y="458"/>
      <point x="278" y="458" type="curve"/>
      <point x="278" y="458" type="line"/>
      <point x="365" y="458"/>
      <point x="436" y="393"/>
      <point x="436" y="314" type="curve"/>
      <point x="436" y="314" type="line"/>
      <point x="436" y="235"/>
      <point x="365" y="170"/>
      <point x="278" y="170" type="curve"/>
      <point x="278" y="170" type="line"/>
      <point x="231" y="170"/>
      <point x="190" y="184"/>
      <point x="157" y="213" type="curve"/>
      <point x="156" y="212" type="line"/>
      <point x="122" y="248"/>
      <point x="66" y="250"/>
      <point x="29" y="216" type="curve"/>
      <point x="29" y="216" type="line"/>
      <point x="-8" y="182"/>
      <point x="-10" y="126"/>
      <point x="24" y="89" type="curve"/>
      <point x="23" y="88" type="line"/>
      <point x="93" y="26"/>
      <point x="178" y="-5"/>
      <point x="278" y="-5" type="curve"/>
      <point x="278" y="-5" type="line"/>
      <point x="477" y="-5"/>
      <point x="639" y="138"/>
      <point x="639" y="314" type="curve"/>
      <point x="639" y="314" type="line"/>
      <point x="639" y="421"/>
      <point x="562" y="513"/>
    </contour>
  </outline>
</glyph>
<glyph name="three" format="1">
  <advance width="772"/>
  <unicode hex="0033"/>
  <outline>
    <contour>
      <point x="452" y="548" type="curve"/>
      <point x="529" y="580"/>
      <point x="582" y="650"/>
      <point x="582" y="731" type="curve" smooth="yes"/>
      <point x="582" y="883"/>
      <point x="445" y="1005"/>
      <point x="275" y="1005" type="curve" smooth="yes"/>
      <point x="191" y="1005"/>
      <point x="118" y="979"/>
      <point x="59" y="925" type="curve"/>
      <point x="28" y="890"/>
      <point x="32" y="835"/>
      <point x="69" y="802" type="curve" smooth="yes"/>
      <point x="105" y="768"/>
      <point x="160" y="768"/>
      <point x="192" y="801" type="curve"/>
      <point x="216" y="820"/>
      <point x="243" y="830"/>
      <point x="275" y="830" type="curve" smooth="yes"/>
      <point x="338" y="830"/>
      <point x="389" y="786"/>
      <point x="389" y="731" type="curve" smooth="yes"/>
      <point x="389" y="681"/>
      <point x="345" y="639"/>
      <point x="288" y="634" type="curve" smooth="yes"/>
      <point x="200" y="625" type="line" smooth="yes"/>
      <point x="164" y="622"/>
      <point x="137" y="587"/>
      <point x="137" y="545" type="curve" smooth="yes"/>
      <point x="137" y="503"/>
      <point x="164" y="469"/>
      <point x="200" y="466" type="curve" smooth="yes"/>
      <point x="293" y="457" type="line" smooth="yes"/>
      <point x="377" y="449"/>
      <point x="441" y="388"/>
      <point x="441" y="314" type="curve" smooth="yes"/>
      <point x="441" y="235"/>
      <point x="367" y="170"/>
      <point x="275" y="170" type="curve" smooth="yes"/>
      <point x="228" y="170"/>
      <point x="188" y="184"/>
      <point x="154" y="212" type="curve"/>
      <point x="122" y="245"/>
      <point x="67" y="246"/>
      <point x="30" y="212" type="curve" smooth="yes"/>
      <point x="-6" y="178"/>
      <point x="-10" y="123"/>
      <point x="21" y="89" type="curve"/>
      <point x="91" y="26"/>
      <point x="176" y="-5"/>
      <point x="275" y="-5" type="curve" smooth="yes"/>
      <point x="475" y="-5"/>
      <point x="636" y="138"/>
      <point x="636" y="314" type="curve" smooth="yes"/>
      <point x="636" y="421"/>
      <point x="560" y="513"/>
    </contour>
  </outline>
</glyph>
<glyph name="Digit_Four" format="1">
  <advance width="857"/>
  <unicode hex="0034"/>
  <outline>
    <contour>
      <point x="410" y="648" type="line"/>
      <point x="410" y="408" type="line"/>
      <point x="250" y="408" type="line"/>
    </contour>
    <contour>
      <point x="600" y="232" type="line"/>
      <point x="627" y="232" type="line" smooth="yes"/>
      <point x="679" y="232"/>
      <point x="722" y="271"/>
      <point x="722" y="320" type="curve"/>
      <point x="722" y="320" type="line"/>
      <point x="722" y="369"/>
      <point x="679" y="408"/>
      <point x="627" y="408" type="curve" smooth="yes"/>
      <point x="600" y="408" type="line"/>
      <point x="600" y="904" type="line" smooth="yes"/>
      <point x="600" y="960"/>
      <point x="551" y="1005"/>
      <point x="491" y="1005" type="curve"/>
      <point x="491" y="1005" type="line"/>
      <point x="452" y="1005"/>
      <point x="417" y="986"/>
      <point x="398" y="957" type="curve" smooth="yes"/>
      <point x="16" y="386" type="line" smooth="yes"/>
      <point x="6" y="371"/>
      <point x="0" y="353"/>
      <point x="0" y="333" type="curve"/>
      <point x="0" y="333" type="line"/>
      <point x="0" y="277"/>
      <point x="49" y="232"/>
      <point x="109" y="232" type="curve" smooth="yes"/>
      <point x="410" y="232" type="line"/>
      <point x="410" y="83" type="line" smooth="yes"/>
      <point x="410" y="34"/>
      <point x="453" y="-5"/>
      <point x="505" y="-5" type="curve" smooth="yes"/>
      <point x="558" y="-5"/>
      <point x="600" y="34"/>
      <point x="600" y="83" type="curve" smooth="yes"/>
    </contour>
  </outline>
</glyph>
<glyph name="four" format="1">
  <advance width="857"/>
  <unicode hex="0034"/>
  <outline>
    <contour>
      <point x="410" y="651" type="line"/>
      <point x="410" y="408" type="line"/>
      <point x="248" y="408" type="line"/>
    </contour>
    <contour>
      <point x="600" y="232" type="line"/>
      <point x="633" y="232" type="line" smooth="yes"/>
      <point x="682" y="232"/>
      <point x="722" y="271"/>
      <point x="722" y="320" type="curve" smooth="yes"/>
      <point x="722" y="369"/>
      <point x="682" y="408"/>
      <point x="633" y="408" type="curve" smooth="yes"/>
      <point x="600" y="408" type="line"/>
      <point x="600" y="911" type="line" smooth="yes"/>
      <point x="600" y="963"/>
      <point x="551" y="1005"/>
      <point x="491" y="1005" type="curve" smooth="yes"/>
      <point x="451" y="1005"/>
      <point x="415" y="986"/>
      <point x="396" y="958" type="curve" smooth="yes"/>
      <point x="17" y="389" type="line" smooth="yes"/>
      <point x="6" y="373"/>
      <point x="0" y="354"/>
      <point x="0" y="333" type="curve" smooth="yes"/>
      <point x="0" y="277"/>
      <point x="46" y="232"/>
      <point x="102" y="232" type="curve" smooth="yes"/>
      <point x="410" y="232" type="line"/>
      <point x="410" y="77" type="line" smooth="yes"/>
      <point x="410" y="31"/>
      <point x="453" y="-5"/>
      <point x="505" y="-5" type="curve" smooth="yes"/>
      <point x="558" y="-5"/>
      <point x="600" y="31"/>
      <point x="600" y="77" type="curve" smooth="yes"/>
    </contour>
  </outline>
</glyph>
<glyph name="Digit_Five" format="1">
  <advance width="639"/>
  <unicode hex="0035"/>
  <outline>
    <contour>
      <point x="257" y="824" type="line"/>
      <point x="544" y="824" type="line" smooth="yes"/>
      <point x="596" y="824"/>
      <point x="639" y="864"/>
      <point x="639" y="912" type="curve"/>
      <point x="639" y="912" type="line"/>
      <point x="639" y="961"/>
      <point x="596" y="1000"/>
      <point x="544" y="1000" type="curve" smooth="yes"/>
      <point x="178" y="1000" type="line" smooth="yes"/>
      <point x="131" y="1000"/>
      <point x="91" y="968"/>
      <point x="84" y="926" type="curve" smooth="yes"/>
      <point x="13" y="502" type="line" smooth="yes"/>
      <point x="9" y="475"/>
      <point x="17" y="447"/>
      <point x="37" y="426" type="curve"/>
      <point x="37" y="426" type="line"/>
      <point x="71" y="390"/>
      <point x="128" y="388"/>
      <point x="164" y="423" type="curve"/>
      <point x="165" y="422" type="line"/>
      <point x="198" y="446"/>
      <point x="235" y="458"/>
      <point x="278" y="458" type="curve"/>
      <point x="278" y="458" type="line"/>
      <point x="365" y="458"/>
      <point x="436" y="393"/>
      <point x="436" y="314" type="curve"/>
      <point x="436" y="314" type="line"/>
      <point x="436" y="235"/>
      <point x="365" y="170"/>
      <point x="278" y="170" type="curve"/>
      <point x="278" y="170" type="line"/>
      <point x="231" y="170"/>
      <point x="190" y="184"/>
      <point x="157" y="213" type="curve"/>
      <point x="156" y="212" type="line"/>
      <point x="122" y="248"/>
      <point x="66" y="250"/>
      <point x="29" y="216" type="curve"/>
      <point x="29" y="216" type="line"/>
      <point x="-8" y="182"/>
      <point x="-10" y="126"/>
      <point x="24" y="89" type="curve"/>
      <point x="23" y="88" type="line"/>
      <point x="93" y="26"/>
      <point x="178" y="-5"/>
      <point x="278" y="-5" type="curve"/>
      <point x="278" y="-5" type="line"/>
      <point x="477" y="-5"/>
      <point x="639" y="138"/>
      <point x="639" y="314" type="curve"/>
      <point x="639" y="314" type="line"/>
      <point x="639" y="490"/>
      <point x="477" y="633"/>
      <point x="278" y="633" type="curve"/>
      <point x="278" y="633" type="line"/>
      <point x="260" y="633"/>
      <point x="242" y="632"/>
      <point x="225" y="630" type="curve"/>
    </contour>
  </outline>
</glyph>
<glyph name="five" format="1">
  <advance width="772"/>
  <unicode hex="0035"/>
  <outline>
    <contour>
      <point x="255" y="824" type="line"/>
      <point x="548" y="824" type="line" smooth="yes"/>
      <point x="597" y="824"/>
      <point x="636" y="864"/>
      <point x="636" y="912" type="curve" smooth="yes"/>
      <point x="636" y="961"/>
      <point x="597" y="1000"/>
      <point x="548" y="1000" type="curve" smooth="yes"/>
      <point x="169" y="1000" type="line" smooth="yes"/>
      <point x="125" y="1000"/>
      <point x="88" y="968"/>
      <point x="82" y="926" type="curve" smooth="yes"/>
      <point x="14" y="507" type="line" smooth="yes"/>
      <point x="9" y="481"/>
      <point x="18" y="452"/>
      <point x="39" y="430" type="curve" smooth="yes"/>
      <point x="73" y="394"/>
      <point x="128" y="391"/>
      <point x="162" y="422" type="curve"/>
      <point x="195" y="446"/>
      <point x="232" y="458"/>
      <point x="275" y="458" type="curve" smooth="yes"/>
      <point x="363" y="458"/>
      <point x="434" y="393"/>
      <point x="434" y="314" type="curve" smooth="yes"/>
      <point x="434" y="235"/>
      <point x="363" y="170"/>
      <point x="275" y="170" type="curve" smooth="yes"/>
      <point x="228" y="170"/>
      <point x="188" y="184"/>
      <point x="154" y="212" type="curve"/>
      <point x="122" y="245"/>
      <point x="67" y="246"/>
      <point x="30" y="212" type="curve" smooth="yes"/>
      <point x="-6" y="178"/>
      <point x="-10" y="123"/>
      <point x="21" y="89" type="curve"/>
      <point x="91" y="26"/>
      <point x="176" y="-5"/>
      <point x="275" y="-5" type="curve" smooth="yes"/>
      <point x="475" y="-5"/>
      <point x="636" y="138"/>
      <point x="636" y="314" type="curve" smooth="yes"/>
      <point x="636" y="490"/>
      <point x="475" y="633"/>
      <point x="275" y="633" type="curve" smooth="yes"/>
      <point x="258" y="633"/>
      <point x="241" y="632"/>
      <point x="224" y="630" type="curve"/>
    </contour>
  </outline>
</glyph>
<glyph name="6" format="1">
  <advance width="785"/>
  <unicode hex="0036"/>
  <outline>
    <contour>
      <point x="200" y="320" type="curve"/>
      <point x="200" y="402"/>
      <point x="256" y="469"/>
      <point x="325" y="469" type="curve"/>
      <point x="325" y="469" type="line"/>
      <point x="394" y="469"/>
      <point x="450" y="402"/>
      <point x="450" y="320" type="curve"/>
      <point x="450" y="320" type="line"/>
      <point x="450" y="237"/>
      <point x="394" y="170"/>
      <point x="325" y="170" type="curve"/>
      <point x="325" y="170" type="line"/>
      <point x="256" y="170"/>
      <point x="200" y="237"/>
    </contour>
    <contour>
      <point x="305" y="971" type="curve" smooth="yes"/>
      <point x="154" y="776"/>
      <point x="0" y="585"/>
      <point x="0" y="320" type="curve" smooth="yes"/>
      <point x="0" y="140"/>
      <point x="145" y="-5"/>
      <point x="325" y="-5" type="curve"/>
      <point x="325" y="-5" type="line"/>
      <point x="504" y="-5"/>
      <point x="650" y="140"/>
      <point x="650" y="320" type="curve"/>
      <point x="650" y="320" type="line"/>
      <point x="650" y="485"/>
      <point x="516" y="619"/>
      <point x="351" y="619" type="curve"/>
      <point x="351" y="619" type="line"/>
      <point x="323" y="619"/>
      <point x="295" y="615"/>
      <point x="269" y="607" type="curve"/>
      <point x="269" y="607" type="line"/>
      <point x="319" y="696"/>
      <point x="385" y="778"/>
      <point x="448" y="860" type="curve" smooth="yes"/>
      <point x="479" y="899"/>
      <point x="471" y="955"/>
      <point x="432" y="986" type="curve"/>
      <point x="432" y="986" type="line"/>
      <point x="392" y="1017"/>
      <point x="336" y="1010"/>
    </contour>
  </outline>
</glyph>
<glyph name="Digit_Six" format="1">
  <advance width="650"/>
  <unicode hex="0036"/>
  <outline>
    <contour>
      <point x="200" y="320" type="curve"/>
      <point x="200" y="402"/>
      <point x="256" y="469"/>
      <point x="325" y="469" type="curve"/>
      <point x="325" y="469" type="line"/>
      <point x="394" y="469"/>
      <point x="450" y="402"/>
      <point x="450" y="320" type="curve"/>
      <point x="450" y="320" type="line"/>
      <point x="450" y="237"/>
      <point x="394" y="170"/>
      <point x="325" y="170" type="curve"/>
      <point x="325" y="170" type="line"/>
      <point x="256" y="170"/>
      <point x="200" y="237"/>
    </contour>
    <contour>
      <point x="305" y="971" type="curve" smooth="yes"/>
      <point x="154" y="776"/>
      <point x="0" y="585"/>
      <point x="0" y="320" type="curve" smooth="yes"/>
      <point x="0" y="140"/>
      <point x="145" y="-5"/>
      <point x="325" y="-5" type="curve"/>
      <point x="325" y="-5" type="line"/>
      <point x="504" y="-5"/>
      <point x="650" y="140"/>
      <point x="650" y="320" type="curve"/>
      <point x="650" y="320" type="line"/>
      <point x="650" y="486"/>
      <point x="515" y="620"/>
      <point x="349" y="620" type="curve"/>
      <point x="349" y="620" type="line"/>
      <point x="322" y="620"/>
      <point x="296" y="617"/>
      <point x="271" y="610" type="curve"/>
      <point x="271" y="610" type="line"/>
      <point x="320" y="698"/>
      <point x="385" y="778"/>
      <point x="448" y="860" type="curve" smooth="yes"/>
      <point x="479" y="899"/>
      <point x="471" y="955"/>
      <point x="432" y="986" type="curve"/>
      <point x="432" y="986" type="line"/>
      <point x="392" y="1017"/>
      <point x="336" y="1010"/>
    </contour>
  </outline>
</glyph>
<glyph name="six" format="1">
  <advance width="785"/>
  <unicode hex="0036"/>
  <outline>
    <contour>
      <point x="194" y="320" type="curve" smooth="yes"/>
      <point x="194" y="402"/>
      <point x="253" y="469"/>
      <point x="325" y="469" type="curve" smooth="yes"/>
      <point x="397" y="469"/>
      <point x="456" y="402"/>
      <point x="456" y="320" type="curve" smooth="yes"/>
      <point x="456" y="237"/>
      <point x="397" y="170"/>
      <point x="325" y="170" type="curve" smooth="yes"/>
      <point x="253" y="170"/>
      <point x="194" y="237"/>
    </contour>
    <contour>
      <point x="305" y="975" type="curve" smooth="yes"/>
      <point x="153" y="779"/>
      <point x="0" y="586"/>
      <point x="0" y="320" type="curve" smooth="yes"/>
      <point x="0" y="140"/>
      <point x="145" y="-5"/>
      <point x="325" y="-5" type="curve" smooth="yes"/>
      <point x="504" y="-5"/>
      <point x="650" y="140"/>
      <point x="650" y="320" type="curve" smooth="yes"/>
      <point x="650" y="486"/>
      <point x="515" y="620"/>
      <point x="349" y="620" type="curve" smooth="yes"/>
      <point x="322" y="620"/>
      <point x="295" y="616"/>
      <point x="269" y="609" type="curve"/>
      <point x="318" y="699"/>
      <point x="384" y="781"/>
      <point x="448" y="864" type="curve" smooth="yes"/>
      <point x="477" y="900"/>
      <point x="467" y="954"/>
      <point x="428" y="985" type="curve" smooth="yes"/>
      <point x="388" y="1016"/>
      <point x="334" y="1011"/>
    </contour>
  </outline>
</glyph>
<glyph name="Digit_Seven" format="1">
  <advance width="745"/>
  <unicode hex="0037"/>
  <outline>
    <contour>
      <point x="494" y="830" type="line"/>
      <point x="419" y="707" type="line" smooth="yes"/>
      <point x="298" y="510"/>
      <point x="218" y="319"/>
      <point x="218" y="83" type="curve" smooth="yes"/>
      <point x="218" y="34"/>
      <point x="260" y="-5"/>
      <point x="313" y="-5" type="curve" smooth="yes"/>
      <point x="365" y="-5"/>
      <point x="408" y="34"/>
      <point x="408" y="83" type="curve" smooth="yes"/>
      <point x="408" y="282"/>
      <point x="473" y="445"/>
      <point x="575" y="612" type="curve" smooth="yes"/>
      <point x="732" y="868" type="line" smooth="yes"/>
      <point x="750" y="897"/>
      <point x="749" y="930"/>
      <point x="731" y="959" type="curve"/>
      <point x="731" y="959" type="line"/>
      <point x="713" y="989"/>
      <point x="681" y="1005"/>
      <point x="645" y="1005" type="curve" smooth="yes"/>
      <point x="95" y="1005" type="line" smooth="yes"/>
      <point x="43" y="1005"/>
      <point x="0" y="966"/>
      <point x="0" y="917" type="curve"/>
      <point x="0" y="917" type="line"/>
      <point x="0" y="869"/>
      <point x="43" y="830"/>
      <point x="95" y="830" type="curve" smooth="yes"/>
    </contour>
  </outline>
</glyph>
<glyph name="seven" format="1">
  <advance width="835"/>
  <unicode hex="0037"/>
  <outline>
    <contour>
      <point x="466" y="830" type="line"/>
      <point x="369" y="634" type="line" smooth="yes"/>
      <point x="279" y="452"/>
      <point x="209" y="284"/>
      <point x="209" y="77" type="curve" smooth="yes"/>
      <point x="209" y="31"/>
      <point x="252" y="-5"/>
      <point x="304" y="-5" type="curve" smooth="yes"/>
      <point x="357" y="-5"/>
      <point x="399" y="31"/>
      <point x="399" y="77" type="curve" smooth="yes"/>
      <point x="399" y="254"/>
      <point x="457" y="397"/>
      <point x="534" y="552" type="curve" smooth="yes"/>
      <point x="689" y="866" type="line" smooth="yes"/>
      <point x="705" y="897"/>
      <point x="703" y="930"/>
      <point x="685" y="960" type="curve" smooth="yes"/>
      <point x="666" y="989"/>
      <point x="637" y="1005"/>
      <point x="602" y="1005" type="curve" smooth="yes"/>
      <point x="89" y="1005" type="line" smooth="yes"/>
      <point x="40" y="1005"/>
      <point x="0" y="966"/>
      <point x="0" y="917" type="curve" smooth="yes"/>
      <point x="0" y="869"/>
      <point x="40" y="830"/>
      <point x="89" y="830" type="curve" smooth="yes"/>
    </contour>
  </outline>
</glyph>
<glyph name="Digit_Eight" format="1">
  <advance width="857"/>
  <unicode hex="0038"/>
  <outline>
    <contour>
      <point x="361" y="170" type="curve"/>
      <point x="274" y="170"/>
      <point x="203" y="235"/>
      <point x="203" y="314" type="curve"/>
      <point x="203" y="314" type="line"/>
      <point x="203" y="393"/>
      <point x="274" y="458"/>
      <point x="361" y="458" type="curve"/>
      <point x="361" y="458" type="line"/>
      <point x="448" y="458"/>
      <point x="519" y="393"/>
      <point x="519" y="314" type="curve"/>
      <point x="519" y="314" type="line"/>
      <point x="519" y="235"/>
      <point x="448" y="170"/>
    </contour>
    <contour>
      <point x="361" y="633" type="curve"/>
      <point x="301" y="633"/>
      <point x="253" y="677"/>
      <point x="253" y="731" type="curve"/>
      <point x="253" y="731" type="line"/>
      <point x="253" y="786"/>
      <point x="301" y="830"/>
      <point x="361" y="830" type="curve"/>
      <point x="361" y="830" type="line"/>
      <point x="421" y="830"/>
      <point x="469" y="786"/>
      <point x="469" y="731" type="curve"/>
      <point x="469" y="731" type="line"/>
      <point x="469" y="677"/>
      <point x="421" y="633"/>
    </contour>
    <contour>
      <point x="361" y="1005" type="curve"/>
      <point x="192" y="1005"/>
      <point x="54" y="883"/>
      <point x="54" y="731" type="curve"/>
      <point x="54" y="731" type="line"/>
      <point x="54" y="657"/>
      <point x="95" y="592"/>
      <point x="158" y="551" type="curve"/>
      <point x="158" y="551" type="line"/>
      <point x="64" y="505"/>
      <point x="0" y="416"/>
      <point x="0" y="314" type="curve"/>
      <point x="0" y="314" type="line"/>
      <point x="0" y="138"/>
      <point x="162" y="-5"/>
      <point x="361" y="-5" type="curve"/>
      <point x="361" y="-5" type="line"/>
      <point x="560" y="-5"/>
      <point x="722" y="138"/>
      <point x="722" y="314" type="curve"/>
      <point x="722" y="314" type="line"/>
      <point x="722" y="416"/>
      <point x="658" y="505"/>
      <point x="564" y="551" type="curve"/>
      <point x="564" y="551" type="line"/>
      <point x="627" y="592"/>
      <point x="668" y="657"/>
      <point x="668" y="731" type="curve"/>
      <point x="668" y="731" type="line"/>
      <point x="668" y="883"/>
      <point x="530" y="1005"/>
    </contour>
  </outline>
</glyph>
<glyph name="eight" format="1">
  <advance width="808"/>
  <unicode hex="0038"/>
  <outline>
    <contour>
      <point x="336" y="170" type="curve" smooth="yes"/>
      <point x="262" y="170"/>
      <point x="201" y="235"/>
      <point x="201" y="314" type="curve" smooth="yes"/>
      <point x="201" y="393"/>
      <point x="262" y="458"/>
      <point x="336" y="458" type="curve" smooth="yes"/>
      <point x="411" y="458"/>
      <point x="471" y="393"/>
      <point x="471" y="314" type="curve" smooth="yes"/>
      <point x="471" y="235"/>
      <point x="411" y="170"/>
    </contour>
    <contour>
      <point x="336" y="633" type="curve" smooth="yes"/>
      <point x="287" y="633"/>
      <point x="248" y="677"/>
      <point x="248" y="731" type="curve" smooth="yes"/>
      <point x="248" y="786"/>
      <point x="287" y="830"/>
      <point x="336" y="830" type="curve" smooth="yes"/>
      <point x="385" y="830"/>
      <point x="425" y="786"/>
      <point x="425" y="731" type="curve" smooth="yes"/>
      <point x="425" y="677"/>
      <point x="385" y="633"/>
    </contour>
    <contour>
      <point x="336" y="1005" type="curve" smooth="yes"/>
      <point x="178" y="1005"/>
      <point x="50" y="883"/>
      <point x="50" y="731" type="curve" smooth="yes"/>
      <point x="50" y="656"/>
      <point x="91" y="589"/>
      <point x="153" y="550" type="curve"/>
      <point x="62" y="507"/>
      <point x="0" y="417"/>
      <point x="0" y="314" type="curve" smooth="yes"/>
      <point x="0" y="138"/>
      <point x="151" y="-5"/>
      <point x="336" y="-5" type="curve" smooth="yes"/>
      <point x="522" y="-5"/>
      <point x="672" y="138"/>
      <point x="672" y="314" type="curve" smooth="yes"/>
      <point x="672" y="417"/>
      <point x="610" y="507"/>
      <point x="520" y="550" type="curve"/>
      <point x="581" y="589"/>
      <point x="622" y="656"/>
      <point x="622" y="731" type="curve" smooth="yes"/>
      <point x="622" y="883"/>
      <point x="494" y="1005"/>
    </contour>
  </outline>
</glyph>
<glyph name="Digit_Nine" format="1">
  <advance width="785"/>
  <unicode hex="0039"/>
  <outline>
    <contour>
      <point x="450" y="680" type="curve"/>
      <point x="450" y="680" type="line"/>
      <point x="450" y="598"/>
      <point x="394" y="531"/>
      <point x="325" y="531" type="curve"/>
      <point x="325" y="531" type="line"/>
      <point x="256" y="531"/>
      <point x="200" y="598"/>
      <point x="200" y="680" type="curve"/>
      <point x="200" y="680" type="line"/>
      <point x="200" y="763"/>
      <point x="256" y="830"/>
      <point x="325" y="830" type="curve"/>
      <point x="325" y="830" type="line"/>
      <point x="394" y="830"/>
      <point x="450" y="763"/>
    </contour>
    <contour>
      <point x="344" y="29" type="curve" smooth="yes"/>
      <point x="496" y="224"/>
      <point x="650" y="415"/>
      <point x="650" y="680" type="curve" smooth="yes"/>
      <point x="650" y="860"/>
      <point x="504" y="1005"/>
      <point x="325" y="1005" type="curve"/>
      <point x="325" y="1005" type="line"/>
      <point x="145" y="1005"/>
      <point x="0" y="860"/>
      <point x="0" y="680" type="curve"/>
      <point x="0" y="680" type="line"/>
      <point x="0" y="514"/>
      <point x="135" y="380"/>
      <point x="301" y="380" type="curve"/>
      <point x="301" y="380" type="line"/>
      <point x="328" y="380"/>
      <point x="354" y="383"/>
      <point x="379" y="390" type="curve"/>
      <point x="379" y="390" type="line"/>
      <point x="330" y="302"/>
      <point x="265" y="222"/>
      <point x="201" y="140" type="curve" smooth="yes"/>
      <point x="171" y="101"/>
      <point x="179" y="45"/>
      <point x="218" y="14" type="curve"/>
      <point x="218" y="14" type="line"/>
      <point x="258" y="-17"/>
      <point x="314" y="-10"/>
    </contour>
  </outline>
</glyph>
<glyph name="nine" format="1">
  <advance width="785"/>
  <unicode hex="0039"/>
  <outline>
    <contour>
      <point x="450" y="680" type="curve" smooth="yes"/>
      <point x="450" y="598"/>
      <point x="394" y="531"/>
      <point x="325" y="531" type="curve" smooth="yes"/>
      <point x="256" y="531"/>
      <point x="200" y="598"/>
      <point x="200" y="680" type="curve" smooth="yes"/>
      <point x="200" y="763"/>
      <point x="256" y="830"/>
      <point x="325" y="830" type="curve" smooth="yes"/>
      <point x="394" y="830"/>
      <point x="450" y="763"/>
    </contour>
    <contour>
      <point x="344" y="25" type="curve" smooth="yes"/>
      <point x="496" y="221"/>
      <point x="650" y="414"/>
      <point x="650" y="680" type="curve" smooth="yes"/>
      <point x="650" y="860"/>
      <point x="504" y="1005"/>
      <point x="325" y="1005" type="curve" smooth="yes"/>
      <point x="145" y="1005"/>
      <point x="0" y="860"/>
      <point x="0" y="680" type="curve" smooth="yes"/>
      <point x="0" y="514"/>
      <point x="135" y="380"/>
      <point x="301" y="380" type="curve" smooth="yes"/>
      <point x="328" y="380"/>
      <point x="355" y="384"/>
      <point x="381" y="391" type="curve"/>
      <point x="331" y="301"/>
      <point x="266" y="219"/>
      <point x="201" y="136" type="curve" smooth="yes"/>
      <point x="173" y="100"/>
      <point x="182" y="46"/>
      <point x="222" y="15" type="curve" smooth="yes"/>
      <point x="261" y="-16"/>
      <point x="316" y="-11"/>
    </contour>
  </outline>
</glyph>
<glyph name="colon" format="1">
  <advance width="344"/>
  <unicode hex="003A"/>
  <outline>
    <contour>
      <point x="209" y="114" type="line" smooth="yes"/>
      <point x="209" y="164"/>
      <point x="162" y="204"/>
      <point x="105" y="204" type="curve" smooth="yes"/>
      <point x="47" y="204"/>
      <point x="0" y="164"/>
      <point x="0" y="114" type="curve" smooth="yes"/>
      <point x="0" y="85" type="line" smooth="yes"/>
      <point x="0" y="35"/>
      <point x="47" y="-5"/>
      <point x="104" y="-5" type="curve" smooth="yes"/>
      <point x="162" y="-5"/>
      <point x="209" y="35"/>
      <point x="209" y="85" type="curve" smooth="yes"/>
    </contour>
    <contour>
      <point x="209" y="514" type="line" smooth="yes"/>
      <point x="209" y="564"/>
      <point x="162" y="604"/>
      <point x="105" y="604" type="curve" smooth="yes"/>
      <point x="47" y="604"/>
      <point x="0" y="564"/>
      <point x="0" y="514" type="curve" smooth="yes"/>
      <point x="0" y="485" type="line" smooth="yes"/>
      <point x="0" y="435"/>
      <point x="47" y="395"/>
      <point x="104" y="395" type="curve" smooth="yes"/>
      <point x="162" y="395"/>
      <point x="209" y="435"/>
      <point x="209" y="485" type="curve" smooth="yes"/>
    </contour>
  </outline>
</glyph>
<glyph name="semicolon" format="1">
  <advance width="344"/>
  <unicode hex="003B"/>
  <outline>
    <contour>
      <point x="209" y="114" type="curve" smooth="yes"/>
      <point x="209" y="164"/>
      <point x="162" y="204"/>
      <point x="105" y="204" type="curve" smooth="yes"/>
      <point x="47" y="204"/>
      <point x="0" y="164"/>
      <point x="0" y="114" type="curve" smooth="yes"/>
      <point x="0" y="85" type="line" smooth="yes"/>
      <point x="0" y="53"/>
      <point x="20" y="24"/>
      <point x="49" y="8" type="curve" smooth="yes"/>
      <point x="59" y="3"/>
      <point x="65" y="-7"/>
      <point x="65" y="-18" type="curve" smooth="yes"/>
      <point x="65" y="-29"/>
      <point x="59" y="-38"/>
      <point x="49" y="-43" type="curve" smooth="yes"/>
      <point x="20" y="-59" type="line" smooth="yes"/>
      <point x="4" y="-67"/>
      <point x="-1" y="-86"/>
      <point x="7" y="-102" type="curve" smooth="yes"/>
      <point x="15" y="-118"/>
      <point x="34" y="-124"/>
      <point x="49" y="-116" type="curve" smooth="yes"/>
      <point x="138" y="-71"/>
      <point x="209" y="7"/>
    </contour>
    <contour>
      <point x="209" y="514" type="line" smooth="yes"/>
      <point x="209" y="564"/>
      <point x="162" y="604"/>
      <point x="105" y="604" type="curve" smooth="yes"/>
      <point x="47" y="604"/>
      <point x="0" y="564"/>
      <point x="0" y="514" type="curve" smooth="yes"/>
      <point x="0" y="485" type="line" smooth="yes"/>
      <point x="0" y="435"/>
      <point x="47" y="395"/>
      <point x="104" y="395" type="curve" smooth="yes"/>
      <point x="162" y="395"/>
      <point x="209" y="435"/>
      <point x="209" y="485" type="curve" smooth="yes"/>
    </contour>
  </outline>
</glyph>
<glyph name="less" format="1">
  <advance width="735"/>
  <unicode hex="003C"/>
  <outline>
    <contour>
      <point x="473" y="201" type="line" smooth="yes"/>
      <point x="484" y="195"/>
      <point x="498" y="192"/>
      <point x="512" y="192" type="curve" smooth="yes"/>
      <point x="560" y="193"/>
      <point x="599" y="233"/>
      <point x="600" y="281" type="curve" smooth="yes"/>
      <point x="601" y="315"/>
      <point x="582" y="344"/>
      <point x="555" y="359" type="curve" smooth="yes"/>
      <point x="266" y="510" type="line"/>
      <point x="555" y="661" type="line" smooth="yes"/>
      <point x="582" y="676"/>
      <point x="601" y="705"/>
      <point x="600" y="739" type="curve" smooth="yes"/>
      <point x="599" y="787"/>
      <point x="560" y="827"/>
      <point x="512" y="828" type="curve" smooth="yes"/>
      <point x="498" y="828"/>
      <point x="484" y="825"/>
      <point x="473" y="819" type="curve" smooth="yes"/>
      <point x="54" y="599" type="line" smooth="yes"/>
      <point x="22" y="582"/>
      <point x="0" y="549"/>
      <point x="0" y="510" type="curve" smooth="yes"/>
      <point x="0" y="471"/>
      <point x="22" y="438"/>
      <point x="54" y="421" type="curve" smooth="yes"/>
    </contour>
  </outline>
</glyph>
<glyph name="equal" format="1">
  <advance width="785"/>
  <unicode hex="003D"/>
  <outline>
    <contour>
      <point x="561" y="587" type="line" smooth="yes"/>
      <point x="610" y="587"/>
      <point x="650" y="626"/>
      <point x="650" y="675" type="curve" smooth="yes"/>
      <point x="650" y="724"/>
      <point x="610" y="763"/>
      <point x="561" y="763" type="curve" smooth="yes"/>
      <point x="89" y="763" type="line" smooth="yes"/>
      <point x="40" y="763"/>
      <point x="0" y="724"/>
      <point x="0" y="675" type="curve" smooth="yes"/>
      <point x="0" y="626"/>
      <point x="40" y="587"/>
      <point x="89" y="587" type="curve" smooth="yes"/>
    </contour>
    <contour>
      <point x="561" y="257" type="line" smooth="yes"/>
      <point x="610" y="257"/>
      <point x="650" y="296"/>
      <point x="650" y="345" type="curve" smooth="yes"/>
      <point x="650" y="394"/>
      <point x="610" y="433"/>
      <point x="561" y="433" type="curve" smooth="yes"/>
      <point x="89" y="433" type="line" smooth="yes"/>
      <point x="40" y="433"/>
      <point x="0" y="394"/>
      <point x="0" y="345" type="curve" smooth="yes"/>
      <point x="0" y="296"/>
      <point x="40" y="257"/>
      <point x="89" y="257" type="curve" smooth="yes"/>
    </contour>
  </outline>
</glyph>
<glyph name="greater" format="1">
  <advance width="735"/>
  <unicode hex="003E"/>
  <outline>
    <contour>
      <point x="127" y="201" type="curve" smooth="yes"/>
      <point x="546" y="421" type="line" smooth="yes"/>
      <point x="578" y="438"/>
      <point x="600" y="471"/>
      <point x="600" y="510" type="curve" smooth="yes"/>
      <point x="600" y="549"/>
      <point x="578" y="582"/>
      <point x="546" y="599" type="curve" smooth="yes"/>
      <point x="127" y="819" type="line" smooth="yes"/>
      <point x="116" y="825"/>
      <point x="102" y="828"/>
      <point x="88" y="828" type="curve" smooth="yes"/>
      <point x="40" y="827"/>
      <point x="1" y="787"/>
      <point x="0" y="739" type="curve" smooth="yes"/>
      <point x="-1" y="705"/>
      <point x="18" y="676"/>
      <point x="45" y="661" type="curve" smooth="yes"/>
      <point x="334" y="510" type="line"/>
      <point x="45" y="359" type="line" smooth="yes"/>
      <point x="18" y="344"/>
      <point x="-1" y="315"/>
      <point x="0" y="281" type="curve" smooth="yes"/>
      <point x="1" y="233"/>
      <point x="40" y="193"/>
      <point x="88" y="192" type="curve" smooth="yes"/>
      <point x="102" y="192"/>
      <point x="116" y="195"/>
    </contour>
  </outline>
</glyph>
<glyph name="question" format="1">
  <advance width="805"/>
  <unicode hex="003F"/>
  <outline>
    <contour>
      <point x="432" y="114" type="line" smooth="yes"/>
      <point x="432" y="164"/>
      <point x="385" y="204"/>
      <point x="327" y="204" type="curve" smooth="yes"/>
      <point x="270" y="204"/>
      <point x="223" y="164"/>
      <point x="223" y="114" type="curve" smooth="yes"/>
      <point x="223" y="85" type="line" smooth="yes"/>
      <point x="223" y="35"/>
      <point x="270" y="-5"/>
      <point x="327" y="-5" type="curve" smooth="yes"/>
      <point x="385" y="-5"/>
      <point x="432" y="35"/>
      <point x="432" y="85" type="curve" smooth="yes"/>
    </contour>
    <contour>
      <point x="3" y="786" type="curve"/>
      <point x="-5" y="757"/>
      <point x="4" y="728"/>
      <point x="28" y="705" type="curve" smooth="yes"/>
      <point x="52" y="682"/>
      <point x="84" y="672"/>
      <point x="117" y="678" type="curve" smooth="yes"/>
      <point x="149" y="684"/>
      <point x="173" y="704"/>
      <point x="182" y="733" type="curve" smooth="yes"/>
      <point x="206" y="799"/>
      <point x="277" y="839"/>
      <point x="351" y="828" type="curve" smooth="yes"/>
      <point x="426" y="817"/>
      <point x="479" y="759"/>
      <point x="479" y="689" type="curve" smooth="yes"/>
      <point x="479" y="643"/>
      <point x="415" y="633"/>
      <point x="393" y="613" type="curve" smooth="yes"/>
      <point x="329" y="558"/>
      <point x="232" y="505"/>
      <point x="232" y="402" type="curve" smooth="yes"/>
      <point x="232" y="357"/>
      <point x="275" y="320"/>
      <point x="327" y="320" type="curve" smooth="yes"/>
      <point x="380" y="320"/>
      <point x="422" y="357"/>
      <point x="422" y="402" type="curve" smooth="yes"/>
      <point x="422" y="448"/>
      <point x="487" y="458"/>
      <point x="509" y="478" type="curve" smooth="yes"/>
      <point x="573" y="533"/>
      <point x="669" y="585"/>
      <point x="669" y="689" type="curve" smooth="yes"/>
      <point x="669" y="846"/>
      <point x="549" y="977"/>
      <point x="381" y="1001" type="curve" smooth="yes"/>
      <point x="213" y="1026"/>
      <point x="55" y="936"/>
    </contour>
  </outline>
</glyph>
<glyph name="A" format="1">
  <advance width="1038"/>
  <unicode hex="0041"/>
  <outline>
    <contour>
      <point x="326" y="408" type="line"/>
      <point x="451" y="722" type="line"/>
      <point x="577" y="408" type="line"/>
    </contour>
    <contour>
      <point x="721" y="47" type="line"/>
      <point x="742" y="3"/>
      <point x="798" y="-17"/>
      <point x="846" y="2" type="curve" smooth="yes"/>
      <point x="894" y="22"/>
      <point x="916" y="74"/>
      <point x="894" y="118" type="curve"/>
      <point x="569" y="935" type="line"/>
      <point x="547" y="979"/>
      <point x="502" y="1006"/>
      <point x="449" y="1005" type="curve" smooth="yes"/>
      <point x="396" y="1004"/>
      <point x="352" y="976"/>
      <point x="332" y="931" type="curve" smooth="yes"/>
      <point x="7" y="115" type="line" smooth="yes"/>
      <point x="-13" y="70"/>
      <point x="11" y="19"/>
      <point x="60" y="1" type="curve" smooth="yes"/>
      <point x="109" y="-17"/>
      <point x="164" y="5"/>
      <point x="183" y="50" type="curve" smooth="yes"/>
      <point x="256" y="232" type="line"/>
      <point x="647" y="232" type="line"/>
    </contour>
  </outline>
</glyph>
<glyph name="B" format="1">
  <advance width="830"/>
  <unicode hex="0042"/>
  <outline>
    <contour>
      <point x="190" y="442" type="line"/>
      <point x="361" y="442" type="line" smooth="yes"/>
      <point x="438" y="442"/>
      <point x="501" y="382"/>
      <point x="501" y="309" type="curve" smooth="yes"/>
      <point x="501" y="235"/>
      <point x="438" y="176"/>
      <point x="361" y="176" type="curve" smooth="yes"/>
      <point x="190" y="176" type="line"/>
    </contour>
    <contour>
      <point x="190" y="824" type="line"/>
      <point x="333" y="824" type="line" smooth="yes"/>
      <point x="393" y="824"/>
      <point x="442" y="778"/>
      <point x="442" y="721" type="curve" smooth="yes"/>
      <point x="442" y="664"/>
      <point x="393" y="618"/>
      <point x="333" y="618" type="curve" smooth="yes"/>
      <point x="190" y="618" type="line"/>
    </contour>
    <contour>
      <point x="361" y="0" type="line" smooth="yes"/>
      <point x="545" y="0"/>
      <point x="695" y="138"/>
      <point x="695" y="309" type="curve" smooth="yes"/>
      <point x="695" y="416"/>
      <point x="620" y="507"/>
      <point x="515" y="538" type="curve"/>
      <point x="586" y="573"/>
      <point x="635" y="642"/>
      <point x="635" y="721" type="curve" smooth="yes"/>
      <point x="635" y="875"/>
      <point x="500" y="1000"/>
      <point x="333" y="1000" type="curve" smooth="yes"/>
      <point x="109" y="1000" type="line" smooth="yes"/>
      <point x="49" y="1000"/>
      <point x="0" y="958"/>
      <point x="0" y="906" type="curve" smooth="yes"/>
      <point x="0" y="94" type="line" smooth="yes"/>
      <point x="0" y="42"/>
      <point x="49" y="0"/>
      <point x="109" y="0" type="curve" smooth="yes"/>
    </contour>
  </outline>
</glyph>
<glyph name="Latin_Capital_Letter_B" format="1">
  <advance width="857"/>
  <unicode hex="0042"/>
  <outline>
    <contour>
      <point x="190" y="442" type="line"/>
      <point x="388" y="442" type="line" smooth="yes"/>
      <point x="462" y="442"/>
      <point x="521" y="382"/>
      <point x="521" y="309" type="curve"/>
      <point x="521" y="309" type="line"/>
      <point x="521" y="235"/>
      <point x="462" y="176"/>
      <point x="388" y="176" type="curve" smooth="yes"/>
      <point x="190" y="176" type="line"/>
    </contour>
    <contour>
      <point x="190" y="824" type="line"/>
      <point x="340" y="824" type="line" smooth="yes"/>
      <point x="397" y="824"/>
      <point x="444" y="778"/>
      <point x="444" y="721" type="curve"/>
      <point x="444" y="721" type="line"/>
      <point x="444" y="664"/>
      <point x="397" y="618"/>
      <point x="340" y="618" type="curve" smooth="yes"/>
      <point x="190" y="618" type="line"/>
    </contour>
    <contour>
      <point x="388" y="0" type="line" smooth="yes"/>
      <point x="572" y="0"/>
      <point x="722" y="138"/>
      <point x="722" y="309" type="curve"/>
      <point x="722" y="309" type="line"/>
      <point x="722" y="420"/>
      <point x="640" y="514"/>
      <point x="530" y="542" type="curve"/>
      <point x="530" y="542" type="line"/>
      <point x="597" y="577"/>
      <point x="642" y="644"/>
      <point x="642" y="721" type="curve"/>
      <point x="642" y="721" type="line"/>
      <point x="642" y="875"/>
      <point x="507" y="1000"/>
      <point x="340" y="1000" type="curve" smooth="yes"/>
      <point x="109" y="1000" type="line" smooth="yes"/>
      <point x="49" y="1000"/>
      <point x="0" y="955"/>
      <point x="0" y="899" type="curve" smooth="yes"/>
      <point x="0" y="101" type="line" smooth="yes"/>
      <point x="0" y="45"/>
      <point x="49" y="0"/>
      <point x="109" y="0" type="curve" smooth="yes"/>
    </contour>
  </outline>
</glyph>
<glyph name="Latin_Capital_Letter_C" format="1">
  <advance width="916"/>
  <unicode hex="0043"/>
  <outline>
    <contour>
      <point x="455" y="0" type="line" smooth="yes"/>
      <point x="573" y="0"/>
      <point x="679" y="53"/>
      <point x="755" y="139" type="curve" smooth="yes"/>
      <point x="777" y="163"/>
      <point x="784" y="195"/>
      <point x="775" y="227" type="curve" smooth="yes"/>
      <point x="765" y="259"/>
      <point x="742" y="281"/>
      <point x="709" y="289" type="curve" smooth="yes"/>
      <point x="677" y="297"/>
      <point x="646" y="287"/>
      <point x="622" y="264" type="curve"/>
      <point x="579" y="211"/>
      <point x="520" y="176"/>
      <point x="455" y="176" type="curve" smooth="yes"/>
      <point x="426" y="176" type="line" smooth="yes"/>
      <point x="297" y="176"/>
      <point x="209" y="308"/>
      <point x="209" y="472" type="curve" smooth="yes"/>
      <point x="209" y="528" type="line" smooth="yes"/>
      <point x="209" y="683"/>
      <point x="306" y="824"/>
      <point x="426" y="824" type="curve" smooth="yes"/>
      <point x="455" y="824" type="line" smooth="yes"/>
      <point x="525" y="824"/>
      <point x="584" y="791"/>
      <point x="625" y="737" type="curve"/>
      <point x="659" y="702"/>
      <point x="716" y="700"/>
      <point x="752" y="734" type="curve" smooth="yes"/>
      <point x="788" y="769"/>
      <point x="790" y="826"/>
      <point x="756" y="862" type="curve" smooth="yes"/>
      <point x="679" y="947"/>
      <point x="573" y="1000"/>
      <point x="455" y="1000" type="curve" smooth="yes"/>
      <point x="425" y="1000" type="line" smooth="yes"/>
      <point x="190" y="1000"/>
      <point x="0" y="788"/>
      <point x="0" y="528" type="curve" smooth="yes"/>
      <point x="0" y="472" type="line" smooth="yes"/>
      <point x="0" y="212"/>
      <point x="190" y="0"/>
      <point x="425" y="0" type="curve" smooth="yes"/>
    </contour>
  </outline>
</glyph>
<glyph name="Latin_Capital_Letter_D" format="1">
  <advance width="803"/>
  <unicode hex="0044"/>
  <outline>
    <contour>
      <point x="379" y="0" type="line" smooth="yes"/>
      <point x="613" y="0"/>
      <point x="803" y="212"/>
      <point x="803" y="472" type="curve" smooth="yes"/>
      <point x="803" y="528" type="line" smooth="yes"/>
      <point x="803" y="788"/>
      <point x="613" y="1000"/>
      <point x="379" y="1000" type="curve" smooth="yes"/>
      <point x="109" y="1000" type="line" smooth="yes"/>
      <point x="49" y="1000"/>
      <point x="0" y="955"/>
      <point x="0" y="899" type="curve" smooth="yes"/>
      <point x="0" y="101" type="line" smooth="yes"/>
      <point x="0" y="45"/>
      <point x="49" y="0"/>
      <point x="109" y="0" type="curve" smooth="yes"/>
    </contour>
    <contour>
      <point x="190" y="824" type="line"/>
      <point x="396" y="824" type="line" smooth="yes"/>
      <point x="525" y="824"/>
      <point x="613" y="692"/>
      <point x="613" y="528" type="curve" smooth="yes"/>
      <point x="613" y="472" type="line" smooth="yes"/>
      <point x="613" y="317"/>
      <point x="516" y="176"/>
      <point x="396" y="176" type="curve" smooth="yes"/>
      <point x="190" y="176" type="line"/>
    </contour>
  </outline>
</glyph>
<glyph name="E" format="1">
  <advance width="792"/>
  <unicode hex="0045"/>
  <outline>
    <contour>
      <point x="562" y="7" type="line" smooth="yes"/>
      <point x="614" y="7"/>
      <point x="657" y="46"/>
      <point x="657" y="95" type="curve"/>
      <point x="657" y="95" type="line"/>
      <point x="657" y="144"/>
      <point x="614" y="183"/>
      <point x="562" y="183" type="curve" smooth="yes"/>
      <point x="190" y="183" type="line"/>
      <point x="190" y="422" type="line"/>
      <point x="422" y="422" type="line" smooth="yes"/>
      <point x="475" y="422"/>
      <point x="517" y="461"/>
      <point x="517" y="510" type="curve"/>
      <point x="517" y="510" type="line"/>
      <point x="517" y="559"/>
      <point x="475" y="598"/>
      <point x="422" y="598" type="curve" smooth="yes"/>
      <point x="190" y="598" type="line"/>
      <point x="190" y="817" type="line"/>
      <point x="562" y="817" type="line" smooth="yes"/>
      <point x="614" y="817"/>
      <point x="657" y="856"/>
      <point x="657" y="905" type="curve"/>
      <point x="657" y="905" type="line"/>
      <point x="657" y="954"/>
      <point x="614" y="993"/>
      <point x="562" y="993" type="curve" smooth="yes"/>
      <point x="109" y="1000" type="line" smooth="yes"/>
      <point x="49" y="1000"/>
      <point x="0" y="955"/>
      <point x="0" y="899" type="curve" smooth="yes"/>
      <point x="0" y="101" type="line" smooth="yes"/>
      <point x="0" y="45"/>
      <point x="49" y="0"/>
      <point x="109" y="0" type="curve" smooth="yes"/>
    </contour>
  </outline>
</glyph>
<glyph name="Latin_Capital_Letter_E" format="1">
  <advance width="650"/>
  <unicode hex="0045"/>
  <outline>
    <contour>
      <point x="555" y="0" type="line" smooth="yes"/>
      <point x="607" y="0"/>
      <point x="650" y="39"/>
      <point x="650" y="88" type="curve"/>
      <point x="650" y="88" type="line"/>
      <point x="650" y="136"/>
      <point x="607" y="176"/>
      <point x="555" y="176" type="curve" smooth="yes"/>
      <point x="190" y="176" type="line"/>
      <point x="190" y="422" type="line"/>
      <point x="422" y="422" type="line" smooth="yes"/>
      <point x="475" y="422"/>
      <point x="517" y="461"/>
      <point x="517" y="510" type="curve"/>
      <point x="517" y="510" type="line"/>
      <point x="517" y="559"/>
      <point x="475" y="598"/>
      <point x="422" y="598" type="curve" smooth="yes"/>
      <point x="190" y="598" type="line"/>
      <point x="190" y="824" type="line"/>
      <point x="555" y="824" type="line" smooth="yes"/>
      <point x="607" y="824"/>
      <point x="650" y="864"/>
      <point x="650" y="912" type="curve"/>
      <point x="650" y="912" type="line"/>
      <point x="650" y="961"/>
      <point x="607" y="1000"/>
      <point x="555" y="1000" type="curve" smooth="yes"/>
      <point x="109" y="1000" type="line" smooth="yes"/>
      <point x="49" y="1000"/>
      <point x="0" y="955"/>
      <point x="0" y="899" type="curve" smooth="yes"/>
      <point x="0" y="101" type="line" smooth="yes"/>
      <point x="0" y="45"/>
      <point x="49" y="0"/>
      <point x="109" y="0" type="curve" smooth="yes"/>
    </contour>
  </outline>
</glyph>
<glyph name="F" format="1">
  <advance width="763"/>
  <unicode hex="0046"/>
  <outline>
    <contour>
      <point x="190" y="77" type="curve" smooth="yes"/>
      <point x="190" y="422" type="line"/>
      <point x="417" y="422" type="line" smooth="yes"/>
      <point x="466" y="422"/>
      <point x="506" y="461"/>
      <point x="506" y="510" type="curve" smooth="yes"/>
      <point x="506" y="559"/>
      <point x="466" y="598"/>
      <point x="417" y="598" type="curve" smooth="yes"/>
      <point x="190" y="598" type="line"/>
      <point x="190" y="824" type="line"/>
      <point x="539" y="824" type="line" smooth="yes"/>
      <point x="588" y="824"/>
      <point x="627" y="864"/>
      <point x="627" y="912" type="curve" smooth="yes"/>
      <point x="627" y="961"/>
      <point x="588" y="1000"/>
      <point x="539" y="1000" type="curve" smooth="yes"/>
      <point x="109" y="1000" type="line" smooth="yes"/>
      <point x="49" y="1000"/>
      <point x="0" y="958"/>
      <point x="0" y="906" type="curve" smooth="yes"/>
      <point x="0" y="77" type="line" smooth="yes"/>
      <point x="0" y="31"/>
      <point x="43" y="-5"/>
      <point x="95" y="-5" type="curve" smooth="yes"/>
      <point x="147" y="-5"/>
      <point x="190" y="31"/>
    </contour>
  </outline>
</glyph>
<glyph name="Latin_Capital_Letter_F" format="1">
  <advance width="650"/>
  <unicode hex="0046"/>
  <outline>
    <contour>
      <point x="190" y="83" type="curve" smooth="yes"/>
      <point x="190" y="422" type="line"/>
      <point x="422" y="422" type="line" smooth="yes"/>
      <point x="475" y="422"/>
      <point x="517" y="461"/>
      <point x="517" y="510" type="curve"/>
      <point x="517" y="510" type="line"/>
      <point x="517" y="559"/>
      <point x="475" y="598"/>
      <point x="422" y="598" type="curve" smooth="yes"/>
      <point x="190" y="598" type="line"/>
      <point x="190" y="824" type="line"/>
      <point x="555" y="824" type="line" smooth="yes"/>
      <point x="607" y="824"/>
      <point x="650" y="864"/>
      <point x="650" y="912" type="curve"/>
      <point x="650" y="912" type="line"/>
      <point x="650" y="961"/>
      <point x="607" y="1000"/>
      <point x="555" y="1000" type="curve" smooth="yes"/>
      <point x="109" y="1000" type="line" smooth="yes"/>
      <point x="49" y="1000"/>
      <point x="0" y="955"/>
      <point x="0" y="899" type="curve" smooth="yes"/>
      <point x="0" y="83" type="line" smooth="yes"/>
      <point x="0" y="34"/>
      <point x="43" y="-5"/>
      <point x="95" y="-5" type="curve" smooth="yes"/>
      <point x="147" y="-5"/>
      <point x="190" y="34"/>
    </contour>
  </outline>
</glyph>
<glyph name="G" format="1">
  <advance width="994"/>
  <unicode hex="0047"/>
  <outline>
    <contour>
      <point x="536" y="558" type="line" smooth="yes"/>
      <point x="487" y="558"/>
      <point x="447" y="519"/>
      <point x="447" y="470" type="curve" smooth="yes"/>
      <point x="447" y="421"/>
      <point x="487" y="382"/>
      <point x="536" y="382" type="curve" smooth="yes"/>
      <point x="655" y="382" type="line"/>
      <point x="627" y="267"/>
      <point x="549" y="176"/>
      <point x="455" y="176" type="curve" smooth="yes"/>
      <point x="426" y="176" type="line" smooth="yes"/>
      <point x="297" y="176"/>
      <point x="209" y="308"/>
      <point x="209" y="472" type="curve" smooth="yes"/>
      <point x="209" y="528" type="line" smooth="yes"/>
      <point x="209" y="683"/>
      <point x="306" y="824"/>
      <point x="426" y="824" type="curve" smooth="yes"/>
      <point x="455" y="824" type="line" smooth="yes"/>
      <point x="525" y="824"/>
      <point x="584" y="791"/>
      <point x="625" y="737" type="curve"/>
      <point x="657" y="704"/>
      <point x="712" y="705"/>
      <point x="748" y="739" type="curve" smooth="yes"/>
      <point x="784" y="773"/>
      <point x="787" y="828"/>
      <point x="756" y="862" type="curve" smooth="yes"/>
      <point x="679" y="947"/>
      <point x="573" y="1000"/>
      <point x="455" y="1000" type="curve" smooth="yes"/>
      <point x="425" y="1000" type="line" smooth="yes"/>
      <point x="190" y="1000"/>
      <point x="0" y="788"/>
      <point x="0" y="528" type="curve" smooth="yes"/>
      <point x="0" y="472" type="line" smooth="yes"/>
      <point x="0" y="212"/>
      <point x="190" y="0"/>
      <point x="425" y="0" type="curve" smooth="yes"/>
      <point x="455" y="0" type="line" smooth="yes"/>
      <point x="676" y="0"/>
      <point x="855" y="210"/>
      <point x="858" y="470" type="curve"/>
      <point x="862" y="519"/>
      <point x="822" y="558"/>
      <point x="773" y="558" type="curve" smooth="yes"/>
    </contour>
  </outline>
</glyph>
<glyph name="Latin_Capital_Letter_G" format="1">
  <advance width="884"/>
  <unicode hex="0047"/>
  <outline>
    <contour>
      <point x="554" y="558" type="line" smooth="yes"/>
      <point x="502" y="558"/>
      <point x="459" y="519"/>
      <point x="459" y="470" type="curve" smooth="yes"/>
      <point x="459" y="421"/>
      <point x="502" y="382"/>
      <point x="554" y="382" type="curve" smooth="yes"/>
      <point x="679" y="382" type="line"/>
      <point x="648" y="266"/>
      <point x="560" y="176"/>
      <point x="455" y="176" type="curve" smooth="yes"/>
      <point x="426" y="176" type="line" smooth="yes"/>
      <point x="297" y="176"/>
      <point x="209" y="308"/>
      <point x="209" y="472" type="curve" smooth="yes"/>
      <point x="209" y="528" type="line" smooth="yes"/>
      <point x="209" y="683"/>
      <point x="306" y="824"/>
      <point x="426" y="824" type="curve" smooth="yes"/>
      <point x="455" y="824" type="line" smooth="yes"/>
      <point x="525" y="824"/>
      <point x="584" y="791"/>
      <point x="625" y="737" type="curve"/>
      <point x="659" y="702"/>
      <point x="716" y="700"/>
      <point x="752" y="734" type="curve" smooth="yes"/>
      <point x="788" y="769"/>
      <point x="790" y="826"/>
      <point x="756" y="862" type="curve" smooth="yes"/>
      <point x="679" y="947"/>
      <point x="573" y="1000"/>
      <point x="455" y="1000" type="curve" smooth="yes"/>
      <point x="425" y="1000" type="line" smooth="yes"/>
      <point x="190" y="1000"/>
      <point x="0" y="788"/>
      <point x="0" y="528" type="curve" smooth="yes"/>
      <point x="0" y="472" type="line" smooth="yes"/>
      <point x="0" y="212"/>
      <point x="190" y="0"/>
      <point x="425" y="0" type="curve" smooth="yes"/>
      <point x="455" y="0" type="line" smooth="yes"/>
      <point x="690" y="0"/>
      <point x="880" y="210"/>
      <point x="883" y="470" type="curve"/>
      <point x="887" y="519"/>
      <point x="845" y="558"/>
      <point x="792" y="558" type="curve" smooth="yes"/>
    </contour>
  </outline>
</glyph>
<glyph name="H" format="1">
  <advance width="882"/>
  <unicode hex="0048"/>
  <outline>
    <contour>
      <point x="190" y="422" type="line"/>
      <point x="557" y="422" type="line"/>
      <point x="557" y="77" type="line" smooth="yes"/>
      <point x="557" y="31"/>
      <point x="599" y="-5"/>
      <point x="652" y="-5" type="curve" smooth="yes"/>
      <point x="704" y="-5"/>
      <point x="747" y="31"/>
      <point x="747" y="77" type="curve" smooth="yes"/>
      <point x="747" y="923" type="line" smooth="yes"/>
      <point x="747" y="969"/>
      <point x="704" y="1005"/>
      <point x="652" y="1005" type="curve" smooth="yes"/>
      <point x="599" y="1005"/>
      <point x="557" y="969"/>
      <point x="557" y="923" type="curve" smooth="yes"/>
      <point x="557" y="598" type="line"/>
      <point x="190" y="598" type="line"/>
      <point x="190" y="923" type="line" smooth="yes"/>
      <point x="190" y="969"/>
      <point x="147" y="1005"/>
      <point x="95" y="1005" type="curve" smooth="yes"/>
      <point x="43" y="1005"/>
      <point x="0" y="969"/>
      <point x="0" y="923" type="curve" smooth="yes"/>
      <point x="0" y="77" type="line" smooth="yes"/>
      <point x="0" y="31"/>
      <point x="43" y="-5"/>
      <point x="95" y="-5" type="curve" smooth="yes"/>
      <point x="147" y="-5"/>
      <point x="190" y="31"/>
      <point x="190" y="77" type="curve" smooth="yes"/>
    </contour>
  </outline>
</glyph>
<glyph name="Latin_Capital_Letter_H" format="1">
  <advance width="812"/>
  <unicode hex="0048"/>
  <outline>
    <contour>
      <point x="190" y="422" type="line"/>
      <point x="622" y="422" type="line"/>
      <point x="622" y="83" type="line" smooth="yes"/>
      <point x="622" y="34"/>
      <point x="665" y="-5"/>
      <point x="717" y="-5" type="curve" smooth="yes"/>
      <point x="770" y="-5"/>
      <point x="812" y="34"/>
      <point x="812" y="83" type="curve" smooth="yes"/>
      <point x="812" y="917" type="line" smooth="yes"/>
      <point x="812" y="966"/>
      <point x="770" y="1005"/>
      <point x="717" y="1005" type="curve" smooth="yes"/>
      <point x="665" y="1005"/>
      <point x="622" y="966"/>
      <point x="622" y="917" type="curve" smooth="yes"/>
      <point x="622" y="598" type="line"/>
      <point x="190" y="598" type="line"/>
      <point x="190" y="917" type="line" smooth="yes"/>
      <point x="190" y="966"/>
      <point x="147" y="1005"/>
      <point x="95" y="1005" type="curve" smooth="yes"/>
      <point x="43" y="1005"/>
      <point x="0" y="966"/>
      <point x="0" y="917" type="curve" smooth="yes"/>
      <point x="0" y="83" type="line" smooth="yes"/>
      <point x="0" y="34"/>
      <point x="43" y="-5"/>
      <point x="95" y="-5" type="curve" smooth="yes"/>
      <point x="147" y="-5"/>
      <point x="190" y="34"/>
      <point x="190" y="83" type="curve" smooth="yes"/>
    </contour>
  </outline>
</glyph>
<glyph name="I" format="1">
  <advance width="325"/>
  <unicode hex="0049"/>
  <outline>
    <contour>
      <point x="190" y="917" type="line" smooth="yes"/>
      <point x="190" y="966"/>
      <point x="147" y="1005"/>
      <point x="95" y="1005" type="curve" smooth="yes"/>
      <point x="43" y="1005"/>
      <point x="0" y="966"/>
      <point x="0" y="917" type="curve" smooth="yes"/>
      <point x="0" y="83" type="line" smooth="yes"/>
      <point x="0" y="34"/>
      <point x="43" y="-5"/>
      <point x="95" y="-5" type="curve" smooth="yes"/>
      <point x="147" y="-5"/>
      <point x="190" y="34"/>
      <point x="190" y="83" type="curve" smooth="yes"/>
    </contour>
  </outline>
</glyph>
<glyph name="J" format="1">
  <advance width="673"/>
  <unicode hex="004A"/>
  <outline>
    <contour>
      <point x="348" y="284" type="line" smooth="yes"/>
      <point x="348" y="237"/>
      <point x="322" y="197"/>
      <point x="279" y="179" type="curve" smooth="yes"/>
      <point x="236" y="161"/>
      <point x="190" y="170"/>
      <point x="157" y="204" type="curve" smooth="yes"/>
      <point x="124" y="239"/>
      <point x="67" y="240"/>
      <point x="30" y="206" type="curve" smooth="yes"/>
      <point x="-7" y="171"/>
      <point x="-10" y="115"/>
      <point x="23" y="79" type="curve"/>
      <point x="111" y="-5"/>
      <point x="236" y="-29"/>
      <point x="352" y="17" type="curve" smooth="yes"/>
      <point x="467" y="63"/>
      <point x="538" y="164"/>
      <point x="538" y="284" type="curve" smooth="yes"/>
      <point x="538" y="923" type="line" smooth="yes"/>
      <point x="538" y="969"/>
      <point x="495" y="1005"/>
      <point x="443" y="1005" type="curve" smooth="yes"/>
      <point x="390" y="1005"/>
      <point x="348" y="969"/>
      <point x="348" y="923" type="curve" smooth="yes"/>
    </contour>
  </outline>
</glyph>
<glyph name="K" format="1">
  <advance width="803"/>
  <unicode hex="004B"/>
  <outline>
    <contour>
      <point x="190" y="243" type="line"/>
      <point x="276" y="360" type="line"/>
      <point x="494" y="34" type="line" smooth="yes"/>
      <point x="523" y="-7"/>
      <point x="582" y="-17"/>
      <point x="626" y="9" type="curve" smooth="yes"/>
      <point x="669" y="36"/>
      <point x="681" y="91"/>
      <point x="652" y="131" type="curve" smooth="yes"/>
      <point x="394" y="519" type="line"/>
      <point x="649" y="865" type="line" smooth="yes"/>
      <point x="680" y="904"/>
      <point x="671" y="959"/>
      <point x="629" y="988" type="curve" smooth="yes"/>
      <point x="587" y="1017"/>
      <point x="528" y="1009"/>
      <point x="496" y="970" type="curve"/>
      <point x="190" y="554" type="line"/>
      <point x="190" y="917" type="line" smooth="yes"/>
      <point x="190" y="966"/>
      <point x="147" y="1005"/>
      <point x="95" y="1005" type="curve" smooth="yes"/>
      <point x="43" y="1005"/>
      <point x="0" y="966"/>
      <point x="0" y="917" type="curve" smooth="yes"/>
      <point x="0" y="83" type="line" smooth="yes"/>
      <point x="0" y="34"/>
      <point x="43" y="-5"/>
      <point x="95" y="-5" type="curve" smooth="yes"/>
      <point x="147" y="-5"/>
      <point x="190" y="34"/>
      <point x="190" y="83" type="curve" smooth="yes"/>
    </contour>
  </outline>
</glyph>
<glyph name="L" format="1">
  <advance width="819"/>
  <unicode hex="004C"/>
  <outline>
    <contour>
      <point x="589" y="7" type="line" smooth="yes"/>
      <point x="641" y="7"/>
      <point x="684" y="46"/>
      <point x="684" y="95" type="curve"/>
      <point x="684" y="95" type="line"/>
      <point x="684" y="144"/>
      <point x="641" y="183"/>
      <point x="589" y="183" type="curve" smooth="yes"/>
      <point x="190" y="183" type="line"/>
      <point x="190" y="917" type="line" smooth="yes"/>
      <point x="190" y="966"/>
      <point x="147" y="1005"/>
      <point x="95" y="1005" type="curve" smooth="yes"/>
      <point x="43" y="1005"/>
      <point x="0" y="966"/>
      <point x="0" y="917" type="curve" smooth="yes"/>
      <point x="0" y="96" type="line" smooth="yes"/>
      <point x="0" y="40"/>
      <point x="49" y="-5"/>
      <point x="109" y="-5" type="curve" smooth="yes"/>
    </contour>
  </outline>
</glyph>
<glyph name="M" format="1">
  <advance width="1074"/>
  <unicode hex="004D"/>
  <outline>
    <contour>
      <point x="379" y="397" type="line" smooth="yes"/>
      <point x="400" y="370"/>
      <point x="432" y="356"/>
      <point x="469" y="356" type="curve" smooth="yes"/>
      <point x="507" y="356"/>
      <point x="539" y="370"/>
      <point x="560" y="397" type="curve" smooth="yes"/>
      <point x="749" y="654" type="line"/>
      <point x="749" y="77" type="line" smooth="yes"/>
      <point x="749" y="31"/>
      <point x="791" y="-5"/>
      <point x="844" y="-5" type="curve" smooth="yes"/>
      <point x="896" y="-5"/>
      <point x="939" y="31"/>
      <point x="939" y="77" type="curve" smooth="yes"/>
      <point x="939" y="911" type="line" smooth="yes"/>
      <point x="939" y="953"/>
      <point x="908" y="989"/>
      <point x="861" y="1001" type="curve" smooth="yes"/>
      <point x="814" y="1013"/>
      <point x="766" y="999"/>
      <point x="739" y="964" type="curve" smooth="yes"/>
      <point x="469" y="589" type="line"/>
      <point x="200" y="964" type="line" smooth="yes"/>
      <point x="173" y="999"/>
      <point x="124" y="1013"/>
      <point x="77" y="1001" type="curve" smooth="yes"/>
      <point x="31" y="989"/>
      <point x="0" y="953"/>
      <point x="0" y="911" type="curve" smooth="yes"/>
      <point x="0" y="77" type="line" smooth="yes"/>
      <point x="0" y="31"/>
      <point x="43" y="-5"/>
      <point x="95" y="-5" type="curve" smooth="yes"/>
      <point x="147" y="-5"/>
      <point x="190" y="31"/>
      <point x="190" y="77" type="curve" smooth="yes"/>
      <point x="190" y="654" type="line"/>
    </contour>
  </outline>
</glyph>
<glyph name="Latin_Capital_Letter_N" format="1">
  <advance width="767"/>
  <unicode hex="004E"/>
  <outline>
    <contour>
      <point x="190" y="595" type="line"/>
      <point x="565" y="42" type="line" smooth="yes"/>
      <point x="592" y="3"/>
      <point x="640" y="-14"/>
      <point x="688" y="-1" type="curve" smooth="yes"/>
      <point x="736" y="11"/>
      <point x="767" y="50"/>
      <point x="767" y="96" type="curve" smooth="yes"/>
      <point x="767" y="917" type="line" smooth="yes"/>
      <point x="767" y="966"/>
      <point x="725" y="1005"/>
      <point x="672" y="1005" type="curve" smooth="yes"/>
      <point x="620" y="1005"/>
      <point x="577" y="966"/>
      <point x="577" y="917" type="curve" smooth="yes"/>
      <point x="577" y="405" type="line"/>
      <point x="202" y="958" type="line" smooth="yes"/>
      <point x="175" y="997"/>
      <point x="127" y="1014"/>
      <point x="79" y="1001" type="curve" smooth="yes"/>
      <point x="31" y="989"/>
      <point x="0" y="950"/>
      <point x="0" y="904" type="curve" smooth="yes"/>
      <point x="0" y="83" type="line" smooth="yes"/>
      <point x="0" y="34"/>
      <point x="43" y="-5"/>
      <point x="95" y="-5" type="curve" smooth="yes"/>
      <point x="147" y="-5"/>
      <point x="190" y="34"/>
      <point x="190" y="83" type="curve" smooth="yes"/>
    </contour>
  </outline>
</glyph>
<glyph name="N" format="1">
  <advance width="903"/>
  <unicode hex="004E"/>
  <outline>
    <contour>
      <point x="190" y="595" type="line"/>
      <point x="567" y="39" type="line"/>
      <point x="595" y="2"/>
      <point x="643" y="-14"/>
      <point x="690" y="-1" type="curve" smooth="yes"/>
      <point x="737" y="12"/>
      <point x="767" y="51"/>
      <point x="767" y="96" type="curve" smooth="yes"/>
      <point x="767" y="917" type="line" smooth="yes"/>
      <point x="767" y="966"/>
      <point x="725" y="1005"/>
      <point x="672" y="1005" type="curve" smooth="yes"/>
      <point x="620" y="1005"/>
      <point x="577" y="966"/>
      <point x="577" y="917" type="curve" smooth="yes"/>
      <point x="577" y="405" type="line"/>
      <point x="200" y="961" type="line"/>
      <point x="172" y="998"/>
      <point x="124" y="1014"/>
      <point x="77" y="1001" type="curve" smooth="yes"/>
      <point x="30" y="988"/>
      <point x="0" y="949"/>
      <point x="0" y="904" type="curve" smooth="yes"/>
      <point x="0" y="83" type="line" smooth="yes"/>
      <point x="0" y="34"/>
      <point x="43" y="-5"/>
      <point x="95" y="-5" type="curve" smooth="yes"/>
      <point x="147" y="-5"/>
      <point x="190" y="34"/>
      <point x="190" y="83" type="curve" smooth="yes"/>
    </contour>
  </outline>
</glyph>
<glyph name="Latin_Capital_Letter_O" format="1">
  <advance width="880"/>
  <unicode hex="004F"/>
  <outline>
    <contour>
      <point x="208" y="472" type="curve" smooth="yes"/>
      <point x="208" y="528" type="line" smooth="yes"/>
      <point x="208" y="683"/>
      <point x="304" y="824"/>
      <point x="425" y="824" type="curve" smooth="yes"/>
      <point x="455" y="824" type="line" smooth="yes"/>
      <point x="585" y="824"/>
      <point x="672" y="692"/>
      <point x="672" y="528" type="curve" smooth="yes"/>
      <point x="672" y="472" type="line" smooth="yes"/>
      <point x="672" y="317"/>
      <point x="575" y="176"/>
      <point x="455" y="176" type="curve" smooth="yes"/>
      <point x="425" y="176" type="line" smooth="yes"/>
      <point x="295" y="176"/>
      <point x="208" y="308"/>
    </contour>
    <contour>
      <point x="0" y="472" type="line" smooth="yes"/>
      <point x="0" y="212"/>
      <point x="190" y="0"/>
      <point x="425" y="0" type="curve" smooth="yes"/>
      <point x="455" y="0" type="line" smooth="yes"/>
      <point x="690" y="0"/>
      <point x="880" y="212"/>
      <point x="880" y="472" type="curve" smooth="yes"/>
      <point x="880" y="528" type="line" smooth="yes"/>
      <point x="880" y="788"/>
      <point x="690" y="1000"/>
      <point x="455" y="1000" type="curve" smooth="yes"/>
      <point x="425" y="1000" type="line" smooth="yes"/>
      <point x="190" y="1000"/>
      <point x="0" y="788"/>
      <point x="0" y="528" type="curve" smooth="yes"/>
    </contour>
  </outline>
</glyph>
<glyph name="O" format="1">
  <advance width="1015"/>
  <unicode hex="004F"/>
  <outline>
    <contour>
      <point x="197" y="472" type="curve" smooth="yes"/>
      <point x="197" y="528" type="line" smooth="yes"/>
      <point x="197" y="683"/>
      <point x="299" y="824"/>
      <point x="425" y="824" type="curve" smooth="yes"/>
      <point x="455" y="824" type="line" smooth="yes"/>
      <point x="591" y="824"/>
      <point x="683" y="692"/>
      <point x="683" y="528" type="curve" smooth="yes"/>
      <point x="683" y="472" type="line" smooth="yes"/>
      <point x="683" y="317"/>
      <point x="581" y="176"/>
      <point x="455" y="176" type="curve" smooth="yes"/>
      <point x="425" y="176" type="line" smooth="yes"/>
      <point x="289" y="176"/>
      <point x="197" y="308"/>
    </contour>
    <contour>
      <point x="0" y="472" type="line" smooth="yes"/>
      <point x="0" y="212"/>
      <point x="190" y="0"/>
      <point x="425" y="0" type="curve" smooth="yes"/>
      <point x="455" y="0" type="line" smooth="yes"/>
      <point x="690" y="0"/>
      <point x="880" y="212"/>
      <point x="880" y="472" type="curve" smooth="yes"/>
      <point x="880" y="528" type="line" smooth="yes"/>
      <point x="880" y="788"/>
      <point x="690" y="1000"/>
      <point x="455" y="1000" type="curve" smooth="yes"/>
      <point x="425" y="1000" type="line" smooth="yes"/>
      <point x="190" y="1000"/>
      <point x="0" y="788"/>
      <point x="0" y="528" type="curve" smooth="yes"/>
    </contour>
  </outline>
</glyph>
<glyph name="Latin_Capital_Letter_P" format="1">
  <advance width="663"/>
  <unicode hex="0050"/>
  <outline>
    <contour>
      <point x="190" y="83" type="curve" smooth="yes"/>
      <point x="190" y="362" type="line"/>
      <point x="320" y="362" type="line" smooth="yes"/>
      <point x="509" y="362"/>
      <point x="663" y="502"/>
      <point x="663" y="675" type="curve" smooth="yes"/>
      <point x="663" y="687" type="line" smooth="yes"/>
      <point x="663" y="860"/>
      <point x="509" y="1000"/>
      <point x="320" y="1000" type="curve" smooth="yes"/>
      <point x="109" y="1000" type="line" smooth="yes"/>
      <point x="49" y="1000"/>
      <point x="0" y="955"/>
      <point x="0" y="899" type="curve" smooth="yes"/>
      <point x="0" y="83" type="line" smooth="yes"/>
      <point x="0" y="34"/>
      <point x="43" y="-5"/>
      <point x="95" y="-5" type="curve" smooth="yes"/>
      <point x="147" y="-5"/>
      <point x="190" y="34"/>
    </contour>
    <contour>
      <point x="190" y="824" type="line"/>
      <point x="320" y="824" type="line" smooth="yes"/>
      <point x="397" y="824"/>
      <point x="462" y="763"/>
      <point x="462" y="687" type="curve" smooth="yes"/>
      <point x="462" y="675" type="line" smooth="yes"/>
      <point x="462" y="598"/>
      <point x="398" y="538"/>
      <point x="320" y="538" type="curve" smooth="yes"/>
      <point x="190" y="538" type="line"/>
    </contour>
  </outline>
</glyph>
<glyph name="P" format="1">
  <advance width="790"/>
  <unicode hex="0050"/>
  <outline>
    <contour>
      <point x="190" y="77" type="curve" smooth="yes"/>
      <point x="190" y="362" type="line"/>
      <point x="310" y="362" type="line" smooth="yes"/>
      <point x="500" y="362"/>
      <point x="654" y="502"/>
      <point x="654" y="675" type="curve" smooth="yes"/>
      <point x="654" y="687" type="line" smooth="yes"/>
      <point x="654" y="860"/>
      <point x="500" y="1000"/>
      <point x="310" y="1000" type="curve" smooth="yes"/>
      <point x="109" y="1000" type="line" smooth="yes"/>
      <point x="49" y="1000"/>
      <point x="0" y="958"/>
      <point x="0" y="906" type="curve" smooth="yes"/>
      <point x="0" y="77" type="line" smooth="yes"/>
      <point x="0" y="31"/>
      <point x="43" y="-5"/>
      <point x="95" y="-5" type="curve" smooth="yes"/>
      <point x="147" y="-5"/>
      <point x="190" y="31"/>
    </contour>
    <contour>
      <point x="190" y="824" type="line"/>
      <point x="310" y="824" type="line" smooth="yes"/>
      <point x="388" y="824"/>
      <point x="453" y="763"/>
      <point x="453" y="687" type="curve" smooth="yes"/>
      <point x="453" y="675" type="line" smooth="yes"/>
      <point x="453" y="598"/>
      <point x="389" y="538"/>
      <point x="310" y="538" type="curve" smooth="yes"/>
      <point x="190" y="538" type="line"/>
    </contour>
  </outline>
</glyph>
<glyph name="Latin_Capital_Letter_Q" format="1">
  <advance width="1015"/>
  <unicode hex="0051"/>
  <outline>
    <contour>
      <point x="208" y="472" type="curve" smooth="yes"/>
      <point x="208" y="528" type="line" smooth="yes"/>
      <point x="208" y="683"/>
      <point x="304" y="824"/>
      <point x="425" y="824" type="curve" smooth="yes"/>
      <point x="455" y="824" type="line" smooth="yes"/>
      <point x="585" y="824"/>
      <point x="672" y="692"/>
      <point x="672" y="528" type="curve" smooth="yes"/>
      <point x="672" y="472" type="line" smooth="yes"/>
      <point x="672" y="317"/>
      <point x="575" y="176"/>
      <point x="455" y="176" type="curve" smooth="yes"/>
      <point x="425" y="176" type="line" smooth="yes"/>
      <point x="295" y="176"/>
      <point x="208" y="308"/>
    </contour>
    <contour>
      <point x="0" y="473" type="line" smooth="yes"/>
      <point x="0" y="293"/>
      <point x="82" y="140"/>
      <point x="224" y="56" type="curve" smooth="yes"/>
      <point x="694" y="-194" type="line"/>
      <point x="734" y="-224"/>
      <point x="791" y="-217"/>
      <point x="821" y="-178" type="curve"/>
      <point x="821" y="-178" type="line"/>
      <point x="851" y="-139"/>
      <point x="842" y="-83"/>
      <point x="802" y="-53" type="curve"/>
      <point x="611" y="33" type="line"/>
      <point x="769" y="102"/>
      <point x="880" y="273"/>
      <point x="880" y="472" type="curve" smooth="yes"/>
      <point x="880" y="528" type="line" smooth="yes"/>
      <point x="880" y="788"/>
      <point x="690" y="1000"/>
      <point x="455" y="1000" type="curve" smooth="yes"/>
      <point x="425" y="1000" type="line" smooth="yes"/>
      <point x="190" y="1000"/>
      <point x="0" y="788"/>
      <point x="0" y="528" type="curve" smooth="yes"/>
    </contour>
  </outline>
</glyph>
<glyph name="Q" format="1">
  <advance width="1015"/>
  <unicode hex="0051"/>
  <outline>
    <contour>
      <point x="208" y="472" type="curve" smooth="yes"/>
      <point x="208" y="528" type="line" smooth="yes"/>
      <point x="208" y="683"/>
      <point x="304" y="824"/>
      <point x="425" y="824" type="curve" smooth="yes"/>
      <point x="455" y="824" type="line" smooth="yes"/>
      <point x="585" y="824"/>
      <point x="672" y="692"/>
      <point x="672" y="528" type="curve" smooth="yes"/>
      <point x="672" y="472" type="line" smooth="yes"/>
      <point x="672" y="317"/>
      <point x="575" y="176"/>
      <point x="455" y="176" type="curve" smooth="yes"/>
      <point x="425" y="176" type="line" smooth="yes"/>
      <point x="295" y="176"/>
      <point x="208" y="308"/>
    </contour>
    <contour>
      <point x="0" y="473" type="line" smooth="yes"/>
      <point x="0" y="294"/>
      <point x="82" y="141"/>
      <point x="223" y="56" type="curve"/>
      <point x="649" y="-172" type="line"/>
      <point x="687" y="-201"/>
      <point x="741" y="-192"/>
      <point x="770" y="-153" type="curve" smooth="yes"/>
      <point x="800" y="-114"/>
      <point x="793" y="-59"/>
      <point x="756" y="-30" type="curve"/>
      <point x="613" y="34" type="line"/>
      <point x="769" y="103"/>
      <point x="880" y="274"/>
      <point x="880" y="472" type="curve" smooth="yes"/>
      <point x="880" y="528" type="line" smooth="yes"/>
      <point x="880" y="788"/>
      <point x="690" y="1000"/>
      <point x="455" y="1000" type="curve" smooth="yes"/>
      <point x="425" y="1000" type="line" smooth="yes"/>
      <point x="190" y="1000"/>
      <point x="0" y="788"/>
      <point x="0" y="528" type="curve" smooth="yes"/>
    </contour>
  </outline>
</glyph>
<glyph name="Latin_Capital_Letter_R" format="1">
  <advance width="663"/>
  <unicode hex="0052"/>
  <outline>
    <contour>
      <point x="190" y="362" type="line"/>
      <point x="313" y="362" type="line"/>
      <point x="483" y="44" type="line" smooth="yes"/>
      <point x="507" y="0"/>
      <point x="564" y="-18"/>
      <point x="611" y="4" type="curve" smooth="yes"/>
      <point x="658" y="25"/>
      <point x="677" y="78"/>
      <point x="653" y="122" type="curve" smooth="yes"/>
      <point x="500" y="408" type="line"/>
      <point x="598" y="463"/>
      <point x="663" y="562"/>
      <point x="663" y="675" type="curve" smooth="yes"/>
      <point x="663" y="687" type="line" smooth="yes"/>
      <point x="663" y="860"/>
      <point x="509" y="1000"/>
      <point x="320" y="1000" type="curve" smooth="yes"/>
      <point x="109" y="1000" type="line" smooth="yes"/>
      <point x="49" y="1000"/>
      <point x="0" y="955"/>
      <point x="0" y="899" type="curve" smooth="yes"/>
      <point x="0" y="83" type="line" smooth="yes"/>
      <point x="0" y="34"/>
      <point x="43" y="-5"/>
      <point x="95" y="-5" type="curve" smooth="yes"/>
      <point x="147" y="-5"/>
      <point x="190" y="34"/>
      <point x="190" y="83" type="curve" smooth="yes"/>
    </contour>
    <contour>
      <point x="190" y="824" type="line"/>
      <point x="320" y="824" type="line" smooth="yes"/>
      <point x="397" y="824"/>
      <point x="462" y="763"/>
      <point x="462" y="687" type="curve" smooth="yes"/>
      <point x="462" y="675" type="line" smooth="yes"/>
      <point x="462" y="598"/>
      <point x="398" y="538"/>
      <point x="320" y="538" type="curve" smooth="yes"/>
      <point x="190" y="538" type="line"/>
    </contour>
  </outline>
</glyph>
<glyph name="R" format="1">
  <advance width="790"/>
  <unicode hex="0052"/>
  <outline>
    <contour>
      <point x="190" y="362" type="line"/>
      <point x="308" y="362" type="line"/>
      <point x="473" y="43" type="line" smooth="yes"/>
      <point x="494" y="2"/>
      <point x="550" y="-17"/>
      <point x="598" y="2" type="curve" smooth="yes"/>
      <point x="646" y="20"/>
      <point x="667" y="69"/>
      <point x="646" y="110" type="curve" smooth="yes"/>
      <point x="492" y="409" type="line"/>
      <point x="589" y="464"/>
      <point x="654" y="562"/>
      <point x="654" y="675" type="curve" smooth="yes"/>
      <point x="654" y="687" type="line" smooth="yes"/>
      <point x="654" y="860"/>
      <point x="500" y="1000"/>
      <point x="310" y="1000" type="curve" smooth="yes"/>
      <point x="109" y="1000" type="line" smooth="yes"/>
      <point x="49" y="1000"/>
      <point x="0" y="958"/>
      <point x="0" y="906" type="curve" smooth="yes"/>
      <point x="0" y="77" type="line" smooth="yes"/>
      <point x="0" y="31"/>
      <point x="43" y="-5"/>
      <point x="95" y="-5" type="curve" smooth="yes"/>
      <point x="147" y="-5"/>
      <point x="190" y="31"/>
      <point x="190" y="77" type="curve" smooth="yes"/>
    </contour>
    <contour>
      <point x="190" y="824" type="line"/>
      <point x="310" y="824" type="line" smooth="yes"/>
      <point x="388" y="824"/>
      <point x="453" y="763"/>
      <point x="453" y="687" type="curve" smooth="yes"/>
      <point x="453" y="675" type="line" smooth="yes"/>
      <point x="453" y="598"/>
      <point x="389" y="538"/>
      <point x="310" y="538" type="curve" smooth="yes"/>
      <point x="190" y="538" type="line"/>
    </contour>
  </outline>
</glyph>
<glyph name="S" format="1">
  <advance width="800"/>
  <unicode hex="0053"/>
  <outline>
    <contour>
      <point x="665" y="314" type="curve" smooth="yes"/>
      <point x="665" y="490"/>
      <point x="516" y="575"/>
      <point x="348" y="629" type="curve" smooth="yes"/>
      <point x="301" y="646"/>
      <point x="213" y="677"/>
      <point x="212" y="731" type="curve" smooth="yes"/>
      <point x="211" y="786"/>
      <point x="259" y="830"/>
      <point x="319" y="830" type="curve" smooth="yes"/>
      <point x="362" y="830"/>
      <point x="399" y="820"/>
      <point x="430" y="801" type="curve"/>
      <point x="462" y="768"/>
      <point x="517" y="768"/>
      <point x="554" y="802" type="curve" smooth="yes"/>
      <point x="590" y="835"/>
      <point x="594" y="890"/>
      <point x="563" y="925" type="curve"/>
      <point x="496" y="979"/>
      <point x="414" y="1005"/>
      <point x="319" y="1005" type="curve" smooth="yes"/>
      <point x="149" y="1005"/>
      <point x="12" y="883"/>
      <point x="12" y="731" type="curve" smooth="yes"/>
      <point x="12" y="580"/>
      <point x="150" y="508"/>
      <point x="294" y="462" type="curve" smooth="yes"/>
      <point x="363" y="437"/>
      <point x="461" y="393"/>
      <point x="461" y="314" type="curve" smooth="yes"/>
      <point x="462" y="235"/>
      <point x="391" y="170"/>
      <point x="304" y="170" type="curve" smooth="yes"/>
      <point x="245" y="170"/>
      <point x="196" y="184"/>
      <point x="154" y="212" type="curve"/>
      <point x="122" y="245"/>
      <point x="67" y="246"/>
      <point x="30" y="212" type="curve" smooth="yes"/>
      <point x="-6" y="178"/>
      <point x="-10" y="123"/>
      <point x="21" y="89" type="curve"/>
      <point x="98" y="26"/>
      <point x="193" y="-5"/>
      <point x="304" y="-5" type="curve" smooth="yes"/>
      <point x="503" y="-5"/>
      <point x="665" y="138"/>
    </contour>
  </outline>
</glyph>
<glyph name="Latin_Capital_Letter_T" format="1">
  <advance width="812"/>
  <unicode hex="0054"/>
  <outline>
    <contour>
      <point x="501" y="824" type="line"/>
      <point x="717" y="824" type="line" smooth="yes"/>
      <point x="770" y="824"/>
      <point x="812" y="864"/>
      <point x="812" y="912" type="curve"/>
      <point x="812" y="912" type="line"/>
      <point x="812" y="961"/>
      <point x="770" y="1000"/>
      <point x="717" y="1000" type="curve" smooth="yes"/>
      <point x="95" y="1000" type="line" smooth="yes"/>
      <point x="43" y="1000"/>
      <point x="0" y="961"/>
      <point x="0" y="912" type="curve"/>
      <point x="0" y="912" type="line"/>
      <point x="0" y="864"/>
      <point x="43" y="824"/>
      <point x="95" y="824" type="curve" smooth="yes"/>
      <point x="311" y="824" type="line"/>
      <point x="311" y="83" type="line" smooth="yes"/>
      <point x="311" y="34"/>
      <point x="354" y="-5"/>
      <point x="406" y="-5" type="curve" smooth="yes"/>
      <point x="459" y="-5"/>
      <point x="501" y="34"/>
      <point x="501" y="83" type="curve" smooth="yes"/>
    </contour>
  </outline>
</glyph>
<glyph name="T" format="1">
  <advance width="962"/>
  <unicode hex="0054"/>
  <outline>
    <contour>
      <point x="508" y="817" type="line"/>
      <point x="732" y="817" type="line" smooth="yes"/>
      <point x="784" y="817"/>
      <point x="826" y="856"/>
      <point x="826" y="905" type="curve"/>
      <point x="826" y="905" type="line"/>
      <point x="826" y="954"/>
      <point x="784" y="993"/>
      <point x="732" y="993" type="curve" smooth="yes"/>
      <point x="95" y="993" type="line" smooth="yes"/>
      <point x="43" y="993"/>
      <point x="0" y="954"/>
      <point x="0" y="905" type="curve"/>
      <point x="0" y="905" type="line"/>
      <point x="0" y="856"/>
      <point x="43" y="817"/>
      <point x="95" y="817" type="curve" smooth="yes"/>
      <point x="318" y="817" type="line"/>
      <point x="318" y="83" type="line" smooth="yes"/>
      <point x="318" y="34"/>
      <point x="361" y="-5"/>
      <point x="413" y="-5" type="curve" smooth="yes"/>
      <point x="466" y="-5"/>
      <point x="508" y="34"/>
      <point x="508" y="83" type="curve" smooth="yes"/>
    </contour>
  </outline>
</glyph>
<glyph name="Latin_Capital_Letter_V" format="1">
  <advance width="857"/>
  <unicode hex="0056"/>
  <outline>
    <contour>
      <point x="293" y="85" type="line" smooth="yes"/>
      <point x="313" y="30"/>
      <point x="366" y="-5"/>
      <point x="429" y="-5" type="curve" smooth="yes"/>
      <point x="491" y="-5"/>
      <point x="544" y="30"/>
      <point x="564" y="85" type="curve" smooth="yes"/>
      <point x="853" y="890" type="line" smooth="yes"/>
      <point x="869" y="936"/>
      <point x="842" y="986"/>
      <point x="792" y="1001" type="curve" smooth="yes"/>
      <point x="743" y="1016"/>
      <point x="689" y="991"/>
      <point x="672" y="945" type="curve" smooth="yes"/>
      <point x="429" y="266" type="line"/>
      <point x="185" y="945" type="line" smooth="yes"/>
      <point x="169" y="991"/>
      <point x="115" y="1016"/>
      <point x="65" y="1001" type="curve" smooth="yes"/>
      <point x="15" y="986"/>
      <point x="-12" y="936"/>
      <point x="5" y="890" type="curve" smooth="yes"/>
    </contour>
  </outline>
</glyph>
<glyph name="V" format="1">
  <advance width="977"/>
  <unicode hex="0056"/>
  <outline>
    <contour>
      <point x="317" y="58" type="line" smooth="yes"/>
      <point x="333" y="19"/>
      <point x="373" y="-5"/>
      <point x="421" y="-5" type="curve" smooth="yes"/>
      <point x="468" y="-5"/>
      <point x="509" y="19"/>
      <point x="524" y="58" type="curve" smooth="yes"/>
      <point x="837" y="890" type="line" smooth="yes"/>
      <point x="853" y="932"/>
      <point x="826" y="979"/>
      <point x="777" y="995" type="curve" smooth="yes"/>
      <point x="727" y="1011"/>
      <point x="675" y="989"/>
      <point x="658" y="946" type="curve" smooth="yes"/>
      <point x="421" y="314" type="line"/>
      <point x="183" y="946" type="line" smooth="yes"/>
      <point x="167" y="989"/>
      <point x="114" y="1011"/>
      <point x="65" y="995" type="curve" smooth="yes"/>
      <point x="16" y="979"/>
      <point x="-11" y="932"/>
      <point x="5" y="890" type="curve" smooth="yes"/>
    </contour>
  </outline>
</glyph>
<glyph name="W" format="1">
  <advance width="1489"/>
  <unicode hex="0057"/>
  <outline>
    <contour>
      <point x="276" y="63" type="line" smooth="yes"/>
      <point x="292" y="21"/>
      <point x="332" y="-6"/>
      <point x="380" y="-5" type="curve" smooth="yes"/>
      <point x="428" y="-5"/>
      <point x="468" y="22"/>
      <point x="483" y="64" type="curve" smooth="yes"/>
      <point x="677" y="690" type="line"/>
      <point x="871" y="63" type="line"/>
      <point x="887" y="21"/>
      <point x="927" y="-6"/>
      <point x="975" y="-5" type="curve" smooth="yes"/>
      <point x="1023" y="-5"/>
      <point x="1063" y="22"/>
      <point x="1078" y="64" type="curve" smooth="yes"/>
      <point x="1349" y="890" type="line" smooth="yes"/>
      <point x="1365" y="936"/>
      <point x="1338" y="986"/>
      <point x="1288" y="1001" type="curve" smooth="yes"/>
      <point x="1239" y="1016"/>
      <point x="1185" y="991"/>
      <point x="1168" y="945" type="curve"/>
      <point x="973" y="314" type="line"/>
      <point x="780" y="937" type="line"/>
      <point x="764" y="979"/>
      <point x="724" y="1006"/>
      <point x="676" y="1005" type="curve" smooth="yes"/>
      <point x="628" y="1005"/>
      <point x="588" y="978"/>
      <point x="573" y="936" type="curve" smooth="yes"/>
      <point x="381" y="314" type="line"/>
      <point x="185" y="946" type="line"/>
      <point x="168" y="992"/>
      <point x="114" y="1016"/>
      <point x="64" y="1000" type="curve" smooth="yes"/>
      <point x="14" y="985"/>
      <point x="-12" y="935"/>
      <point x="5" y="889" type="curve" smooth="yes"/>
    </contour>
  </outline>
</glyph>
<glyph name="Latin_Capital_Letter_X" format="1">
  <advance width="857"/>
  <unicode hex="0058"/>
  <outline>
    <contour>
      <point x="361" y="327" type="line"/>
      <point x="545" y="38" type="line" smooth="yes"/>
      <point x="572" y="-4"/>
      <point x="630" y="-18"/>
      <point x="675" y="7" type="curve" smooth="yes"/>
      <point x="720" y="32"/>
      <point x="735" y="85"/>
      <point x="709" y="127" type="curve" smooth="yes"/>
      <point x="471" y="500" type="line"/>
      <point x="709" y="873" type="line" smooth="yes"/>
      <point x="735" y="915"/>
      <point x="720" y="968"/>
      <point x="675" y="993" type="curve" smooth="yes"/>
      <point x="630" y="1018"/>
      <point x="572" y="1004"/>
      <point x="545" y="962" type="curve" smooth="yes"/>
      <point x="361" y="673" type="line"/>
      <point x="177" y="962" type="line" smooth="yes"/>
      <point x="150" y="1004"/>
      <point x="92" y="1018"/>
      <point x="47" y="993" type="curve" smooth="yes"/>
      <point x="2" y="968"/>
      <point x="-13" y="915"/>
      <point x="13" y="873" type="curve" smooth="yes"/>
      <point x="251" y="500" type="line"/>
      <point x="13" y="127" type="line" smooth="yes"/>
      <point x="-13" y="85"/>
      <point x="2" y="32"/>
      <point x="47" y="7" type="curve" smooth="yes"/>
      <point x="92" y="-18"/>
      <point x="150" y="-4"/>
      <point x="177" y="38" type="curve" smooth="yes"/>
    </contour>
  </outline>
</glyph>
<glyph name="X" format="1">
  <advance width="825"/>
  <unicode hex="0058"/>
  <outline>
    <contour>
      <point x="345" y="321" type="line"/>
      <point x="513" y="41" type="line" smooth="yes"/>
      <point x="537" y="2"/>
      <point x="593" y="-12"/>
      <point x="639" y="11" type="curve" smooth="yes"/>
      <point x="684" y="34"/>
      <point x="702" y="85"/>
      <point x="679" y="124" type="curve" smooth="yes"/>
      <point x="452" y="500" type="line"/>
      <point x="679" y="876" type="line" smooth="yes"/>
      <point x="694" y="902"/>
      <point x="693" y="932"/>
      <point x="674" y="959" type="curve" smooth="yes"/>
      <point x="656" y="985"/>
      <point x="626" y="1000"/>
      <point x="592" y="1000" type="curve" smooth="yes"/>
      <point x="557" y="1000"/>
      <point x="529" y="985"/>
      <point x="513" y="959" type="curve" smooth="yes"/>
      <point x="345" y="679" type="line"/>
      <point x="176" y="959" type="line" smooth="yes"/>
      <point x="161" y="985"/>
      <point x="132" y="1000"/>
      <point x="98" y="1000" type="curve" smooth="yes"/>
      <point x="64" y="1000"/>
      <point x="34" y="985"/>
      <point x="15" y="959" type="curve" smooth="yes"/>
      <point x="-3" y="932"/>
      <point x="-5" y="902"/>
      <point x="11" y="876" type="curve" smooth="yes"/>
      <point x="237" y="500" type="line"/>
      <point x="11" y="124" type="line" smooth="yes"/>
      <point x="-13" y="85"/>
      <point x="5" y="34"/>
      <point x="51" y="11" type="curve" smooth="yes"/>
      <point x="96" y="-12"/>
      <point x="153" y="2"/>
      <point x="176" y="41" type="curve" smooth="yes"/>
    </contour>
  </outline>
</glyph>
<glyph name="Latin_Capital_Letter_Y" format="1">
  <advance width="948"/>
  <unicode hex="0059"/>
  <outline>
    <contour>
      <point x="311" y="473" type="line"/>
      <point x="311" y="83" type="line" smooth="yes"/>
      <point x="311" y="34"/>
      <point x="354" y="-5"/>
      <point x="406" y="-5" type="curve" smooth="yes"/>
      <point x="459" y="-5"/>
      <point x="501" y="34"/>
      <point x="501" y="83" type="curve" smooth="yes"/>
      <point x="501" y="473" type="line"/>
      <point x="795" y="868" type="line" smooth="yes"/>
      <point x="825" y="907"/>
      <point x="814" y="962"/>
      <point x="771" y="990" type="curve" smooth="yes"/>
      <point x="728" y="1017"/>
      <point x="669" y="1007"/>
      <point x="639" y="967" type="curve" smooth="yes"/>
      <point x="406" y="655" type="line"/>
      <point x="173" y="967" type="line" smooth="yes"/>
      <point x="143" y="1007"/>
      <point x="84" y="1017"/>
      <point x="41" y="990" type="curve" smooth="yes"/>
      <point x="-2" y="962"/>
      <point x="-13" y="907"/>
      <point x="17" y="868" type="curve" smooth="yes"/>
    </contour>
  </outline>
</glyph>
<glyph name="Y" format="1">
  <advance width="948"/>
  <unicode hex="0059"/>
  <outline>
    <contour>
      <point x="311" y="473" type="line"/>
      <point x="311" y="83" type="line" smooth="yes"/>
      <point x="311" y="34"/>
      <point x="354" y="-5"/>
      <point x="406" y="-5" type="curve" smooth="yes"/>
      <point x="459" y="-5"/>
      <point x="501" y="34"/>
      <point x="501" y="83" type="curve" smooth="yes"/>
      <point x="501" y="473" type="line"/>
      <point x="793" y="865" type="line" smooth="yes"/>
      <point x="825" y="904"/>
      <point x="816" y="959"/>
      <point x="774" y="988" type="curve" smooth="yes"/>
      <point x="732" y="1017"/>
      <point x="672" y="1009"/>
      <point x="641" y="970" type="curve" smooth="yes"/>
      <point x="406" y="655" type="line"/>
      <point x="171" y="970" type="line" smooth="yes"/>
      <point x="140" y="1009"/>
      <point x="80" y="1017"/>
      <point x="38" y="988" type="curve" smooth="yes"/>
      <point x="-4" y="959"/>
      <point x="-13" y="904"/>
      <point x="19" y="865" type="curve" smooth="yes"/>
    </contour>
  </outline>
</glyph>
<glyph name="Latin_Capital_Letter_Z" format="1">
  <advance width="678"/>
  <unicode hex="005A"/>
  <outline>
    <contour>
      <point x="431" y="824" type="line"/>
      <point x="17" y="165" type="line" smooth="yes"/>
      <point x="-5" y="130"/>
      <point x="-6" y="90"/>
      <point x="16" y="55" type="curve"/>
      <point x="16" y="55" type="line"/>
      <point x="38" y="20"/>
      <point x="75" y="0"/>
      <point x="119" y="0" type="curve" smooth="yes"/>
      <point x="582" y="0" type="line" smooth="yes"/>
      <point x="635" y="0"/>
      <point x="677" y="39"/>
      <point x="677" y="88" type="curve"/>
      <point x="677" y="88" type="line"/>
      <point x="677" y="136"/>
      <point x="635" y="176"/>
      <point x="582" y="176" type="curve" smooth="yes"/>
      <point x="247" y="176" type="line"/>
      <point x="661" y="835" type="line" smooth="yes"/>
      <point x="683" y="870"/>
      <point x="683" y="910"/>
      <point x="662" y="945" type="curve"/>
      <point x="662" y="945" type="line"/>
      <point x="640" y="980"/>
      <point x="602" y="1000"/>
      <point x="559" y="1000" type="curve" smooth="yes"/>
      <point x="95" y="1000" type="line" smooth="yes"/>
      <point x="43" y="1000"/>
      <point x="0" y="961"/>
      <point x="0" y="912" type="curve"/>
      <point x="0" y="912" type="line"/>
      <point x="0" y="864"/>
      <point x="43" y="824"/>
      <point x="95" y="824" type="curve" smooth="yes"/>
    </contour>
  </outline>
</glyph>
<glyph name="Z" format="1">
  <advance width="833"/>
  <unicode hex="005A"/>
  <outline>
    <contour>
      <point x="454" y="817" type="line"/>
      <point x="18" y="189" type="line" smooth="yes"/>
      <point x="-6" y="151"/>
      <point x="-6" y="108"/>
      <point x="17" y="69" type="curve"/>
      <point x="17" y="69" type="line"/>
      <point x="41" y="31"/>
      <point x="81" y="10"/>
      <point x="129" y="10" type="curve" smooth="yes"/>
      <point x="599" y="7" type="line" smooth="yes"/>
      <point x="652" y="7"/>
      <point x="694" y="46"/>
      <point x="694" y="95" type="curve"/>
      <point x="694" y="95" type="line"/>
      <point x="694" y="144"/>
      <point x="652" y="183"/>
      <point x="599" y="183" type="curve" smooth="yes"/>
      <point x="243" y="183" type="line"/>
      <point x="679" y="811" type="line" smooth="yes"/>
      <point x="703" y="849"/>
      <point x="703" y="892"/>
      <point x="680" y="931" type="curve"/>
      <point x="680" y="931" type="line"/>
      <point x="656" y="969"/>
      <point x="616" y="990"/>
      <point x="568" y="990" type="curve" smooth="yes"/>
      <point x="98" y="993" type="line" smooth="yes"/>
      <point x="46" y="993"/>
      <point x="3" y="954"/>
      <point x="3" y="905" type="curve"/>
      <point x="3" y="905" type="line"/>
      <point x="3" y="856"/>
      <point x="46" y="817"/>
      <point x="98" y="817" type="curve" smooth="yes"/>
    </contour>
  </outline>
</glyph>
<glyph name="backslash" format="1">
  <advance width="655"/>
  <unicode hex="005C"/>
  <outline>
    <contour>
      <point x="4" y="988" type="curve" smooth="yes"/>
      <point x="339" y="-45" type="line" smooth="yes"/>
      <point x="353" y="-89"/>
      <point x="404" y="-111"/>
      <point x="453" y="-95" type="curve" smooth="yes"/>
      <point x="502" y="-79"/>
      <point x="530" y="-31"/>
      <point x="516" y="12" type="curve" smooth="yes"/>
      <point x="180" y="1045" type="line" smooth="yes"/>
      <point x="166" y="1089"/>
      <point x="115" y="1111"/>
      <point x="66" y="1095" type="curve" smooth="yes"/>
      <point x="18" y="1079"/>
      <point x="-10" y="1031"/>
    </contour>
  </outline>
</glyph>
<glyph name="asciicircum" format="1">
  <advance width="686"/>
  <unicode hex="005E"/>
  <outline>
    <contour>
      <point x="17" y="757" type="line" smooth="yes"/>
      <point x="6" y="743"/>
      <point x="-1" y="724"/>
      <point x="0" y="703" type="curve" smooth="yes"/>
      <point x="2" y="656"/>
      <point x="43" y="616"/>
      <point x="91" y="614" type="curve" smooth="yes"/>
      <point x="118" y="613"/>
      <point x="142" y="624"/>
      <point x="158" y="643" type="curve" smooth="yes"/>
      <point x="275" y="788" type="line"/>
      <point x="393" y="643" type="line" smooth="yes"/>
      <point x="408" y="624"/>
      <point x="432" y="613"/>
      <point x="459" y="614" type="curve" smooth="yes"/>
      <point x="508" y="616"/>
      <point x="548" y="656"/>
      <point x="550" y="703" type="curve" smooth="yes"/>
      <point x="551" y="724"/>
      <point x="544" y="743"/>
      <point x="533" y="757" type="curve" smooth="yes"/>
      <point x="365" y="965" type="line" smooth="yes"/>
      <point x="345" y="989"/>
      <point x="312" y="1005"/>
      <point x="275" y="1005" type="curve" smooth="yes"/>
      <point x="238" y="1005"/>
      <point x="205" y="989"/>
      <point x="185" y="965" type="curve" smooth="yes"/>
    </contour>
  </outline>
</glyph>
<glyph name="underscore" format="1">
  <advance width="960"/>
  <unicode hex="005F"/>
  <outline>
    <contour>
      <point x="736" y="-208" type="line" smooth="yes"/>
      <point x="785" y="-208"/>
      <point x="825" y="-169"/>
      <point x="825" y="-120" type="curve" smooth="yes"/>
      <point x="825" y="-71"/>
      <point x="785" y="-32"/>
      <point x="736" y="-32" type="curve" smooth="yes"/>
      <point x="89" y="-32" type="line" smooth="yes"/>
      <point x="40" y="-32"/>
      <point x="0" y="-71"/>
      <point x="0" y="-120" type="curve" smooth="yes"/>
      <point x="0" y="-169"/>
      <point x="40" y="-208"/>
      <point x="89" y="-208" type="curve" smooth="yes"/>
    </contour>
  </outline>
</glyph>
<glyph name="grave" format="1">
  <advance width="437"/>
  <unicode hex="0060"/>
  <outline>
    <contour>
      <point x="156" y="981" type="line" smooth="yes"/>
      <point x="134" y="1005"/>
      <point x="101" y="1012"/>
      <point x="67" y="998" type="curve" smooth="yes"/>
      <point x="33" y="985"/>
      <point x="9" y="956"/>
      <point x="2" y="920" type="curve" smooth="yes"/>
      <point x="-5" y="884"/>
      <point x="8" y="852"/>
      <point x="36" y="836" type="curve" smooth="yes"/>
      <point x="207" y="734" type="line" smooth="yes"/>
      <point x="231" y="719"/>
      <point x="264" y="727"/>
      <point x="285" y="752" type="curve" smooth="yes"/>
      <point x="305" y="777"/>
      <point x="307" y="811"/>
      <point x="288" y="832" type="curve" smooth="yes"/>
    </contour>
  </outline>
</glyph>
<glyph name="a" format="1">
  <advance width="781"/>
  <unicode hex="0061"/>
  <outline>
    <contour>
      <point x="456" y="325" type="curve" smooth="yes"/>
      <point x="456" y="240"/>
      <point x="397" y="170"/>
      <point x="325" y="170" type="curve" smooth="yes"/>
      <point x="253" y="170"/>
      <point x="194" y="240"/>
      <point x="194" y="325" type="curve" smooth="yes"/>
      <point x="194" y="410"/>
      <point x="253" y="480"/>
      <point x="325" y="480" type="curve" smooth="yes"/>
      <point x="397" y="480"/>
      <point x="456" y="410"/>
    </contour>
    <contour>
      <point x="463" y="605" type="curve"/>
      <point x="423" y="637"/>
      <point x="376" y="655"/>
      <point x="325" y="655" type="curve" smooth="yes"/>
      <point x="146" y="655"/>
      <point x="0" y="507"/>
      <point x="0" y="325" type="curve" smooth="yes"/>
      <point x="0" y="143"/>
      <point x="146" y="-5"/>
      <point x="325" y="-5" type="curve" smooth="yes"/>
      <point x="376" y="-5"/>
      <point x="423" y="13"/>
      <point x="463" y="45" type="curve"/>
      <point x="478" y="16"/>
      <point x="511" y="-5"/>
      <point x="551" y="-5" type="curve" smooth="yes"/>
      <point x="603" y="-5"/>
      <point x="646" y="31"/>
      <point x="646" y="77" type="curve" smooth="yes"/>
      <point x="646" y="573" type="line" smooth="yes"/>
      <point x="646" y="619"/>
      <point x="603" y="655"/>
      <point x="551" y="655" type="curve" smooth="yes"/>
      <point x="511" y="655"/>
      <point x="478" y="634"/>
    </contour>
  </outline>
</glyph>
<glyph name="b" format="1">
  <advance width="781"/>
  <unicode hex="0062"/>
  <outline>
    <contour>
      <point x="190" y="325" type="curve" smooth="yes"/>
      <point x="190" y="410"/>
      <point x="249" y="480"/>
      <point x="321" y="480" type="curve" smooth="yes"/>
      <point x="393" y="480"/>
      <point x="452" y="410"/>
      <point x="452" y="325" type="curve" smooth="yes"/>
      <point x="452" y="240"/>
      <point x="393" y="170"/>
      <point x="321" y="170" type="curve" smooth="yes"/>
      <point x="249" y="170"/>
      <point x="190" y="240"/>
    </contour>
    <contour>
      <point x="190" y="610" type="curve"/>
      <point x="190" y="923" type="line" smooth="yes"/>
      <point x="190" y="969"/>
      <point x="147" y="1005"/>
      <point x="95" y="1005" type="curve" smooth="yes"/>
      <point x="43" y="1005"/>
      <point x="0" y="969"/>
      <point x="0" y="923" type="curve" smooth="yes"/>
      <point x="0" y="77" type="line" smooth="yes"/>
      <point x="0" y="31"/>
      <point x="43" y="-5"/>
      <point x="95" y="-5" type="curve" smooth="yes"/>
      <point x="135" y="-5"/>
      <point x="168" y="16"/>
      <point x="183" y="45" type="curve"/>
      <point x="223" y="13"/>
      <point x="270" y="-5"/>
      <point x="321" y="-5" type="curve" smooth="yes"/>
      <point x="500" y="-5"/>
      <point x="646" y="143"/>
      <point x="646" y="325" type="curve" smooth="yes"/>
      <point x="646" y="507"/>
      <point x="500" y="655"/>
      <point x="321" y="655" type="curve" smooth="yes"/>
      <point x="273" y="655"/>
      <point x="228" y="639"/>
    </contour>
  </outline>
</glyph>
<glyph name="c" format="1">
  <advance width="729"/>
  <unicode hex="0063"/>
  <outline>
    <contour>
      <point x="325" y="655" type="curve" smooth="yes"/>
      <point x="146" y="655"/>
      <point x="0" y="507"/>
      <point x="0" y="325" type="curve" smooth="yes"/>
      <point x="0" y="143"/>
      <point x="146" y="-5"/>
      <point x="325" y="-5" type="curve" smooth="yes"/>
      <point x="420" y="-5"/>
      <point x="501" y="23"/>
      <point x="570" y="81" type="curve"/>
      <point x="603" y="114"/>
      <point x="601" y="169"/>
      <point x="567" y="205" type="curve" smooth="yes"/>
      <point x="532" y="240"/>
      <point x="477" y="242"/>
      <point x="443" y="210" type="curve"/>
      <point x="409" y="184"/>
      <point x="370" y="170"/>
      <point x="325" y="170" type="curve" smooth="yes"/>
      <point x="253" y="170"/>
      <point x="194" y="240"/>
      <point x="194" y="325" type="curve" smooth="yes"/>
      <point x="194" y="410"/>
      <point x="253" y="480"/>
      <point x="325" y="480" type="curve" smooth="yes"/>
      <point x="370" y="480"/>
      <point x="409" y="466"/>
      <point x="443" y="440" type="curve"/>
      <point x="477" y="408"/>
      <point x="532" y="410"/>
      <point x="567" y="445" type="curve" smooth="yes"/>
      <point x="601" y="481"/>
      <point x="603" y="536"/>
      <point x="570" y="569" type="curve"/>
      <point x="501" y="627"/>
      <point x="420" y="655"/>
    </contour>
  </outline>
</glyph>
<glyph name="f" format="1">
  <advance width="725"/>
  <unicode hex="0066"/>
  <outline>
    <contour>
      <point x="156" y="474" type="line"/>
      <point x="156" y="77" type="line" smooth="yes"/>
      <point x="156" y="31"/>
      <point x="199" y="-5"/>
      <point x="251" y="-5" type="curve" smooth="yes"/>
      <point x="304" y="-5"/>
      <point x="346" y="31"/>
      <point x="346" y="77" type="curve" smooth="yes"/>
      <point x="346" y="474" type="line"/>
      <point x="446" y="474" type="line" smooth="yes"/>
      <point x="495" y="474"/>
      <point x="535" y="514"/>
      <point x="535" y="562" type="curve" smooth="yes"/>
      <point x="535" y="611"/>
      <point x="495" y="650"/>
      <point x="446" y="650" type="curve" smooth="yes"/>
      <point x="346" y="650" type="line"/>
      <point x="346" y="752" type="line" smooth="yes"/>
      <point x="346" y="777"/>
      <point x="360" y="799"/>
      <point x="386" y="815" type="curve" smooth="yes"/>
      <point x="412" y="830"/>
      <point x="443" y="834"/>
      <point x="474" y="826" type="curve"/>
      <point x="519" y="810"/>
      <point x="568" y="835"/>
      <point x="585" y="881" type="curve" smooth="yes"/>
      <point x="601" y="927"/>
      <point x="577" y="977"/>
      <point x="532" y="993" type="curve"/>
      <point x="442" y="1019"/>
      <point x="352" y="1006"/>
      <point x="275" y="957" type="curve" smooth="yes"/>
      <point x="198" y="907"/>
      <point x="156" y="836"/>
      <point x="156" y="752" type="curve" smooth="yes"/>
      <point x="156" y="650" type="line"/>
      <point x="89" y="650" type="line" smooth="yes"/>
      <point x="40" y="650"/>
      <point x="0" y="611"/>
      <point x="0" y="562" type="curve" smooth="yes"/>
      <point x="0" y="514"/>
      <point x="40" y="474"/>
      <point x="89" y="474" type="curve" smooth="yes"/>
    </contour>
  </outline>
</glyph>
<glyph name="h" format="1">
  <advance width="707"/>
  <unicode hex="0068"/>
  <outline>
    <contour>
      <point x="0" y="77" type="line" smooth="yes"/>
      <point x="0" y="31"/>
      <point x="43" y="-5"/>
      <point x="95" y="-5" type="curve" smooth="yes"/>
      <point x="147" y="-5"/>
      <point x="190" y="31"/>
      <point x="190" y="77" type="curve" smooth="yes"/>
      <point x="190" y="455" type="line"/>
      <point x="190" y="455"/>
      <point x="247" y="514"/>
      <point x="317" y="514" type="curve" smooth="yes"/>
      <point x="353" y="514"/>
      <point x="382" y="487"/>
      <point x="382" y="455" type="curve" smooth="yes"/>
      <point x="382" y="77" type="line" smooth="yes"/>
      <point x="382" y="31"/>
      <point x="425" y="-5"/>
      <point x="477" y="-5" type="curve" smooth="yes"/>
      <point x="529" y="-5"/>
      <point x="572" y="31"/>
      <point x="572" y="77" type="curve" smooth="yes"/>
      <point x="572" y="455" type="line" smooth="yes"/>
      <point x="572" y="563"/>
      <point x="475" y="650"/>
      <point x="355" y="650" type="curve" smooth="yes"/>
      <point x="293" y="650"/>
      <point x="236" y="627"/>
      <point x="190" y="596" type="curve"/>
      <point x="190" y="923" type="line" smooth="yes"/>
      <point x="190" y="969"/>
      <point x="147" y="1005"/>
      <point x="95" y="1005" type="curve" smooth="yes"/>
      <point x="43" y="1005"/>
      <point x="0" y="969"/>
      <point x="0" y="923" type="curve" smooth="yes"/>
    </contour>
  </outline>
</glyph>
<glyph name="i" format="1">
  <advance width="325"/>
  <unicode hex="0069"/>
  <outline>
    <contour>
      <point x="190" y="573" type="line" smooth="yes"/>
      <point x="190" y="619"/>
      <point x="147" y="655"/>
      <point x="95" y="655" type="curve" smooth="yes"/>
      <point x="43" y="655"/>
      <point x="0" y="619"/>
      <point x="0" y="573" type="curve" smooth="yes"/>
      <point x="0" y="77" type="line" smooth="yes"/>
      <point x="0" y="31"/>
      <point x="43" y="-5"/>
      <point x="95" y="-5" type="curve" smooth="yes"/>
      <point x="147" y="-5"/>
      <point x="190" y="31"/>
      <point x="190" y="77" type="curve" smooth="yes"/>
    </contour>
    <contour>
      <point x="190" y="849" type="line" smooth="yes"/>
      <point x="190" y="894"/>
      <point x="147" y="931"/>
      <point x="95" y="931" type="curve" smooth="yes"/>
      <point x="43" y="931"/>
      <point x="0" y="894"/>
      <point x="0" y="849" type="curve" smooth="yes"/>
      <point x="0" y="837" type="line" smooth="yes"/>
      <point x="0" y="792"/>
      <point x="43" y="755"/>
      <point x="95" y="755" type="curve" smooth="yes"/>
      <point x="147" y="755"/>
      <point x="190" y="792"/>
      <point x="190" y="837" type="curve" smooth="yes"/>
    </contour>
  </outline>
</glyph>
<glyph name="j" format="1">
  <advance width="565"/>
  <unicode hex="006A"/>
  <outline>
    <contour>
      <point x="430" y="573" type="line" smooth="yes"/>
      <point x="430" y="619"/>
      <point x="387" y="655"/>
      <point x="335" y="655" type="curve" smooth="yes"/>
      <point x="282" y="655"/>
      <point x="240" y="619"/>
      <point x="240" y="573" type="curve" smooth="yes"/>
      <point x="240" y="-86" type="line" smooth="yes"/>
      <point x="240" y="-104"/>
      <point x="228" y="-119"/>
      <point x="209" y="-126" type="curve" smooth="yes"/>
      <point x="190" y="-133"/>
      <point x="169" y="-130"/>
      <point x="154" y="-117" type="curve"/>
      <point x="122" y="-84"/>
      <point x="67" y="-84"/>
      <point x="30" y="-118" type="curve" smooth="yes"/>
      <point x="-6" y="-151"/>
      <point x="-10" y="-206"/>
      <point x="21" y="-241" type="curve"/>
      <point x="90" y="-305"/>
      <point x="190" y="-323"/>
      <point x="282" y="-289" type="curve" smooth="yes"/>
      <point x="373" y="-254"/>
      <point x="430" y="-177"/>
      <point x="430" y="-86" type="curve" smooth="yes"/>
    </contour>
    <contour>
      <point x="430" y="849" type="line" smooth="yes"/>
      <point x="430" y="894"/>
      <point x="387" y="931"/>
      <point x="335" y="931" type="curve" smooth="yes"/>
      <point x="282" y="931"/>
      <point x="240" y="894"/>
      <point x="240" y="849" type="curve" smooth="yes"/>
      <point x="240" y="837" type="line" smooth="yes"/>
      <point x="240" y="792"/>
      <point x="282" y="755"/>
      <point x="335" y="755" type="curve" smooth="yes"/>
      <point x="387" y="755"/>
      <point x="430" y="792"/>
      <point x="430" y="837" type="curve" smooth="yes"/>
    </contour>
  </outline>
</glyph>
<glyph name="k" format="1">
  <advance width="721"/>
  <unicode hex="006B"/>
  <outline>
    <contour>
      <point x="0" y="77" type="line" smooth="yes"/>
      <point x="0" y="31"/>
      <point x="43" y="-5"/>
      <point x="95" y="-5" type="curve" smooth="yes"/>
      <point x="147" y="-5"/>
      <point x="190" y="31"/>
      <point x="190" y="77" type="curve" smooth="yes"/>
      <point x="190" y="197" type="line"/>
      <point x="246" y="243" type="line"/>
      <point x="428" y="23" type="line" smooth="yes"/>
      <point x="457" y="-12"/>
      <point x="512" y="-15"/>
      <point x="551" y="17" type="curve" smooth="yes"/>
      <point x="589" y="49"/>
      <point x="596" y="103"/>
      <point x="567" y="139" type="curve" smooth="yes"/>
      <point x="385" y="358" type="line"/>
      <point x="556" y="499" type="line" smooth="yes"/>
      <point x="580" y="519"/>
      <point x="590" y="548"/>
      <point x="583" y="580" type="curve" smooth="yes"/>
      <point x="577" y="612"/>
      <point x="556" y="637"/>
      <point x="526" y="649" type="curve" smooth="yes"/>
      <point x="496" y="661"/>
      <point x="465" y="657"/>
      <point x="442" y="637" type="curve" smooth="yes"/>
      <point x="190" y="429" type="line"/>
      <point x="190" y="923" type="line" smooth="yes"/>
      <point x="190" y="969"/>
      <point x="147" y="1005"/>
      <point x="95" y="1005" type="curve" smooth="yes"/>
      <point x="43" y="1005"/>
      <point x="0" y="969"/>
      <point x="0" y="923" type="curve" smooth="yes"/>
    </contour>
  </outline>
</glyph>
<glyph name="m" format="1">
  <advance width="1089"/>
  <unicode hex="006D"/>
  <outline>
    <contour>
      <point x="0" y="77" type="line" smooth="yes"/>
      <point x="0" y="31"/>
      <point x="43" y="-5"/>
      <point x="95" y="-5" type="curve" smooth="yes"/>
      <point x="147" y="-5"/>
      <point x="190" y="31"/>
      <point x="190" y="77" type="curve" smooth="yes"/>
      <point x="190" y="455" type="line"/>
      <point x="190" y="455"/>
      <point x="247" y="514"/>
      <point x="317" y="514" type="curve" smooth="yes"/>
      <point x="353" y="514"/>
      <point x="382" y="487"/>
      <point x="382" y="455" type="curve" smooth="yes"/>
      <point x="382" y="77" type="line" smooth="yes"/>
      <point x="382" y="31"/>
      <point x="425" y="-5"/>
      <point x="477" y="-5" type="curve" smooth="yes"/>
      <point x="529" y="-5"/>
      <point x="572" y="31"/>
      <point x="572" y="77" type="curve" smooth="yes"/>
      <point x="572" y="455" type="line"/>
      <point x="572" y="455"/>
      <point x="629" y="514"/>
      <point x="699" y="514" type="curve" smooth="yes"/>
      <point x="735" y="514"/>
      <point x="764" y="487"/>
      <point x="764" y="455" type="curve" smooth="yes"/>
      <point x="764" y="77" type="line" smooth="yes"/>
      <point x="764" y="31"/>
      <point x="807" y="-5"/>
      <point x="859" y="-5" type="curve" smooth="yes"/>
      <point x="911" y="-5"/>
      <point x="954" y="31"/>
      <point x="954" y="77" type="curve" smooth="yes"/>
      <point x="954" y="455" type="line" smooth="yes"/>
      <point x="954" y="563"/>
      <point x="857" y="650"/>
      <point x="737" y="650" type="curve" smooth="yes"/>
      <point x="657" y="650"/>
      <point x="584" y="611"/>
      <point x="533" y="567" type="curve"/>
      <point x="494" y="617"/>
      <point x="429" y="650"/>
      <point x="355" y="650" type="curve" smooth="yes"/>
      <point x="292" y="650"/>
      <point x="234" y="626"/>
      <point x="187" y="594" type="curve"/>
      <point x="176" y="629"/>
      <point x="139" y="655"/>
      <point x="95" y="655" type="curve" smooth="yes"/>
      <point x="43" y="655"/>
      <point x="0" y="619"/>
      <point x="0" y="573" type="curve" smooth="yes"/>
    </contour>
  </outline>
</glyph>
<glyph name="n" format="1">
  <advance width="707"/>
  <unicode hex="006E"/>
  <outline>
    <contour>
      <point x="0" y="77" type="line" smooth="yes"/>
      <point x="0" y="31"/>
      <point x="43" y="-5"/>
      <point x="95" y="-5" type="curve" smooth="yes"/>
      <point x="147" y="-5"/>
      <point x="190" y="31"/>
      <point x="190" y="77" type="curve" smooth="yes"/>
      <point x="190" y="455" type="line"/>
      <point x="190" y="455"/>
      <point x="247" y="514"/>
      <point x="317" y="514" type="curve" smooth="yes"/>
      <point x="353" y="514"/>
      <point x="382" y="487"/>
      <point x="382" y="455" type="curve" smooth="yes"/>
      <point x="382" y="77" type="line" smooth="yes"/>
      <point x="382" y="31"/>
      <point x="425" y="-5"/>
      <point x="477" y="-5" type="curve" smooth="yes"/>
      <point x="529" y="-5"/>
      <point x="572" y="31"/>
      <point x="572" y="77" type="curve" smooth="yes"/>
      <point x="572" y="455" type="line" smooth="yes"/>
      <point x="572" y="563"/>
      <point x="475" y="650"/>
      <point x="355" y="650" type="curve" smooth="yes"/>
      <point x="292" y="650"/>
      <point x="234" y="626"/>
      <point x="187" y="594" type="curve"/>
      <point x="176" y="629"/>
      <point x="139" y="655"/>
      <point x="95" y="655" type="curve" smooth="yes"/>
      <point x="43" y="655"/>
      <point x="0" y="619"/>
      <point x="0" y="573" type="curve" smooth="yes"/>
    </contour>
  </outline>
</glyph>
<glyph name="q" format="1">
  <advance width="781"/>
  <unicode hex="0071"/>
  <outline>
    <contour>
      <point x="456" y="325" type="curve" smooth="yes"/>
      <point x="456" y="240"/>
      <point x="397" y="170"/>
      <point x="325" y="170" type="curve" smooth="yes"/>
      <point x="253" y="170"/>
      <point x="194" y="240"/>
      <point x="194" y="325" type="curve" smooth="yes"/>
      <point x="194" y="410"/>
      <point x="253" y="480"/>
      <point x="325" y="480" type="curve" smooth="yes"/>
      <point x="397" y="480"/>
      <point x="456" y="410"/>
    </contour>
    <contour>
      <point x="456" y="40" type="curve"/>
      <point x="456" y="-223" type="line" smooth="yes"/>
      <point x="456" y="-269"/>
      <point x="498" y="-305"/>
      <point x="551" y="-305" type="curve" smooth="yes"/>
      <point x="603" y="-305"/>
      <point x="646" y="-269"/>
      <point x="646" y="-223" type="curve" smooth="yes"/>
      <point x="646" y="573" type="line" smooth="yes"/>
      <point x="646" y="619"/>
      <point x="603" y="655"/>
      <point x="551" y="655" type="curve" smooth="yes"/>
      <point x="511" y="655"/>
      <point x="478" y="634"/>
      <point x="463" y="605" type="curve"/>
      <point x="423" y="637"/>
      <point x="376" y="655"/>
      <point x="325" y="655" type="curve" smooth="yes"/>
      <point x="146" y="655"/>
      <point x="0" y="507"/>
      <point x="0" y="325" type="curve" smooth="yes"/>
      <point x="0" y="143"/>
      <point x="146" y="-5"/>
      <point x="325" y="-5" type="curve" smooth="yes"/>
      <point x="373" y="-5"/>
      <point x="417" y="11"/>
    </contour>
  </outline>
</glyph>
<glyph name="r" format="1">
  <advance width="604"/>
  <unicode hex="0072"/>
  <outline>
    <contour>
      <point x="0" y="77" type="line" smooth="yes"/>
      <point x="0" y="31"/>
      <point x="43" y="-5"/>
      <point x="95" y="-5" type="curve" smooth="yes"/>
      <point x="147" y="-5"/>
      <point x="190" y="31"/>
      <point x="190" y="77" type="curve" smooth="yes"/>
      <point x="190" y="364" type="line" smooth="yes"/>
      <point x="190" y="425"/>
      <point x="275" y="474"/>
      <point x="380" y="474" type="curve" smooth="yes"/>
      <point x="429" y="474"/>
      <point x="469" y="514"/>
      <point x="469" y="562" type="curve" smooth="yes"/>
      <point x="469" y="611"/>
      <point x="429" y="650"/>
      <point x="380" y="650" type="curve" smooth="yes"/>
      <point x="275" y="650"/>
      <point x="190" y="601"/>
      <point x="190" y="540" type="curve"/>
      <point x="190" y="573" type="line" smooth="yes"/>
      <point x="190" y="619"/>
      <point x="147" y="655"/>
      <point x="95" y="655" type="curve" smooth="yes"/>
      <point x="43" y="655"/>
      <point x="0" y="619"/>
      <point x="0" y="573" type="curve" smooth="yes"/>
    </contour>
  </outline>
</glyph>
<glyph name="t" format="1">
  <advance width="670"/>
  <unicode hex="0074"/>
  <outline>
    <contour>
      <point x="156" y="650" type="line"/>
      <point x="89" y="650" type="line" smooth="yes"/>
      <point x="40" y="650"/>
      <point x="0" y="611"/>
      <point x="0" y="562" type="curve" smooth="yes"/>
      <point x="0" y="514"/>
      <point x="40" y="474"/>
      <point x="89" y="474" type="curve" smooth="yes"/>
      <point x="156" y="474" type="line"/>
      <point x="156" y="201" type="line" smooth="yes"/>
      <point x="156" y="132"/>
      <point x="188" y="74"/>
      <point x="248" y="34" type="curve" smooth="yes"/>
      <point x="307" y="-6"/>
      <point x="377" y="-16"/>
      <point x="447" y="5" type="curve"/>
      <point x="492" y="21"/>
      <point x="516" y="71"/>
      <point x="499" y="117" type="curve" smooth="yes"/>
      <point x="483" y="163"/>
      <point x="434" y="187"/>
      <point x="389" y="172" type="curve"/>
      <point x="378" y="169"/>
      <point x="368" y="170"/>
      <point x="359" y="176" type="curve"/>
      <point x="351" y="182"/>
      <point x="346" y="191"/>
      <point x="346" y="201" type="curve" smooth="yes"/>
      <point x="346" y="474" type="line"/>
      <point x="446" y="474" type="line" smooth="yes"/>
      <point x="495" y="474"/>
      <point x="535" y="514"/>
      <point x="535" y="562" type="curve" smooth="yes"/>
      <point x="535" y="611"/>
      <point x="495" y="650"/>
      <point x="446" y="650" type="curve" smooth="yes"/>
      <point x="346" y="650" type="line"/>
      <point x="346" y="768" type="line" smooth="yes"/>
      <point x="346" y="814"/>
      <point x="304" y="850"/>
      <point x="251" y="850" type="curve" smooth="yes"/>
      <point x="199" y="850"/>
      <point x="156" y="814"/>
      <point x="156" y="768" type="curve" smooth="yes"/>
    </contour>
  </outline>
</glyph>
<glyph name="v" format="1">
  <advance width="750"/>
  <unicode hex="0076"/>
  <outline>
    <contour>
      <point x="205" y="53" type="line" smooth="yes"/>
      <point x="220" y="18"/>
      <point x="258" y="-5"/>
      <point x="302" y="-5" type="curve" smooth="yes"/>
      <point x="346" y="-6"/>
      <point x="384" y="17"/>
      <point x="400" y="52" type="curve" smooth="yes"/>
      <point x="609" y="542" type="line" smooth="yes"/>
      <point x="626" y="584"/>
      <point x="602" y="632"/>
      <point x="553" y="649" type="curve" smooth="yes"/>
      <point x="504" y="666"/>
      <point x="451" y="646"/>
      <point x="433" y="604" type="curve" smooth="yes"/>
      <point x="304" y="277" type="line"/>
      <point x="182" y="603" type="line" smooth="yes"/>
      <point x="165" y="646"/>
      <point x="111" y="666"/>
      <point x="63" y="650" type="curve" smooth="yes"/>
      <point x="14" y="633"/>
      <point x="-12" y="585"/>
      <point x="5" y="543" type="curve" smooth="yes"/>
    </contour>
  </outline>
</glyph>
<glyph name="w" format="1">
  <advance width="1081"/>
  <unicode hex="0077"/>
  <outline>
    <contour>
      <point x="180" y="57" type="line" smooth="yes"/>
      <point x="194" y="19"/>
      <point x="233" y="-5"/>
      <point x="279" y="-5" type="curve" smooth="yes"/>
      <point x="325" y="-5"/>
      <point x="364" y="19"/>
      <point x="378" y="57" type="curve" smooth="yes"/>
      <point x="473" y="347" type="line"/>
      <point x="567" y="57" type="line"/>
      <point x="582" y="19"/>
      <point x="620" y="-5"/>
      <point x="667" y="-5" type="curve" smooth="yes"/>
      <point x="713" y="-5"/>
      <point x="751" y="19"/>
      <point x="766" y="57" type="curve" smooth="yes"/>
      <point x="941" y="546" type="line" smooth="yes"/>
      <point x="957" y="589"/>
      <point x="929" y="636"/>
      <point x="879" y="651" type="curve" smooth="yes"/>
      <point x="830" y="666"/>
      <point x="777" y="643"/>
      <point x="762" y="600" type="curve" smooth="yes"/>
      <point x="666" y="306" type="line"/>
      <point x="572" y="593" type="line" smooth="yes"/>
      <point x="558" y="631"/>
      <point x="519" y="655"/>
      <point x="473" y="655" type="curve" smooth="yes"/>
      <point x="427" y="655"/>
      <point x="388" y="631"/>
      <point x="373" y="593" type="curve"/>
      <point x="280" y="306" type="line"/>
      <point x="184" y="600" type="line" smooth="yes"/>
      <point x="168" y="643"/>
      <point x="116" y="666"/>
      <point x="66" y="651" type="curve" smooth="yes"/>
      <point x="17" y="636"/>
      <point x="-11" y="589"/>
      <point x="4" y="546" type="curve" smooth="yes"/>
    </contour>
  </outline>
</glyph>
<glyph name="x" format="1">
  <advance width="750"/>
  <unicode hex="0078"/>
  <outline>
    <contour>
      <point x="307" y="187" type="line"/>
      <point x="443" y="28" type="line" smooth="yes"/>
      <point x="474" y="-8"/>
      <point x="533" y="-16"/>
      <point x="576" y="11" type="curve" smooth="yes"/>
      <point x="618" y="38"/>
      <point x="627" y="89"/>
      <point x="596" y="125" type="curve" smooth="yes"/>
      <point x="425" y="325" type="line"/>
      <point x="596" y="525" type="line" smooth="yes"/>
      <point x="627" y="561"/>
      <point x="618" y="612"/>
      <point x="576" y="639" type="curve" smooth="yes"/>
      <point x="533" y="666"/>
      <point x="474" y="658"/>
      <point x="443" y="622" type="curve" smooth="yes"/>
      <point x="307" y="463" type="line"/>
      <point x="171" y="622" type="line" smooth="yes"/>
      <point x="140" y="658"/>
      <point x="81" y="666"/>
      <point x="39" y="639" type="curve" smooth="yes"/>
      <point x="-4" y="612"/>
      <point x="-13" y="561"/>
      <point x="19" y="525" type="curve" smooth="yes"/>
      <point x="189" y="325" type="line"/>
      <point x="19" y="125" type="line" smooth="yes"/>
      <point x="-13" y="89"/>
      <point x="-4" y="38"/>
      <point x="39" y="11" type="curve" smooth="yes"/>
      <point x="81" y="-16"/>
      <point x="140" y="-8"/>
      <point x="171" y="28" type="curve" smooth="yes"/>
    </contour>
  </outline>
</glyph>
<glyph name="y" format="1">
  <advance width="745"/>
  <unicode hex="0079"/>
  <outline>
    <contour>
      <point x="74" y="-188" type="line" smooth="yes"/>
      <point x="62" y="-215"/>
      <point x="67" y="-245"/>
      <point x="88" y="-270" type="curve" smooth="yes"/>
      <point x="109" y="-295"/>
      <point x="141" y="-308"/>
      <point x="174" y="-305" type="curve" smooth="yes"/>
      <point x="208" y="-302"/>
      <point x="234" y="-285"/>
      <point x="247" y="-257" type="curve" smooth="yes"/>
      <point x="603" y="538" type="line" smooth="yes"/>
      <point x="622" y="579"/>
      <point x="598" y="628"/>
      <point x="551" y="648" type="curve" smooth="yes"/>
      <point x="503" y="667"/>
      <point x="450" y="649"/>
      <point x="431" y="607" type="curve" smooth="yes"/>
      <point x="305" y="327" type="line"/>
      <point x="179" y="607" type="line" smooth="yes"/>
      <point x="167" y="635"/>
      <point x="140" y="652"/>
      <point x="107" y="655" type="curve" smooth="yes"/>
      <point x="73" y="658"/>
      <point x="42" y="645"/>
      <point x="21" y="620" type="curve" smooth="yes"/>
      <point x="-1" y="595"/>
      <point x="-6" y="565"/>
      <point x="7" y="538" type="curve" smooth="yes"/>
      <point x="203" y="100" type="line"/>
    </contour>
  </outline>
</glyph>
<glyph name="z" format="1">
  <advance width="750"/>
  <unicode hex="007A"/>
  <outline>
    <contour>
      <point x="526" y="0" type="line" smooth="yes"/>
      <point x="575" y="0"/>
      <point x="615" y="39"/>
      <point x="615" y="88" type="curve" smooth="yes"/>
      <point x="615" y="136"/>
      <point x="575" y="176"/>
      <point x="526" y="176" type="curve" smooth="yes"/>
      <point x="289" y="176" type="line"/>
      <point x="588" y="487" type="line" smooth="yes"/>
      <point x="615" y="515"/>
      <point x="622" y="555"/>
      <point x="607" y="591" type="curve" smooth="yes"/>
      <point x="591" y="628"/>
      <point x="557" y="650"/>
      <point x="517" y="650" type="curve" smooth="yes"/>
      <point x="89" y="650" type="line" smooth="yes"/>
      <point x="40" y="650"/>
      <point x="0" y="611"/>
      <point x="0" y="562" type="curve" smooth="yes"/>
      <point x="0" y="514"/>
      <point x="40" y="474"/>
      <point x="89" y="474" type="curve" smooth="yes"/>
      <point x="326" y="474" type="line"/>
      <point x="27" y="163" type="line" smooth="yes"/>
      <point x="0" y="135"/>
      <point x="-8" y="95"/>
      <point x="8" y="59" type="curve" smooth="yes"/>
      <point x="24" y="22"/>
      <point x="58" y="0"/>
      <point x="98" y="0" type="curve" smooth="yes"/>
    </contour>
  </outline>
</glyph>
<glyph name="braceleft" format="1">
  <advance width="587"/>
  <unicode hex="007B"/>
  <outline>
    <contour>
      <point x="198" y="500" type="curve"/>
      <point x="244" y="524"/>
      <point x="279" y="566"/>
      <point x="279" y="626" type="curve" smooth="yes"/>
      <point x="279" y="841" type="line" smooth="yes"/>
      <point x="279" y="887"/>
      <point x="316" y="924"/>
      <point x="363" y="924" type="curve" smooth="yes"/>
      <point x="412" y="924"/>
      <point x="451" y="964"/>
      <point x="451" y="1012" type="curve" smooth="yes"/>
      <point x="451" y="1061"/>
      <point x="412" y="1100"/>
      <point x="363" y="1100" type="curve" smooth="yes"/>
      <point x="219" y="1100"/>
      <point x="127" y="971"/>
      <point x="127" y="841" type="curve" smooth="yes"/>
      <point x="127" y="626" type="line" smooth="yes"/>
      <point x="127" y="605"/>
      <point x="110" y="588"/>
      <point x="89" y="588" type="curve" smooth="yes"/>
      <point x="40" y="588"/>
      <point x="0" y="549"/>
      <point x="0" y="500" type="curve" smooth="yes"/>
      <point x="0" y="451"/>
      <point x="40" y="412"/>
      <point x="89" y="412" type="curve" smooth="yes"/>
      <point x="110" y="412"/>
      <point x="127" y="395"/>
      <point x="127" y="374" type="curve" smooth="yes"/>
      <point x="127" y="159" type="line" smooth="yes"/>
      <point x="127" y="29"/>
      <point x="219" y="-100"/>
      <point x="363" y="-100" type="curve" smooth="yes"/>
      <point x="412" y="-100"/>
      <point x="451" y="-61"/>
      <point x="451" y="-12" type="curve" smooth="yes"/>
      <point x="451" y="36"/>
      <point x="412" y="76"/>
      <point x="363" y="76" type="curve" smooth="yes"/>
      <point x="316" y="76"/>
      <point x="279" y="113"/>
      <point x="279" y="159" type="curve" smooth="yes"/>
      <point x="279" y="374" type="line" smooth="yes"/>
      <point x="279" y="434"/>
      <point x="244" y="476"/>
    </contour>
  </outline>
</glyph>
<glyph name="bar" format="1">
  <advance width="325"/>
  <unicode hex="007C"/>
  <outline>
    <contour>
      <point x="190" y="1023" type="line" smooth="yes"/>
      <point x="190" y="1069"/>
      <point x="147" y="1105"/>
      <point x="95" y="1105" type="curve" smooth="yes"/>
      <point x="43" y="1105"/>
      <point x="0" y="1069"/>
      <point x="0" y="1023" type="curve" smooth="yes"/>
      <point x="0" y="-23" type="line" smooth="yes"/>
      <point x="0" y="-69"/>
      <point x="43" y="-105"/>
      <point x="95" y="-105" type="curve" smooth="yes"/>
      <point x="147" y="-105"/>
      <point x="190" y="-69"/>
      <point x="190" y="-23" type="curve" smooth="yes"/>
    </contour>
  </outline>
</glyph>
<glyph name="braceright" format="1">
  <advance width="587"/>
  <unicode hex="007D"/>
  <outline>
    <contour>
      <point x="253" y="500" type="curve"/>
      <point x="207" y="476"/>
      <point x="172" y="434"/>
      <point x="172" y="374" type="curve" smooth="yes"/>
      <point x="172" y="159" type="line" smooth="yes"/>
      <point x="172" y="113"/>
      <point x="135" y="76"/>
      <point x="89" y="76" type="curve" smooth="yes"/>
      <point x="40" y="76"/>
      <point x="0" y="36"/>
      <point x="0" y="-12" type="curve" smooth="yes"/>
      <point x="0" y="-61"/>
      <point x="40" y="-100"/>
      <point x="89" y="-100" type="curve" smooth="yes"/>
      <point x="232" y="-100"/>
      <point x="324" y="29"/>
      <point x="324" y="159" type="curve" smooth="yes"/>
      <point x="324" y="374" type="line" smooth="yes"/>
      <point x="324" y="395"/>
      <point x="341" y="412"/>
      <point x="363" y="412" type="curve" smooth="yes"/>
      <point x="412" y="412"/>
      <point x="451" y="451"/>
      <point x="451" y="500" type="curve" smooth="yes"/>
      <point x="451" y="549"/>
      <point x="412" y="588"/>
      <point x="363" y="588" type="curve" smooth="yes"/>
      <point x="341" y="588"/>
      <point x="324" y="605"/>
      <point x="324" y="626" type="curve" smooth="yes"/>
      <point x="324" y="841" type="line" smooth="yes"/>
      <point x="324" y="971"/>
      <point x="232" y="1100"/>
      <point x="89" y="1100" type="curve" smooth="yes"/>
      <point x="40" y="1100"/>
      <point x="0" y="1061"/>
      <point x="0" y="1012" type="curve" smooth="yes"/>
      <point x="0" y="964"/>
      <point x="40" y="924"/>
      <point x="89" y="924" type="curve" smooth="yes"/>
      <point x="135" y="924"/>
      <point x="172" y="887"/>
      <point x="172" y="841" type="curve" smooth="yes"/>
      <point x="172" y="626" type="line" smooth="yes"/>
      <point x="172" y="566"/>
      <point x="207" y="524"/>
    </contour>
  </outline>
</glyph>
<glyph name="asciitilde" format="1">
  <advance width="686"/>
  <unicode hex="007E"/>
  <outline>
    <contour>
      <point x="146" y="447" type="curve" smooth="yes"/>
      <point x="168" y="487"/>
      <point x="218" y="444"/>
      <point x="234" y="435" type="curve" smooth="yes"/>
      <point x="332" y="381"/>
      <point x="478" y="381"/>
      <point x="542" y="497" type="curve" smooth="yes"/>
      <point x="555" y="520"/>
      <point x="553" y="546"/>
      <point x="537" y="570" type="curve" smooth="yes"/>
      <point x="522" y="594"/>
      <point x="497" y="607"/>
      <point x="468" y="608" type="curve" smooth="yes"/>
      <point x="440" y="609"/>
      <point x="417" y="596"/>
      <point x="404" y="573" type="curve" smooth="yes"/>
      <point x="382" y="533"/>
      <point x="332" y="576"/>
      <point x="316" y="585" type="curve" smooth="yes"/>
      <point x="218" y="639"/>
      <point x="72" y="639"/>
      <point x="8" y="523" type="curve" smooth="yes"/>
      <point x="-11" y="488"/>
      <point x="5" y="444"/>
      <point x="43" y="423" type="curve" smooth="yes"/>
      <point x="81" y="402"/>
      <point x="127" y="413"/>
    </contour>
  </outline>
</glyph>
<glyph name="exclamdown" format="1">
  <advance width="339"/>
  <unicode hex="00A1"/>
  <outline>
    <contour>
      <point x="203" y="893" type="curve" smooth="yes"/>
      <point x="203" y="918" type="line" smooth="yes"/>
      <point x="203" y="966"/>
      <point x="158" y="1005"/>
      <point x="102" y="1005" type="curve" smooth="yes"/>
      <point x="46" y="1005"/>
      <point x="0" y="966"/>
      <point x="0" y="918" type="curve" smooth="yes"/>
      <point x="0" y="893" type="line" smooth="yes"/>
      <point x="0" y="845"/>
      <point x="46" y="806"/>
      <point x="102" y="806" type="curve" smooth="yes"/>
      <point x="158" y="806"/>
      <point x="203" y="845"/>
    </contour>
    <contour>
      <point x="203" y="82" type="curve" smooth="yes"/>
      <point x="190" y="600" type="line" smooth="yes"/>
      <point x="190" y="642"/>
      <point x="150" y="676"/>
      <point x="102" y="676" type="curve" smooth="yes"/>
      <point x="53" y="676"/>
      <point x="13" y="642"/>
      <point x="13" y="600" type="curve" smooth="yes"/>
      <point x="0" y="82" type="line" smooth="yes"/>
      <point x="0" y="34"/>
      <point x="46" y="-5"/>
      <point x="102" y="-5" type="curve" smooth="yes"/>
      <point x="158" y="-5"/>
      <point x="203" y="34"/>
    </contour>
  </outline>
</glyph>
<glyph name="dieresis" format="1">
  <advance width="672"/>
  <unicode hex="00A8"/>
  <outline>
    <contour>
      <point x="190" y="923" type="line" smooth="yes"/>
      <point x="190" y="969"/>
      <point x="147" y="1005"/>
      <point x="95" y="1005" type="curve" smooth="yes"/>
      <point x="43" y="1005"/>
      <point x="0" y="969"/>
      <point x="0" y="923" type="curve" smooth="yes"/>
      <point x="0" y="911" type="line" smooth="yes"/>
      <point x="0" y="866"/>
      <point x="43" y="830"/>
      <point x="95" y="830" type="curve" smooth="yes"/>
      <point x="147" y="830"/>
      <point x="190" y="866"/>
      <point x="190" y="911" type="curve" smooth="yes"/>
    </contour>
    <contour>
      <point x="537" y="923" type="line" smooth="yes"/>
      <point x="537" y="969"/>
      <point x="494" y="1005"/>
      <point x="442" y="1005" type="curve" smooth="yes"/>
      <point x="389" y="1005"/>
      <point x="347" y="969"/>
      <point x="347" y="923" type="curve" smooth="yes"/>
      <point x="347" y="911" type="line" smooth="yes"/>
      <point x="347" y="866"/>
      <point x="389" y="830"/>
      <point x="442" y="830" type="curve" smooth="yes"/>
      <point x="494" y="830"/>
      <point x="537" y="866"/>
      <point x="537" y="911" type="curve" smooth="yes"/>
    </contour>
  </outline>
</glyph>
<glyph name="macron" format="1">
  <advance width="635"/>
  <unicode hex="00AF"/>
  <outline>
    <contour>
      <point x="411" y="799" type="line" smooth="yes"/>
      <point x="460" y="799"/>
      <point x="500" y="839"/>
      <point x="500" y="887" type="curve" smooth="yes"/>
      <point x="500" y="936"/>
      <point x="460" y="975"/>
      <point x="411" y="975" type="curve" smooth="yes"/>
      <point x="89" y="975" type="line" smooth="yes"/>
      <point x="40" y="975"/>
      <point x="0" y="936"/>
      <point x="0" y="887" type="curve" smooth="yes"/>
      <point x="0" y="839"/>
      <point x="40" y="799"/>
      <point x="89" y="799" type="curve" smooth="yes"/>
    </contour>
  </outline>
</glyph>
<glyph name="acute" format="1">
  <advance width="437"/>
  <unicode hex="00B4"/>
  <outline>
    <contour>
      <point x="145" y="981" type="curve" smooth="yes"/>
      <point x="13" y="832" type="line" smooth="yes"/>
      <point x="-6" y="811"/>
      <point x="-4" y="777"/>
      <point x="17" y="752" type="curve" smooth="yes"/>
      <point x="38" y="727"/>
      <point x="71" y="719"/>
      <point x="95" y="734" type="curve" smooth="yes"/>
      <point x="265" y="836" type="line" smooth="yes"/>
      <point x="294" y="852"/>
      <point x="306" y="884"/>
      <point x="300" y="920" type="curve" smooth="yes"/>
      <point x="293" y="956"/>
      <point x="268" y="985"/>
      <point x="234" y="998" type="curve" smooth="yes"/>
      <point x="200" y="1012"/>
      <point x="167" y="1005"/>
    </contour>
  </outline>
</glyph>
<glyph name="periodcentered" format="1">
  <advance width="344"/>
  <unicode hex="00B7"/>
  <outline>
    <contour>
      <point x="209" y="515" type="line" smooth="yes"/>
      <point x="209" y="565"/>
      <point x="162" y="605"/>
      <point x="105" y="605" type="curve" smooth="yes"/>
      <point x="47" y="605"/>
      <point x="0" y="565"/>
      <point x="0" y="515" type="curve" smooth="yes"/>
      <point x="0" y="485" type="line" smooth="yes"/>
      <point x="0" y="435"/>
      <point x="47" y="395"/>
      <point x="105" y="395" type="curve" smooth="yes"/>
      <point x="162" y="395"/>
      <point x="209" y="435"/>
      <point x="209" y="485" type="curve" smooth="yes"/>
    </contour>
  </outline>
</glyph>
<glyph name="Agrave" format="1">
  <advance width="993"/>
  <unicode hex="00C0"/>
  <outline>
    <contour>
      <point x="322" y="408" type="line"/>
      <point x="429" y="688" type="line"/>
      <point x="536" y="408" type="line"/>
    </contour>
    <contour>
      <point x="672" y="51" type="line" smooth="yes"/>
      <point x="689" y="8"/>
      <point x="742" y="-15"/>
      <point x="792" y="-1" type="curve" smooth="yes"/>
      <point x="842" y="13"/>
      <point x="869" y="59"/>
      <point x="853" y="102" type="curve" smooth="yes"/>
      <point x="532" y="941" type="line" smooth="yes"/>
      <point x="517" y="980"/>
      <point x="477" y="1005"/>
      <point x="429" y="1005" type="curve" smooth="yes"/>
      <point x="381" y="1005"/>
      <point x="340" y="980"/>
      <point x="325" y="941" type="curve" smooth="yes"/>
      <point x="5" y="102" type="line" smooth="yes"/>
      <point x="-12" y="59"/>
      <point x="15" y="13"/>
      <point x="65" y="-1" type="curve" smooth="yes"/>
      <point x="115" y="-15"/>
      <point x="169" y="8"/>
      <point x="185" y="51" type="curve" smooth="yes"/>
      <point x="254" y="232" type="line"/>
      <point x="603" y="232" type="line"/>
    </contour>
    <contour>
      <point x="372" y="1337" type="line" smooth="yes"/>
      <point x="350" y="1361"/>
      <point x="317" y="1368"/>
      <point x="283" y="1354" type="curve" smooth="yes"/>
      <point x="249" y="1341"/>
      <point x="225" y="1312"/>
      <point x="218" y="1276" type="curve" smooth="yes"/>
      <point x="211" y="1240"/>
      <point x="224" y="1208"/>
      <point x="252" y="1192" type="curve" smooth="yes"/>
      <point x="422" y="1090" type="line" smooth="yes"/>
      <point x="447" y="1075"/>
      <point x="480" y="1083"/>
      <point x="501" y="1108" type="curve" smooth="yes"/>
      <point x="521" y="1133"/>
      <point x="523" y="1167"/>
      <point x="504" y="1188" type="curve" smooth="yes"/>
    </contour>
  </outline>
</glyph>
<glyph name="Aacute" format="1">
  <advance width="993"/>
  <unicode hex="00C1"/>
  <outline>
    <contour>
      <point x="322" y="408" type="line"/>
      <point x="429" y="688" type="line"/>
      <point x="536" y="408" type="line"/>
    </contour>
    <contour>
      <point x="672" y="51" type="line" smooth="yes"/>
      <point x="689" y="8"/>
      <point x="742" y="-15"/>
      <point x="792" y="-1" type="curve" smooth="yes"/>
      <point x="842" y="13"/>
      <point x="869" y="59"/>
      <point x="853" y="102" type="curve" smooth="yes"/>
      <point x="532" y="941" type="line" smooth="yes"/>
      <point x="517" y="980"/>
      <point x="477" y="1005"/>
      <point x="429" y="1005" type="curve" smooth="yes"/>
      <point x="381" y="1005"/>
      <point x="340" y="980"/>
      <point x="325" y="941" type="curve" smooth="yes"/>
      <point x="5" y="102" type="line" smooth="yes"/>
      <point x="-12" y="59"/>
      <point x="15" y="13"/>
      <point x="65" y="-1" type="curve" smooth="yes"/>
      <point x="115" y="-15"/>
      <point x="169" y="8"/>
      <point x="185" y="51" type="curve" smooth="yes"/>
      <point x="254" y="232" type="line"/>
      <point x="603" y="232" type="line"/>
    </contour>
    <contour>
      <point x="486" y="1337" type="curve" smooth="yes"/>
      <point x="353" y="1188" type="line" smooth="yes"/>
      <point x="334" y="1167"/>
      <point x="336" y="1133"/>
      <point x="357" y="1108" type="curve" smooth="yes"/>
      <point x="378" y="1083"/>
      <point x="411" y="1075"/>
      <point x="435" y="1090" type="curve" smooth="yes"/>
      <point x="606" y="1192" type="line" smooth="yes"/>
      <point x="634" y="1208"/>
      <point x="646" y="1240"/>
      <point x="640" y="1276" type="curve" smooth="yes"/>
      <point x="633" y="1312"/>
      <point x="608" y="1341"/>
      <point x="575" y="1354" type="curve" smooth="yes"/>
      <point x="541" y="1368"/>
      <point x="507" y="1361"/>
    </contour>
  </outline>
</glyph>
<glyph name="Acircumflex" format="1">
  <advance width="993"/>
  <unicode hex="00C2"/>
  <outline>
    <contour>
      <point x="322" y="408" type="line"/>
      <point x="429" y="688" type="line"/>
      <point x="536" y="408" type="line"/>
    </contour>
    <contour>
      <point x="672" y="51" type="line" smooth="yes"/>
      <point x="689" y="8"/>
      <point x="742" y="-15"/>
      <point x="792" y="-1" type="curve" smooth="yes"/>
      <point x="842" y="13"/>
      <point x="869" y="59"/>
      <point x="853" y="102" type="curve" smooth="yes"/>
      <point x="532" y="941" type="line" smooth="yes"/>
      <point x="517" y="980"/>
      <point x="477" y="1005"/>
      <point x="429" y="1005" type="curve" smooth="yes"/>
      <point x="381" y="1005"/>
      <point x="340" y="980"/>
      <point x="325" y="941" type="curve" smooth="yes"/>
      <point x="5" y="102" type="line" smooth="yes"/>
      <point x="-12" y="59"/>
      <point x="15" y="13"/>
      <point x="65" y="-1" type="curve" smooth="yes"/>
      <point x="115" y="-15"/>
      <point x="169" y="8"/>
      <point x="185" y="51" type="curve" smooth="yes"/>
      <point x="254" y="232" type="line"/>
      <point x="603" y="232" type="line"/>
    </contour>
    <contour>
      <point x="225" y="1224" type="line" smooth="yes"/>
      <point x="211" y="1209"/>
      <point x="203" y="1189"/>
      <point x="204" y="1166" type="curve" smooth="yes"/>
      <point x="205" y="1118"/>
      <point x="246" y="1078"/>
      <point x="294" y="1076" type="curve" smooth="yes"/>
      <point x="319" y="1075"/>
      <point x="341" y="1085"/>
      <point x="356" y="1101" type="curve" smooth="yes"/>
      <point x="429" y="1180" type="line"/>
      <point x="501" y="1101" type="line" smooth="yes"/>
      <point x="516" y="1085"/>
      <point x="539" y="1075"/>
      <point x="564" y="1076" type="curve" smooth="yes"/>
      <point x="612" y="1078"/>
      <point x="652" y="1118"/>
      <point x="654" y="1166" type="curve" smooth="yes"/>
      <point x="655" y="1189"/>
      <point x="646" y="1209"/>
      <point x="633" y="1224" type="curve" smooth="yes"/>
      <point x="514" y="1352" type="line" smooth="yes"/>
      <point x="494" y="1374"/>
      <point x="463" y="1388"/>
      <point x="429" y="1388" type="curve" smooth="yes"/>
      <point x="394" y="1388"/>
      <point x="363" y="1374"/>
      <point x="343" y="1352" type="curve" smooth="yes"/>
    </contour>
  </outline>
</glyph>
<glyph name="Atilde" format="1">
  <advance width="993"/>
  <unicode hex="00C3"/>
  <outline>
    <contour>
      <point x="322" y="408" type="line"/>
      <point x="429" y="688" type="line"/>
      <point x="536" y="408" type="line"/>
    </contour>
    <contour>
      <point x="672" y="51" type="line" smooth="yes"/>
      <point x="689" y="8"/>
      <point x="742" y="-15"/>
      <point x="792" y="-1" type="curve" smooth="yes"/>
      <point x="842" y="13"/>
      <point x="869" y="59"/>
      <point x="853" y="102" type="curve" smooth="yes"/>
      <point x="532" y="941" type="line" smooth="yes"/>
      <point x="517" y="980"/>
      <point x="477" y="1005"/>
      <point x="429" y="1005" type="curve" smooth="yes"/>
      <point x="381" y="1005"/>
      <point x="340" y="980"/>
      <point x="325" y="941" type="curve" smooth="yes"/>
      <point x="5" y="102" type="line" smooth="yes"/>
      <point x="-12" y="59"/>
      <point x="15" y="13"/>
      <point x="65" y="-1" type="curve" smooth="yes"/>
      <point x="115" y="-15"/>
      <point x="169" y="8"/>
      <point x="185" y="51" type="curve" smooth="yes"/>
      <point x="254" y="232" type="line"/>
      <point x="603" y="232" type="line"/>
    </contour>
    <contour>
      <point x="325" y="1133" type="curve" smooth="yes"/>
      <point x="343" y="1165"/>
      <point x="383" y="1130"/>
      <point x="396" y="1124" type="curve"/>
      <point x="474" y="1080"/>
      <point x="591" y="1080"/>
      <point x="642" y="1173" type="curve" smooth="yes"/>
      <point x="652" y="1192"/>
      <point x="651" y="1213"/>
      <point x="638" y="1232" type="curve" smooth="yes"/>
      <point x="626" y="1250"/>
      <point x="606" y="1261"/>
      <point x="583" y="1262" type="curve" smooth="yes"/>
      <point x="561" y="1262"/>
      <point x="542" y="1252"/>
      <point x="532" y="1234" type="curve" smooth="yes"/>
      <point x="514" y="1202"/>
      <point x="474" y="1237"/>
      <point x="462" y="1244" type="curve" smooth="yes"/>
      <point x="383" y="1287"/>
      <point x="266" y="1287"/>
      <point x="215" y="1194" type="curve" smooth="yes"/>
      <point x="200" y="1166"/>
      <point x="212" y="1130"/>
      <point x="243" y="1114" type="curve" smooth="yes"/>
      <point x="273" y="1097"/>
      <point x="310" y="1106"/>
    </contour>
  </outline>
</glyph>
<glyph name="Aring" format="1">
  <advance width="993"/>
  <unicode hex="00C5"/>
  <outline>
    <contour>
      <point x="322" y="408" type="line"/>
      <point x="429" y="688" type="line"/>
      <point x="536" y="408" type="line"/>
    </contour>
    <contour>
      <point x="672" y="51" type="line" smooth="yes"/>
      <point x="689" y="8"/>
      <point x="742" y="-15"/>
      <point x="792" y="-1" type="curve" smooth="yes"/>
      <point x="842" y="13"/>
      <point x="869" y="59"/>
      <point x="853" y="102" type="curve" smooth="yes"/>
      <point x="532" y="941" type="line" smooth="yes"/>
      <point x="517" y="980"/>
      <point x="477" y="1005"/>
      <point x="429" y="1005" type="curve" smooth="yes"/>
      <point x="381" y="1005"/>
      <point x="340" y="980"/>
      <point x="325" y="941" type="curve" smooth="yes"/>
      <point x="5" y="102" type="line" smooth="yes"/>
      <point x="-12" y="59"/>
      <point x="15" y="13"/>
      <point x="65" y="-1" type="curve" smooth="yes"/>
      <point x="115" y="-15"/>
      <point x="169" y="8"/>
      <point x="185" y="51" type="curve" smooth="yes"/>
      <point x="254" y="232" type="line"/>
      <point x="603" y="232" type="line"/>
    </contour>
    <contour>
      <point x="346" y="1291" type="curve" smooth="yes"/>
      <point x="346" y="1335"/>
      <point x="383" y="1370"/>
      <point x="429" y="1370" type="curve" smooth="yes"/>
      <point x="475" y="1370"/>
      <point x="512" y="1335"/>
      <point x="512" y="1291" type="curve" smooth="yes"/>
      <point x="512" y="1247"/>
      <point x="475" y="1212"/>
      <point x="429" y="1212" type="curve" smooth="yes"/>
      <point x="383" y="1212"/>
      <point x="346" y="1247"/>
    </contour>
    <contour>
      <point x="201" y="1291" type="curve" smooth="yes"/>
      <point x="201" y="1175"/>
      <point x="303" y="1080"/>
      <point x="429" y="1080" type="curve" smooth="yes"/>
      <point x="555" y="1080"/>
      <point x="657" y="1175"/>
      <point x="657" y="1291" type="curve" smooth="yes"/>
      <point x="657" y="1408"/>
      <point x="555" y="1502"/>
      <point x="429" y="1502" type="curve" smooth="yes"/>
      <point x="303" y="1502"/>
      <point x="201" y="1408"/>
    </contour>
  </outline>
</glyph>
<glyph name="Egrave" format="1">
  <advance width="763"/>
  <unicode hex="00C8"/>
  <outline>
    <contour>
      <point x="539" y="0" type="line" smooth="yes"/>
      <point x="588" y="0"/>
      <point x="627" y="39"/>
      <point x="627" y="88" type="curve" smooth="yes"/>
      <point x="627" y="136"/>
      <point x="588" y="176"/>
      <point x="539" y="176" type="curve" smooth="yes"/>
      <point x="190" y="176" type="line"/>
      <point x="190" y="422" type="line"/>
      <point x="417" y="422" type="line" smooth="yes"/>
      <point x="466" y="422"/>
      <point x="506" y="461"/>
      <point x="506" y="510" type="curve" smooth="yes"/>
      <point x="506" y="559"/>
      <point x="466" y="598"/>
      <point x="417" y="598" type="curve" smooth="yes"/>
      <point x="190" y="598" type="line"/>
      <point x="190" y="824" type="line"/>
      <point x="539" y="824" type="line" smooth="yes"/>
      <point x="588" y="824"/>
      <point x="627" y="864"/>
      <point x="627" y="912" type="curve" smooth="yes"/>
      <point x="627" y="961"/>
      <point x="588" y="1000"/>
      <point x="539" y="1000" type="curve" smooth="yes"/>
      <point x="109" y="1000" type="line" smooth="yes"/>
      <point x="49" y="1000"/>
      <point x="0" y="958"/>
      <point x="0" y="906" type="curve" smooth="yes"/>
      <point x="0" y="94" type="line" smooth="yes"/>
      <point x="0" y="42"/>
      <point x="49" y="0"/>
      <point x="109" y="0" type="curve" smooth="yes"/>
    </contour>
    <contour>
      <point x="257" y="1337" type="line" smooth="yes"/>
      <point x="235" y="1361"/>
      <point x="202" y="1368"/>
      <point x="168" y="1354" type="curve" smooth="yes"/>
      <point x="134" y="1341"/>
      <point x="110" y="1312"/>
      <point x="103" y="1276" type="curve" smooth="yes"/>
      <point x="96" y="1240"/>
      <point x="109" y="1208"/>
      <point x="137" y="1192" type="curve" smooth="yes"/>
      <point x="307" y="1090" type="line" smooth="yes"/>
      <point x="332" y="1075"/>
      <point x="365" y="1083"/>
      <point x="386" y="1108" type="curve" smooth="yes"/>
      <point x="406" y="1133"/>
      <point x="408" y="1167"/>
      <point x="389" y="1188" type="curve" smooth="yes"/>
    </contour>
  </outline>
</glyph>
<glyph name="Eacute" format="1">
  <advance width="763"/>
  <unicode hex="00C9"/>
  <outline>
    <contour>
      <point x="539" y="0" type="line" smooth="yes"/>
      <point x="588" y="0"/>
      <point x="627" y="39"/>
      <point x="627" y="88" type="curve" smooth="yes"/>
      <point x="627" y="136"/>
      <point x="588" y="176"/>
      <point x="539" y="176" type="curve" smooth="yes"/>
      <point x="190" y="176" type="line"/>
      <point x="190" y="422" type="line"/>
      <point x="417" y="422" type="line" smooth="yes"/>
      <point x="466" y="422"/>
      <point x="506" y="461"/>
      <point x="506" y="510" type="curve" smooth="yes"/>
      <point x="506" y="559"/>
      <point x="466" y="598"/>
      <point x="417" y="598" type="curve" smooth="yes"/>
      <point x="190" y="598" type="line"/>
      <point x="190" y="824" type="line"/>
      <point x="539" y="824" type="line" smooth="yes"/>
      <point x="588" y="824"/>
      <point x="627" y="864"/>
      <point x="627" y="912" type="curve" smooth="yes"/>
      <point x="627" y="961"/>
      <point x="588" y="1000"/>
      <point x="539" y="1000" type="curve" smooth="yes"/>
      <point x="109" y="1000" type="line" smooth="yes"/>
      <point x="49" y="1000"/>
      <point x="0" y="958"/>
      <point x="0" y="906" type="curve" smooth="yes"/>
      <point x="0" y="94" type="line" smooth="yes"/>
      <point x="0" y="42"/>
      <point x="49" y="0"/>
      <point x="109" y="0" type="curve" smooth="yes"/>
    </contour>
    <contour>
      <point x="370" y="1337" type="curve" smooth="yes"/>
      <point x="238" y="1188" type="line" smooth="yes"/>
      <point x="219" y="1167"/>
      <point x="221" y="1133"/>
      <point x="242" y="1108" type="curve" smooth="yes"/>
      <point x="263" y="1083"/>
      <point x="296" y="1075"/>
      <point x="320" y="1090" type="curve" smooth="yes"/>
      <point x="491" y="1192" type="line" smooth="yes"/>
      <point x="519" y="1208"/>
      <point x="531" y="1240"/>
      <point x="525" y="1276" type="curve" smooth="yes"/>
      <point x="518" y="1312"/>
      <point x="493" y="1341"/>
      <point x="459" y="1354" type="curve" smooth="yes"/>
      <point x="426" y="1368"/>
      <point x="392" y="1361"/>
    </contour>
  </outline>
</glyph>
<glyph name="Ecircumflex" format="1">
  <advance width="763"/>
  <unicode hex="00CA"/>
  <outline>
    <contour>
      <point x="539" y="0" type="line" smooth="yes"/>
      <point x="588" y="0"/>
      <point x="627" y="39"/>
      <point x="627" y="88" type="curve" smooth="yes"/>
      <point x="627" y="136"/>
      <point x="588" y="176"/>
      <point x="539" y="176" type="curve" smooth="yes"/>
      <point x="190" y="176" type="line"/>
      <point x="190" y="422" type="line"/>
      <point x="417" y="422" type="line" smooth="yes"/>
      <point x="466" y="422"/>
      <point x="506" y="461"/>
      <point x="506" y="510" type="curve" smooth="yes"/>
      <point x="506" y="559"/>
      <point x="466" y="598"/>
      <point x="417" y="598" type="curve" smooth="yes"/>
      <point x="190" y="598" type="line"/>
      <point x="190" y="824" type="line"/>
      <point x="539" y="824" type="line" smooth="yes"/>
      <point x="588" y="824"/>
      <point x="627" y="864"/>
      <point x="627" y="912" type="curve" smooth="yes"/>
      <point x="627" y="961"/>
      <point x="588" y="1000"/>
      <point x="539" y="1000" type="curve" smooth="yes"/>
      <point x="109" y="1000" type="line" smooth="yes"/>
      <point x="49" y="1000"/>
      <point x="0" y="958"/>
      <point x="0" y="906" type="curve" smooth="yes"/>
      <point x="0" y="94" type="line" smooth="yes"/>
      <point x="0" y="42"/>
      <point x="49" y="0"/>
      <point x="109" y="0" type="curve" smooth="yes"/>
    </contour>
    <contour>
      <point x="110" y="1224" type="line" smooth="yes"/>
      <point x="96" y="1209"/>
      <point x="88" y="1189"/>
      <point x="89" y="1166" type="curve" smooth="yes"/>
      <point x="90" y="1118"/>
      <point x="131" y="1078"/>
      <point x="179" y="1076" type="curve" smooth="yes"/>
      <point x="204" y="1075"/>
      <point x="226" y="1085"/>
      <point x="241" y="1101" type="curve" smooth="yes"/>
      <point x="314" y="1180" type="line"/>
      <point x="386" y="1101" type="line" smooth="yes"/>
      <point x="401" y="1085"/>
      <point x="423" y="1075"/>
      <point x="449" y="1076" type="curve" smooth="yes"/>
      <point x="497" y="1078"/>
      <point x="537" y="1118"/>
      <point x="539" y="1166" type="curve"/>
      <point x="539" y="1189"/>
      <point x="531" y="1209"/>
      <point x="518" y="1224" type="curve" smooth="yes"/>
      <point x="399" y="1352" type="line" smooth="yes"/>
      <point x="379" y="1374"/>
      <point x="348" y="1388"/>
      <point x="314" y="1388" type="curve" smooth="yes"/>
      <point x="279" y="1388"/>
      <point x="248" y="1374"/>
      <point x="228" y="1352" type="curve" smooth="yes"/>
    </contour>
  </outline>
</glyph>
<glyph name="Edieresis" format="1">
  <advance width="763"/>
  <unicode hex="00CB"/>
  <outline>
    <contour>
      <point x="539" y="0" type="line" smooth="yes"/>
      <point x="588" y="0"/>
      <point x="627" y="39"/>
      <point x="627" y="88" type="curve" smooth="yes"/>
      <point x="627" y="136"/>
      <point x="588" y="176"/>
      <point x="539" y="176" type="curve" smooth="yes"/>
      <point x="190" y="176" type="line"/>
      <point x="190" y="422" type="line"/>
      <point x="417" y="422" type="line" smooth="yes"/>
      <point x="466" y="422"/>
      <point x="506" y="461"/>
      <point x="506" y="510" type="curve" smooth="yes"/>
      <point x="506" y="559"/>
      <point x="466" y="598"/>
      <point x="417" y="598" type="curve" smooth="yes"/>
      <point x="190" y="598" type="line"/>
      <point x="190" y="824" type="line"/>
      <point x="539" y="824" type="line" smooth="yes"/>
      <point x="588" y="824"/>
      <point x="627" y="864"/>
      <point x="627" y="912" type="curve" smooth="yes"/>
      <point x="627" y="961"/>
      <point x="588" y="1000"/>
      <point x="539" y="1000" type="curve" smooth="yes"/>
      <point x="109" y="1000" type="line" smooth="yes"/>
      <point x="49" y="1000"/>
      <point x="0" y="958"/>
      <point x="0" y="906" type="curve" smooth="yes"/>
      <point x="0" y="94" type="line" smooth="yes"/>
      <point x="0" y="42"/>
      <point x="49" y="0"/>
      <point x="109" y="0" type="curve" smooth="yes"/>
    </contour>
    <contour>
      <point x="235" y="1169" type="line" smooth="yes"/>
      <point x="235" y="1214"/>
      <point x="193" y="1251"/>
      <point x="140" y="1251" type="curve" smooth="yes"/>
      <point x="88" y="1251"/>
      <point x="45" y="1214"/>
      <point x="45" y="1169" type="curve" smooth="yes"/>
      <point x="45" y="1157" type="line" smooth="yes"/>
      <point x="45" y="1112"/>
      <point x="88" y="1075"/>
      <point x="140" y="1075" type="curve" smooth="yes"/>
      <point x="193" y="1075"/>
      <point x="235" y="1112"/>
      <point x="235" y="1157" type="curve" smooth="yes"/>
    </contour>
    <contour>
      <point x="582" y="1169" type="line" smooth="yes"/>
      <point x="582" y="1214"/>
      <point x="539" y="1251"/>
      <point x="487" y="1251" type="curve" smooth="yes"/>
      <point x="435" y="1251"/>
      <point x="392" y="1214"/>
      <point x="392" y="1169" type="curve" smooth="yes"/>
      <point x="392" y="1157" type="line" smooth="yes"/>
      <point x="392" y="1112"/>
      <point x="435" y="1075"/>
      <point x="487" y="1075" type="curve" smooth="yes"/>
      <point x="539" y="1075"/>
      <point x="582" y="1112"/>
      <point x="582" y="1157" type="curve" smooth="yes"/>
    </contour>
  </outline>
</glyph>
<glyph name="Igrave" format="1">
  <advance width="325"/>
  <unicode hex="00CC"/>
  <outline>
    <contour>
      <point x="190" y="923" type="line" smooth="yes"/>
      <point x="190" y="969"/>
      <point x="147" y="1005"/>
      <point x="95" y="1005" type="curve" smooth="yes"/>
      <point x="43" y="1005"/>
      <point x="0" y="969"/>
      <point x="0" y="923" type="curve" smooth="yes"/>
      <point x="0" y="77" type="line" smooth="yes"/>
      <point x="0" y="31"/>
      <point x="43" y="-5"/>
      <point x="95" y="-5" type="curve" smooth="yes"/>
      <point x="147" y="-5"/>
      <point x="190" y="31"/>
      <point x="190" y="77" type="curve" smooth="yes"/>
    </contour>
    <contour>
      <point x="38" y="1337" type="line" smooth="yes"/>
      <point x="16" y="1361"/>
      <point x="-17" y="1368"/>
      <point x="-51" y="1354" type="curve" smooth="yes"/>
      <point x="-85" y="1341"/>
      <point x="-109" y="1312"/>
      <point x="-116" y="1276" type="curve" smooth="yes"/>
      <point x="-123" y="1240"/>
      <point x="-110" y="1208"/>
      <point x="-82" y="1192" type="curve" smooth="yes"/>
      <point x="89" y="1090" type="line" smooth="yes"/>
      <point x="113" y="1075"/>
      <point x="146" y="1083"/>
      <point x="167" y="1108" type="curve" smooth="yes"/>
      <point x="188" y="1133"/>
      <point x="189" y="1167"/>
      <point x="170" y="1188" type="curve" smooth="yes"/>
    </contour>
  </outline>
</glyph>
<glyph name="Iacute" format="1">
  <advance width="325"/>
  <unicode hex="00CD"/>
  <outline>
    <contour>
      <point x="190" y="923" type="line" smooth="yes"/>
      <point x="190" y="969"/>
      <point x="147" y="1005"/>
      <point x="95" y="1005" type="curve" smooth="yes"/>
      <point x="43" y="1005"/>
      <point x="0" y="969"/>
      <point x="0" y="923" type="curve" smooth="yes"/>
      <point x="0" y="77" type="line" smooth="yes"/>
      <point x="0" y="31"/>
      <point x="43" y="-5"/>
      <point x="95" y="-5" type="curve" smooth="yes"/>
      <point x="147" y="-5"/>
      <point x="190" y="31"/>
      <point x="190" y="77" type="curve" smooth="yes"/>
    </contour>
    <contour>
      <point x="152" y="1337" type="curve" smooth="yes"/>
      <point x="20" y="1188" type="line" smooth="yes"/>
      <point x="1" y="1167"/>
      <point x="2" y="1133"/>
      <point x="23" y="1108" type="curve" smooth="yes"/>
      <point x="44" y="1083"/>
      <point x="77" y="1075"/>
      <point x="101" y="1090" type="curve" smooth="yes"/>
      <point x="272" y="1192" type="line" smooth="yes"/>
      <point x="300" y="1208"/>
      <point x="313" y="1240"/>
      <point x="306" y="1276" type="curve" smooth="yes"/>
      <point x="299" y="1312"/>
      <point x="275" y="1341"/>
      <point x="241" y="1354" type="curve" smooth="yes"/>
      <point x="207" y="1368"/>
      <point x="174" y="1361"/>
    </contour>
  </outline>
</glyph>
<glyph name="Icircumflex" format="1">
  <advance width="325"/>
  <unicode hex="00CE"/>
  <outline>
    <contour>
      <point x="190" y="923" type="line" smooth="yes"/>
      <point x="190" y="969"/>
      <point x="147" y="1005"/>
      <point x="95" y="1005" type="curve" smooth="yes"/>
      <point x="43" y="1005"/>
      <point x="0" y="969"/>
      <point x="0" y="923" type="curve" smooth="yes"/>
      <point x="0" y="77" type="line" smooth="yes"/>
      <point x="0" y="31"/>
      <point x="43" y="-5"/>
      <point x="95" y="-5" type="curve" smooth="yes"/>
      <point x="147" y="-5"/>
      <point x="190" y="31"/>
      <point x="190" y="77" type="curve" smooth="yes"/>
    </contour>
    <contour>
      <point x="-109" y="1224" type="line" smooth="yes"/>
      <point x="-123" y="1209"/>
      <point x="-131" y="1189"/>
      <point x="-130" y="1166" type="curve" smooth="yes"/>
      <point x="-128" y="1118"/>
      <point x="-88" y="1078"/>
      <point x="-40" y="1076" type="curve" smooth="yes"/>
      <point x="-15" y="1075"/>
      <point x="7" y="1085"/>
      <point x="23" y="1101" type="curve" smooth="yes"/>
      <point x="95" y="1180" type="line"/>
      <point x="167" y="1101" type="line" smooth="yes"/>
      <point x="183" y="1085"/>
      <point x="205" y="1075"/>
      <point x="230" y="1076" type="curve" smooth="yes"/>
      <point x="278" y="1078"/>
      <point x="318" y="1118"/>
      <point x="320" y="1166" type="curve" smooth="yes"/>
      <point x="321" y="1189"/>
      <point x="313" y="1209"/>
      <point x="299" y="1224" type="curve" smooth="yes"/>
      <point x="181" y="1352" type="line" smooth="yes"/>
      <point x="161" y="1374"/>
      <point x="130" y="1388"/>
      <point x="95" y="1388" type="curve" smooth="yes"/>
      <point x="60" y="1388"/>
      <point x="29" y="1374"/>
      <point x="9" y="1352" type="curve" smooth="yes"/>
    </contour>
  </outline>
</glyph>
